  0
SECTION
  2
HEADER
  9
$ACADVER
  1
AC1024
  9
$ACADMAINTVER
 70
     6
  9
$DWGCODEPAGE
  3
ANSI_1254
  9
$LASTSAVEDBY
  1
Mehmet
  9
$INSBASE
 10
0.0
 20
0.0
 30
0.0
  9
$EXTMIN
 10
241561.1814667838
 20
4251646.019994829
 30
1807.910542177863
  9
$EXTMAX
 10
241688.974571752
 20
4251826.626561851
 30
1813.77099609375
  9
$LIMMIN
 10
0.0
 20
0.0
  9
$LIMMAX
 10
420.0
 20
297.0
  9
$ORTHOMODE
 70
     0
  9
$REGENMODE
 70
     1
  9
$FILLMODE
 70
     1
  9
$QTEXTMODE
 70
     0
  9
$MIRRTEXT
 70
     1
  9
$LTSCALE
 40
1.0
  9
$ATTMODE
 70
     1
  9
$TEXTSIZE
 40
2.5
  9
$TRACEWID
 40
1.0
  9
$TEXTSTYLE
  7
Standard
  9
$CLAYER
  8
GEOFENCE
  9
$CELTYPE
  6
ByLayer
  9
$CECOLOR
 62
   256
  9
$CELTSCALE
 40
1.0
  9
$DISPSILH
 70
     0
  9
$DIMSCALE
 40
1.0
  9
$DIMASZ
 40
2.5
  9
$DIMEXO
 40
0.625
  9
$DIMDLI
 40
3.75
  9
$DIMRND
 40
0.0
  9
$DIMDLE
 40
0.0
  9
$DIMEXE
 40
1.25
  9
$DIMTP
 40
0.0
  9
$DIMTM
 40
0.0
  9
$DIMTXT
 40
2.5
  9
$DIMCEN
 40
2.5
  9
$DIMTSZ
 40
0.0
  9
$DIMTOL
 70
     0
  9
$DIMLIM
 70
     0
  9
$DIMTIH
 70
     0
  9
$DIMTOH
 70
     0
  9
$DIMSE1
 70
     0
  9
$DIMSE2
 70
     0
  9
$DIMTAD
 70
     1
  9
$DIMZIN
 70
     8
  9
$DIMBLK
  1

  9
$DIMASO
 70
     1
  9
$DIMSHO
 70
     1
  9
$DIMPOST
  1

  9
$DIMAPOST
  1

  9
$DIMALT
 70
     0
  9
$DIMALTD
 70
     3
  9
$DIMALTF
 40
0.03937007874016
  9
$DIMLFAC
 40
1.0
  9
$DIMTOFL
 70
     1
  9
$DIMTVP
 40
0.0
  9
$DIMTIX
 70
     0
  9
$DIMSOXD
 70
     0
  9
$DIMSAH
 70
     0
  9
$DIMBLK1
  1

  9
$DIMBLK2
  1

  9
$DIMSTYLE
  2
ISO-25
  9
$DIMCLRD
 70
     0
  9
$DIMCLRE
 70
     0
  9
$DIMCLRT
 70
     0
  9
$DIMTFAC
 40
1.0
  9
$DIMGAP
 40
0.625
  9
$DIMJUST
 70
     0
  9
$DIMSD1
 70
     0
  9
$DIMSD2
 70
     0
  9
$DIMTOLJ
 70
     0
  9
$DIMTZIN
 70
     8
  9
$DIMALTZ
 70
     0
  9
$DIMALTTZ
 70
     0
  9
$DIMUPT
 70
     0
  9
$DIMDEC
 70
     2
  9
$DIMTDEC
 70
     2
  9
$DIMALTU
 70
     2
  9
$DIMALTTD
 70
     3
  9
$DIMTXSTY
  7
Standard
  9
$DIMAUNIT
 70
     0
  9
$DIMADEC
 70
     0
  9
$DIMALTRND
 40
0.0
  9
$DIMAZIN
 70
     0
  9
$DIMDSEP
 70
    44
  9
$DIMATFIT
 70
     3
  9
$DIMFRAC
 70
     0
  9
$DIMLDRBLK
  1

  9
$DIMLUNIT
 70
     2
  9
$DIMLWD
 70
    -2
  9
$DIMLWE
 70
    -2
  9
$DIMTMOVE
 70
     0
  9
$DIMFXL
 40
1.0
  9
$DIMFXLON
 70
     0
  9
$DIMJOGANG
 40
0.7853981633974483
  9
$DIMTFILL
 70
     0
  9
$DIMTFILLCLR
 70
     0
  9
$DIMARCSYM
 70
     0
  9
$DIMLTYPE
  6

  9
$DIMLTEX1
  6

  9
$DIMLTEX2
  6

  9
$DIMTXTDIRECTION
 70
     0
  9
$LUNITS
 70
     2
  9
$LUPREC
 70
     4
  9
$SKETCHINC
 40
1.0
  9
$FILLETRAD
 40
10.0
  9
$AUNITS
 70
     0
  9
$AUPREC
 70
     0
  9
$MENU
  1
.
  9
$ELEVATION
 40
0.0
  9
$PELEVATION
 40
0.0
  9
$THICKNESS
 40
0.0
  9
$LIMCHECK
 70
     0
  9
$CHAMFERA
 40
10.0
  9
$CHAMFERB
 40
10.0
  9
$CHAMFERC
 40
20.0
  9
$CHAMFERD
 40
0.0
  9
$SKPOLY
 70
     0
  9
$TDCREATE
 40
2458037.828819873
  9
$TDUCREATE
 40
2458037.703819873
  9
$TDUPDATE
 40
2458039.5047486
  9
$TDUUPDATE
 40
2458039.3797486
  9
$TDINDWG
 40
0.0422030208
  9
$TDUSRTIMER
 40
2458039.379280486
  9
$USRTIMER
 70
     1
  9
$ANGBASE
 50
0.0
  9
$ANGDIR
 70
     0
  9
$PDMODE
 70
     0
  9
$PDSIZE
 40
0.0
  9
$PLINEWID
 40
0.0
  9
$SPLFRAME
 70
     0
  9
$SPLINETYPE
 70
     6
  9
$SPLINESEGS
 70
     8
  9
$HANDSEED
  5
385
  9
$SURFTAB1
 70
     6
  9
$SURFTAB2
 70
     6
  9
$SURFTYPE
 70
     6
  9
$SURFU
 70
     6
  9
$SURFV
 70
     6
  9
$UCSBASE
  2

  9
$UCSNAME
  2

  9
$UCSORG
 10
0.0
 20
0.0
 30
0.0
  9
$UCSXDIR
 10
1.0
 20
0.0
 30
0.0
  9
$UCSYDIR
 10
0.0
 20
1.0
 30
0.0
  9
$UCSORTHOREF
  2

  9
$UCSORTHOVIEW
 70
     1
  9
$UCSORGTOP
 10
0.0
 20
0.0
 30
0.0
  9
$UCSORGBOTTOM
 10
0.0
 20
0.0
 30
0.0
  9
$UCSORGLEFT
 10
0.0
 20
0.0
 30
0.0
  9
$UCSORGRIGHT
 10
0.0
 20
0.0
 30
0.0
  9
$UCSORGFRONT
 10
0.0
 20
0.0
 30
0.0
  9
$UCSORGBACK
 10
0.0
 20
0.0
 30
0.0
  9
$PUCSBASE
  2

  9
$PUCSNAME
  2

  9
$PUCSORG
 10
0.0
 20
0.0
 30
0.0
  9
$PUCSXDIR
 10
1.0
 20
0.0
 30
0.0
  9
$PUCSYDIR
 10
0.0
 20
1.0
 30
0.0
  9
$PUCSORTHOREF
  2

  9
$PUCSORTHOVIEW
 70
     0
  9
$PUCSORGTOP
 10
0.0
 20
0.0
 30
0.0
  9
$PUCSORGBOTTOM
 10
0.0
 20
0.0
 30
0.0
  9
$PUCSORGLEFT
 10
0.0
 20
0.0
 30
0.0
  9
$PUCSORGRIGHT
 10
0.0
 20
0.0
 30
0.0
  9
$PUCSORGFRONT
 10
0.0
 20
0.0
 30
0.0
  9
$PUCSORGBACK
 10
0.0
 20
0.0
 30
0.0
  9
$USERI1
 70
     0
  9
$USERI2
 70
     0
  9
$USERI3
 70
     0
  9
$USERI4
 70
     0
  9
$USERI5
 70
     0
  9
$USERR1
 40
0.0
  9
$USERR2
 40
0.0
  9
$USERR3
 40
0.0
  9
$USERR4
 40
0.0
  9
$USERR5
 40
0.0
  9
$WORLDVIEW
 70
     1
  9
$SHADEDGE
 70
     3
  9
$SHADEDIF
 70
    70
  9
$TILEMODE
 70
     1
  9
$MAXACTVP
 70
    64
  9
$PINSBASE
 10
0.0
 20
0.0
 30
0.0
  9
$PLIMCHECK
 70
     0
  9
$PEXTMIN
 10
1.000000000000000E+20
 20
1.000000000000000E+20
 30
1.000000000000000E+20
  9
$PEXTMAX
 10
-1.000000000000000E+20
 20
-1.000000000000000E+20
 30
-1.000000000000000E+20
  9
$PLIMMIN
 10
0.0
 20
0.0
  9
$PLIMMAX
 10
0.0
 20
0.0
  9
$UNITMODE
 70
     0
  9
$VISRETAIN
 70
     1
  9
$PLINEGEN
 70
     0
  9
$PSLTSCALE
 70
     1
  9
$TREEDEPTH
 70
  3020
  9
$CMLSTYLE
  2
Standard
  9
$CMLJUST
 70
     0
  9
$CMLSCALE
 40
20.0
  9
$PROXYGRAPHICS
 70
     1
  9
$MEASUREMENT
 70
     1
  9
$CELWEIGHT
370
    -1
  9
$ENDCAPS
280
     0
  9
$JOINSTYLE
280
     0
  9
$LWDISPLAY
290
     0
  9
$INSUNITS
 70
     4
  9
$HYPERLINKBASE
  1

  9
$STYLESHEET
  1

  9
$XEDIT
290
     1
  9
$CEPSNTYPE
380
     0
  9
$PSTYLEMODE
290
     1
  9
$FINGERPRINTGUID
  2
{5F09C3EE-B4B8-447E-AFE9-F7CC965834CE}
  9
$VERSIONGUID
  2
{D9191B29-703F-4E5D-A22D-971E27C5C118}
  9
$EXTNAMES
290
     1
  9
$PSVPSCALE
 40
0.0
  9
$OLESTARTUP
290
     0
  9
$SORTENTS
280
   127
  9
$INDEXCTL
280
     0
  9
$HIDETEXT
280
     1
  9
$XCLIPFRAME
280
     0
  9
$HALOGAP
280
     0
  9
$OBSCOLOR
 70
   257
  9
$OBSLTYPE
280
     0
  9
$INTERSECTIONDISPLAY
280
     0
  9
$INTERSECTIONCOLOR
 70
   257
  9
$DIMASSOC
280
     2
  9
$PROJECTNAME
  1

  9
$CAMERADISPLAY
290
     0
  9
$LENSLENGTH
 40
50.0
  9
$CAMERAHEIGHT
 40
0.0
  9
$STEPSPERSEC
 40
2.0
  9
$STEPSIZE
 40
6.0
  9
$3DDWFPREC
 40
2.0
  9
$PSOLWIDTH
 40
5.0
  9
$PSOLHEIGHT
 40
80.0
  9
$LOFTANG1
 40
1.570796326794897
  9
$LOFTANG2
 40
1.570796326794897
  9
$LOFTMAG1
 40
0.0
  9
$LOFTMAG2
 40
0.0
  9
$LOFTPARAM
 70
     7
  9
$LOFTNORMALS
280
     1
  9
$LATITUDE
 40
37.795
  9
$LONGITUDE
 40
-122.394
  9
$NORTHDIRECTION
 40
0.0
  9
$TIMEZONE
 70
 -8000
  9
$LIGHTGLYPHDISPLAY
280
     1
  9
$TILEMODELIGHTSYNCH
280
     1
  9
$CMATERIAL
347
3C
  9
$SOLIDHIST
280
     1
  9
$SHOWHIST
280
     1
  9
$DWFFRAME
280
     2
  9
$DGNFRAME
280
     2
  9
$REALWORLDSCALE
290
     1
  9
$INTERFERECOLOR
 62
   256
  9
$CSHADOW
280
     0
  9
$SHADOWPLANELOCATION
 40
0.0
  0
ENDSEC
  0
SECTION
  2
CLASSES
  0
CLASS
  1
ACDBDICTIONARYWDFLT
  2
AcDbDictionaryWithDefault
  3
ObjectDBX Classes
 90
        0
 91
        6
280
     0
281
     0
  0
CLASS
  1
VISUALSTYLE
  2
AcDbVisualStyle
  3
ObjectDBX Classes
 90
     4095
 91
        6
280
     0
281
     0
  0
CLASS
  1
MATERIAL
  2
AcDbMaterial
  3
ObjectDBX Classes
 90
     1153
 91
        6
280
     0
281
     0
  0
CLASS
  1
SCALE
  2
AcDbScale
  3
ObjectDBX Classes
 90
     1153
 91
        6
280
     0
281
     0
  0
CLASS
  1
DICTIONARYVAR
  2
AcDbDictionaryVar
  3
ObjectDBX Classes
 90
        0
 91
        6
280
     0
281
     0
  0
CLASS
  1
TABLESTYLE
  2
AcDbTableStyle
  3
ObjectDBX Classes
 90
     4095
 91
        6
280
     0
281
     0
  0
CLASS
  1
MLEADERSTYLE
  2
AcDbMLeaderStyle
  3
ACDB_MLEADERSTYLE_CLASS
 90
     4095
 91
        6
280
     0
281
     0
  0
CLASS
  1
SOLID_BACKGROUND
  2
AcDbSolidBackground
  3
SCENEOE
 90
     4095
 91
        6
280
     0
281
     0
  0
CLASS
  1
NPOCOLLECTION
  2
AcDbImpNonPersistentObjectsCollection
  3
ObjectDBX Classes
 90
     1153
 91
        1
280
     1
281
     0
  0
CLASS
  1
CELLSTYLEMAP
  2
AcDbCellStyleMap
  3
ObjectDBX Classes
 90
     1152
 91
        6
280
     0
281
     0
  0
CLASS
  1
SUN
  2
AcDbSun
  3
SCENEOE
 90
     1153
 91
        6
280
     0
281
     0
  0
CLASS
  1
RASTERVARIABLES
  2
AcDbRasterVariables
  3
ISM
 90
        0
 91
        6
280
     0
281
     0
  0
ENDSEC
  0
SECTION
  2
TABLES
  0
TABLE
  2
VPORT
  5
8
330
0
100
AcDbSymbolTable
 70
     1
  0
VPORT
  5
29
330
8
100
AcDbSymbolTableRecord
100
AcDbViewportTableRecord
  2
*Active
 70
     0
 10
0.0
 20
0.0
 11
1.0
 21
1.0
 12
938.1621636543423
 22
-1520.468786057085
 13
0.0
 23
0.0
 14
10.0
 24
10.0
 15
10.0
 25
10.0
 16
0.0
 26
0.0
 36
1.0
 17
240629.1551798195
 27
4253185.802207365
 37
1348.457117649024
 40
12.659412556416
 41
2.171511627906977
 42
50.0
 43
0.0
 44
0.0
 50
0.0
 51
0.0
 71
    16
 72
   100
 73
     1
 74
     3
 75
     0
 76
     0
 77
     0
 78
     0
281
     0
 65
     1
110
0.0
120
0.0
130
0.0
111
1.0
121
0.0
131
0.0
112
0.0
122
1.0
132
0.0
 79
     1
146
0.0
348
2F
 60
     3
 61
     5
292
     1
282
     1
141
0.0
142
0.0
 63
   250
361
318
  0
ENDTAB
  0
TABLE
  2
LTYPE
  5
5
330
0
100
AcDbSymbolTable
 70
     1
  0
LTYPE
  5
14
330
5
100
AcDbSymbolTableRecord
100
AcDbLinetypeTableRecord
  2
ByBlock
 70
     0
  3

 72
    65
 73
     0
 40
0.0
  0
LTYPE
  5
15
330
5
100
AcDbSymbolTableRecord
100
AcDbLinetypeTableRecord
  2
ByLayer
 70
     0
  3

 72
    65
 73
     0
 40
0.0
  0
LTYPE
  5
16
330
5
100
AcDbSymbolTableRecord
100
AcDbLinetypeTableRecord
  2
Continuous
 70
     0
  3
Solid line
 72
    65
 73
     0
 40
0.0
  0
ENDTAB
  0
TABLE
  2
LAYER
  5
2
102
{ACAD_XDICTIONARY
360
31D
102
}
330
0
100
AcDbSymbolTable
 70
     8
  0
LAYER
  5
10
102
{ACAD_XDICTIONARY
360
1DE
102
}
330
2
100
AcDbSymbolTableRecord
100
AcDbLayerTableRecord
  2
0
 70
     0
 62
     5
  6
Continuous
370
     0
390
F
347
3E
  0
LAYER
  5
9C
102
{ACAD_XDICTIONARY
360
29A
102
}
330
2
100
AcDbSymbolTableRecord
100
AcDbLayerTableRecord
  2
ATOCAGI2NOLUBACA
 70
     0
 62
    40
  6
Continuous
370
     0
390
F
347
3E
  0
LAYER
  5
A1
102
{ACAD_XDICTIONARY
360
2A4
102
}
330
2
100
AcDbSymbolTableRecord
100
AcDbLayerTableRecord
  2
TAS
 70
     0
 62
     7
  6
Continuous
370
    -3
390
F
347
3E
  0
LAYER
  5
A6
102
{ACAD_XDICTIONARY
360
2AE
102
}
330
2
100
AcDbSymbolTableRecord
100
AcDbLayerTableRecord
  2
SONDAJ_KESiT
 70
     0
 62
     7
  6
Continuous
370
    -3
390
F
347
3E
  0
LAYER
  5
A9
102
{ACAD_XDICTIONARY
360
2B4
102
}
330
2
100
AcDbSymbolTableRecord
100
AcDbLayerTableRecord
  2
TAS_TARAMA
 70
     0
 62
     7
  6
Continuous
370
    -3
390
F
347
3E
  0
LAYER
  5
AC
102
{ACAD_XDICTIONARY
360
2BA
102
}
330
2
100
AcDbSymbolTableRecord
100
AcDbLayerTableRecord
  2
DAYK_ONU_KESITLERI
 70
     0
 62
     7
  6
Continuous
370
    -3
390
F
347
3E
  0
LAYER
  5
326
330
2
100
AcDbSymbolTableRecord
100
AcDbLayerTableRecord
  2
INIT_COORD
 70
     0
 62
     5
  6
Continuous
370
     0
390
F
347
3E
1001
AcAecLayerStandard
1000

1000

  0
LAYER
  5
331
330
2
100
AcDbSymbolTableRecord
100
AcDbLayerTableRecord
  2
GEOFENCE
 70
     0
 62
     3
  6
Continuous
370
     0
390
F
347
3E
1001
AcAecLayerStandard
1000

1000

  0
ENDTAB
  0
TABLE
  2
STYLE
  5
3
330
0
100
AcDbSymbolTable
 70
     1
  0
STYLE
  5
11
330
3
100
AcDbSymbolTableRecord
100
AcDbTextStyleTableRecord
  2
Standard
 70
     0
 40
0.0
 41
1.0
 50
0.0
 71
     0
 42
2.5
  3
times.ttf
  4

1001
ACAD
1000
Times New Roman
1071
       18
  0
ENDTAB
  0
TABLE
  2
VIEW
  5
6
330
0
100
AcDbSymbolTable
 70
     0
  0
ENDTAB
  0
TABLE
  2
UCS
  5
7
330
0
100
AcDbSymbolTable
 70
     0
  0
ENDTAB
  0
TABLE
  2
APPID
  5
9
330
0
100
AcDbSymbolTable
 70
     3
  0
APPID
  5
12
330
9
100
AcDbSymbolTableRecord
100
AcDbRegAppTableRecord
  2
ACAD
 70
     0
  0
APPID
  5
1D7
330
9
100
AcDbSymbolTableRecord
100
AcDbRegAppTableRecord
  2
ACAD_MLEADERVER
 70
     0
  0
APPID
  5
327
330
9
100
AcDbSymbolTableRecord
100
AcDbRegAppTableRecord
  2
AcAecLayerStandard
 70
     0
  0
ENDTAB
  0
TABLE
  2
DIMSTYLE
  5
A
330
0
100
AcDbSymbolTable
 70
     1
100
AcDbDimStyleTable
  0
DIMSTYLE
105
27
330
A
100
AcDbSymbolTableRecord
100
AcDbDimStyleTableRecord
  2
ISO-25
 70
     0
 41
2.5
 42
0.625
 43
3.75
 44
1.25
 73
     0
 74
     0
 77
     1
 78
     8
140
2.5
141
2.5
143
0.03937007874016
147
0.625
171
     3
172
     1
178
     0
271
     2
272
     2
274
     3
278
    44
283
     0
284
     8
340
11
  0
ENDTAB
  0
TABLE
  2
BLOCK_RECORD
  5
1
330
0
100
AcDbSymbolTable
 70
     2
  0
BLOCK_RECORD
  5
1F
330
1
100
AcDbSymbolTableRecord
100
AcDbBlockTableRecord
  2
*Model_Space
340
22
 70
     0
280
     1
281
     0
  0
BLOCK_RECORD
  5
1B
330
1
100
AcDbSymbolTableRecord
100
AcDbBlockTableRecord
  2
*Paper_Space
340
1E
 70
     0
280
     1
281
     0
  0
BLOCK_RECORD
  5
23
330
1
100
AcDbSymbolTableRecord
100
AcDbBlockTableRecord
  2
*Paper_Space0
340
26
 70
     0
280
     1
281
     0
  0
BLOCK_RECORD
  5
17F
330
1
100
AcDbSymbolTableRecord
100
AcDbBlockTableRecord
  2
0
340
0
102
{BLKREFS
331
1A4
102
}
 70
     0
280
     1
281
     0
  0
ENDTAB
  0
ENDSEC
  0
SECTION
  2
BLOCKS
  0
BLOCK
  5
20
330
1F
100
AcDbEntity
  8
0
100
AcDbBlockBegin
  2
*Model_Space
 70
     0
 10
0.0
 20
0.0
 30
0.0
  3
*Model_Space
  1

  0
ENDBLK
  5
21
330
1F
100
AcDbEntity
  8
0
100
AcDbBlockEnd
  0
BLOCK
  5
1C
330
1B
100
AcDbEntity
 67
     1
  8
0
100
AcDbBlockBegin
  2
*Paper_Space
 70
     0
 10
0.0
 20
0.0
 30
0.0
  3
*Paper_Space
  1

  0
ENDBLK
  5
1D
330
1B
100
AcDbEntity
 67
     1
  8
0
100
AcDbBlockEnd
  0
BLOCK
  5
24
330
23
100
AcDbEntity
  8
0
100
AcDbBlockBegin
  2
*Paper_Space0
 70
     0
 10
0.0
 20
0.0
 30
0.0
  3
*Paper_Space0
  1

  0
ENDBLK
  5
25
330
23
100
AcDbEntity
  8
0
100
AcDbBlockEnd
  0
BLOCK
  5
180
330
17F
100
AcDbEntity
  8
0
100
AcDbBlockBegin
  2
0
 70
     0
 10
0.0
 20
0.0
 30
0.0
  3
0
  1

  0
ENDBLK
  5
181
330
17F
100
AcDbEntity
  8
0
100
AcDbBlockEnd
  0
ENDSEC
  0
SECTION
  2
ENTITIES
  0
POINT
  5
CF
330
1F
100
AcDbEntity
  8
ATOCAGI2NOLUBACA
370
     0
100
AcDbPoint
 10
241627.14
 20
4251741.92
 30
1808.910034179688
  0
POINT
  5
D0
330
1F
100
AcDbEntity
  8
ATOCAGI2NOLUBACA
370
     0
100
AcDbPoint
 10
241626.53
 20
4251746.83
 30
1809.170043945312
  0
POINT
  5
D1
330
1F
100
AcDbEntity
  8
ATOCAGI2NOLUBACA
370
     0
100
AcDbPoint
 10
241631.71
 20
4251754.92
 30
1809.030029296875
  0
POINT
  5
D2
330
1F
100
AcDbEntity
  8
ATOCAGI2NOLUBACA
370
     0
100
AcDbPoint
 10
241637.81
 20
4251756.65
 30
1808.81005859375
  0
POINT
  5
D3
330
1F
100
AcDbEntity
  8
ATOCAGI2NOLUBACA
370
     0
100
AcDbPoint
 10
241642.5
 20
4251769.29
 30
1808.52001953125
  0
POINT
  5
D4
330
1F
100
AcDbEntity
  8
ATOCAGI2NOLUBACA
370
     0
100
AcDbPoint
 10
241646.08
 20
4251766.66
 30
1808.380004882812
  0
POINT
  5
D5
330
1F
100
AcDbEntity
  8
ATOCAGI2NOLUBACA
370
     0
100
AcDbPoint
 10
241647.46
 20
4251768.41
 30
1808.449951171875
  0
POINT
  5
D6
330
1F
100
AcDbEntity
  8
ATOCAGI2NOLUBACA
370
     0
100
AcDbPoint
 10
241650.94
 20
4251767.75
 30
1808.5
  0
POINT
  5
D7
330
1F
100
AcDbEntity
  8
ATOCAGI2NOLUBACA
370
     0
100
AcDbPoint
 10
241652.51
 20
4251770.29
 30
1808.5
  0
POINT
  5
D8
330
1F
100
AcDbEntity
  8
ATOCAGI2NOLUBACA
370
     0
100
AcDbPoint
 10
241649.04
 20
4251771.8
 30
1808.489990234375
  0
POINT
  5
DA
330
1F
100
AcDbEntity
  8
ATOCAGI2NOLUBACA
370
     0
100
AcDbPoint
 10
241642.21
 20
4251769.09
 30
1808.599975585938
  0
POINT
  5
DB
330
1F
100
AcDbEntity
  8
ATOCAGI2NOLUBACA
370
     0
100
AcDbPoint
 10
241648.53
 20
4251778.46
 30
1808.380004882812
  0
POINT
  5
DC
330
1F
100
AcDbEntity
  8
ATOCAGI2NOLUBACA
370
     0
100
AcDbPoint
 10
241653.26
 20
4251778.3
 30
1808.02001953125
  0
POINT
  5
DD
330
1F
100
AcDbEntity
  8
ATOCAGI2NOLUBACA
370
     0
100
AcDbPoint
 10
241650.58
 20
4251782.9
 30
1808.2900390625
  0
POINT
  5
DE
330
1F
100
AcDbEntity
  8
ATOCAGI2NOLUBACA
370
     0
100
AcDbPoint
 10
241655.73
 20
4251785.76
 30
1808.43994140625
  0
POINT
  5
DF
330
1F
100
AcDbEntity
  8
ATOCAGI2NOLUBACA
370
     0
100
AcDbPoint
 10
241659.32
 20
4251790.99
 30
1808.31005859375
  0
POINT
  5
E0
330
1F
100
AcDbEntity
  8
ATOCAGI2NOLUBACA
370
     0
100
AcDbPoint
 10
241657.06
 20
4251793.31
 30
1808.27001953125
  0
POINT
  5
E1
330
1F
100
AcDbEntity
  8
ATOCAGI2NOLUBACA
370
     0
100
AcDbPoint
 10
241660.06
 20
4251798.95
 30
1808.43994140625
  0
LINE
  5
E5
330
1F
100
AcDbEntity
  8
ATOCAGI2NOLUBACA
370
     0
100
AcDbLine
 10
241563.71
 20
4251665.36
 30
1808.630004882812
 11
241572.27
 21
4251671.61
 31
1808.75
  0
LINE
  5
E6
330
1F
100
AcDbEntity
  8
ATOCAGI2NOLUBACA
370
     0
100
AcDbLine
 10
241572.27
 20
4251671.61
 30
1808.75
 11
241577.77
 21
4251678.64
 31
1808.900024414062
  0
LINE
  5
E7
330
1F
100
AcDbEntity
  8
ATOCAGI2NOLUBACA
370
     0
100
AcDbLine
 10
241577.77
 20
4251678.64
 30
1808.900024414062
 11
241579.94
 21
4251682.99
 31
1808.800048828125
  0
LINE
  5
E8
330
1F
100
AcDbEntity
  8
ATOCAGI2NOLUBACA
370
     0
100
AcDbLine
 10
241579.94
 20
4251682.99
 30
1808.800048828125
 11
241582.02
 21
4251687.48
 31
1809.219970703125
  0
LINE
  5
E9
330
1F
100
AcDbEntity
  8
ATOCAGI2NOLUBACA
370
     0
100
AcDbLine
 10
241582.02
 20
4251687.48
 30
1809.219970703125
 11
241584.75
 21
4251690.18
 31
1809.170043945312
  0
LINE
  5
EA
330
1F
100
AcDbEntity
  8
ATOCAGI2NOLUBACA
370
     0
100
AcDbLine
 10
241584.75
 20
4251690.18
 30
1809.170043945312
 11
241589.36
 21
4251694.65
 31
1809.2099609375
  0
LINE
  5
EB
330
1F
100
AcDbEntity
  8
ATOCAGI2NOLUBACA
370
     0
100
AcDbLine
 10
241589.36
 20
4251694.65
 30
1809.2099609375
 11
241594.24
 21
4251701.3
 31
1809.339965820312
  0
LINE
  5
EC
330
1F
100
AcDbEntity
  8
ATOCAGI2NOLUBACA
370
     0
100
AcDbLine
 10
241594.24
 20
4251701.3
 30
1809.339965820312
 11
241597.97
 21
4251706.38
 31
1809.199951171875
  0
LINE
  5
ED
330
1F
100
AcDbEntity
  8
ATOCAGI2NOLUBACA
370
     0
100
AcDbLine
 10
241597.97
 20
4251706.38
 30
1809.199951171875
 11
241599.57
 21
4251708.96
 31
1809.380004882812
  0
LINE
  5
EE
330
1F
100
AcDbEntity
  8
ATOCAGI2NOLUBACA
370
     0
100
AcDbLine
 10
241599.57
 20
4251708.96
 30
1809.380004882812
 11
241603.4244709566
 21
4251715.415196418
 31
1809.160034179688
  0
LINE
  5
EF
330
1F
100
AcDbEntity
  8
ATOCAGI2NOLUBACA
370
     0
100
AcDbLine
 10
241603.4244709566
 20
4251715.415196418
 30
1809.160034179688
 11
241609.34
 21
4251722.86
 31
1809.030029296875
  0
LINE
  5
F0
330
1F
100
AcDbEntity
  8
ATOCAGI2NOLUBACA
370
     0
100
AcDbLine
 10
241609.34
 20
4251722.86
 30
1809.030029296875
 11
241613.14
 21
4251729.03
 31
1808.849975585938
  0
LINE
  5
F1
330
1F
100
AcDbEntity
  8
ATOCAGI2NOLUBACA
370
     0
100
AcDbLine
 10
241613.14
 20
4251729.03
 30
1808.849975585938
 11
241616.29
 21
4251734.48
 31
1808.920043945312
  0
LINE
  5
F2
330
1F
100
AcDbEntity
  8
ATOCAGI2NOLUBACA
370
     0
100
AcDbLine
 10
241627.14
 20
4251741.92
 30
1808.910034179688
 11
241624.61
 21
4251737.37
 31
1808.910034179688
  0
LINE
  5
F3
330
1F
100
AcDbEntity
  8
ATOCAGI2NOLUBACA
370
     0
100
AcDbLine
 10
241624.61
 20
4251737.37
 30
1808.910034179688
 11
241622.35
 21
4251733.07
 31
1808.869995117188
  0
LINE
  5
F4
330
1F
100
AcDbEntity
  8
ATOCAGI2NOLUBACA
370
     0
100
AcDbLine
 10
241622.35
 20
4251733.07
 30
1808.869995117188
 11
241622.94
 21
4251730.75
 31
1808.97998046875
  0
LINE
  5
F5
330
1F
100
AcDbEntity
  8
ATOCAGI2NOLUBACA
370
     0
100
AcDbLine
 10
241622.94
 20
4251730.75
 30
1808.97998046875
 11
241624.82
 21
4251727.84
 31
1809.119995117188
  0
LINE
  5
F6
330
1F
100
AcDbEntity
  8
ATOCAGI2NOLUBACA
370
     0
100
AcDbLine
 10
241624.82
 20
4251727.84
 30
1809.119995117188
 11
241624.27
 21
4251725.66
 31
1809.099975585938
  0
LINE
  5
F7
330
1F
100
AcDbEntity
  8
ATOCAGI2NOLUBACA
370
     0
100
AcDbLine
 10
241624.27
 20
4251725.66
 30
1809.099975585938
 11
241622.5
 21
4251724.42
 31
1809.160034179688
  0
LINE
  5
F8
330
1F
100
AcDbEntity
  8
ATOCAGI2NOLUBACA
370
     0
100
AcDbLine
 10
241622.5
 20
4251724.42
 30
1809.160034179688
 11
241619.66
 21
4251726.68
 31
1808.859985351562
  0
LINE
  5
F9
330
1F
100
AcDbEntity
  8
ATOCAGI2NOLUBACA
370
     0
100
AcDbLine
 10
241619.66
 20
4251726.68
 30
1808.859985351562
 11
241616.72
 21
4251726.77
 31
1808.760009765625
  0
LINE
  5
FA
330
1F
100
AcDbEntity
  8
ATOCAGI2NOLUBACA
370
     0
100
AcDbLine
 10
241616.72
 20
4251726.77
 30
1808.760009765625
 11
241611.36
 21
4251719.63
 31
1809.43994140625
  0
LINE
  5
FB
330
1F
100
AcDbEntity
  8
ATOCAGI2NOLUBACA
370
     0
100
AcDbLine
 10
241602.58
 20
4251708.53
 30
1809.43994140625
 11
241597.44
 21
4251699.36
 31
1809.25
  0
LINE
  5
FC
330
1F
100
AcDbEntity
  8
ATOCAGI2NOLUBACA
370
     0
100
AcDbLine
 10
241597.44
 20
4251699.36
 30
1809.25
 11
241591.94
 21
4251692.38
 31
1809.030029296875
  0
LINE
  5
FD
330
1F
100
AcDbEntity
  8
ATOCAGI2NOLUBACA
370
     0
100
AcDbLine
 10
241591.94
 20
4251692.38
 30
1809.030029296875
 11
241587.27
 21
4251686.97
 31
1809.030029296875
  0
LINE
  5
FE
330
1F
100
AcDbEntity
  8
ATOCAGI2NOLUBACA
370
     0
100
AcDbLine
 10
241587.27
 20
4251686.97
 30
1809.030029296875
 11
241584.24
 21
4251683.41
 31
1808.880004882812
  0
LINE
  5
FF
330
1F
100
AcDbEntity
  8
ATOCAGI2NOLUBACA
370
     0
100
AcDbLine
 10
241584.24
 20
4251683.41
 30
1808.880004882812
 11
241580.28
 21
4251676.62
 31
1808.77001953125
  0
LINE
  5
100
330
1F
100
AcDbEntity
  8
ATOCAGI2NOLUBACA
370
     0
100
AcDbLine
 10
241580.28
 20
4251676.62
 30
1808.77001953125
 11
241575.51
 21
4251670.03
 31
1808.930053710938
  0
LINE
  5
101
330
1F
100
AcDbEntity
  8
ATOCAGI2NOLUBACA
370
     0
100
AcDbLine
 10
241575.51
 20
4251670.03
 30
1808.930053710938
 11
241572.36
 21
4251668.08
 31
1808.9599609375
  0
LINE
  5
102
330
1F
100
AcDbEntity
  8
ATOCAGI2NOLUBACA
370
     0
100
AcDbLine
 10
241572.36
 20
4251668.08
 30
1808.9599609375
 11
241565.43
 21
4251663.21
 31
1808.869995117188
  0
LINE
  5
103
330
1F
100
AcDbEntity
  8
ATOCAGI2NOLUBACA
370
     0
100
AcDbLine
 10
241611.36
 20
4251719.63
 30
1808.760009765625
 11
241602.58
 21
4251708.53
 31
1809.43994140625
  0
LINE
  5
104
330
1F
100
AcDbEntity
  8
ATOCAGI2NOLUBACA
370
     0
100
AcDbLine
 10
241627.14
 20
4251741.92
 30
1808.910034179688
 11
241637.81
 21
4251756.65
 31
1808.81005859375
  0
LINE
  5
105
330
1F
100
AcDbEntity
  8
ATOCAGI2NOLUBACA
370
     0
100
AcDbLine
 10
241637.81
 20
4251756.65
 30
1808.81005859375
 11
241646.08
 21
4251766.66
 31
1808.380004882812
  0
LINE
  5
106
330
1F
100
AcDbEntity
  8
ATOCAGI2NOLUBACA
370
     0
100
AcDbLine
 10
241646.08
 20
4251766.66
 30
1808.380004882812
 11
241647.46
 21
4251768.41
 31
1808.449951171875
  0
LINE
  5
107
330
1F
100
AcDbEntity
  8
ATOCAGI2NOLUBACA
370
     0
100
AcDbLine
 10
241647.46
 20
4251768.41
 30
1808.449951171875
 11
241650.94
 21
4251767.75
 31
1808.5
  0
LINE
  5
108
330
1F
100
AcDbEntity
  8
ATOCAGI2NOLUBACA
370
     0
100
AcDbLine
 10
241650.94
 20
4251767.75
 30
1808.5
 11
241652.51
 21
4251770.29
 31
1808.5
  0
LINE
  5
109
330
1F
100
AcDbEntity
  8
ATOCAGI2NOLUBACA
370
     0
100
AcDbLine
 10
241652.51
 20
4251770.29
 30
1808.5
 11
241649.04
 21
4251771.8
 31
1808.489990234375
  0
LINE
  5
10A
330
1F
100
AcDbEntity
  8
ATOCAGI2NOLUBACA
370
     0
100
AcDbLine
 10
241649.04
 20
4251771.8
 30
1808.489990234375
 11
241653.26
 21
4251778.3
 31
1808.02001953125
  0
LINE
  5
10B
330
1F
100
AcDbEntity
  8
ATOCAGI2NOLUBACA
370
     0
100
AcDbLine
 10
241653.26
 20
4251778.3
 30
1808.02001953125
 11
241655.73
 21
4251785.76
 31
1808.43994140625
  0
LINE
  5
10C
330
1F
100
AcDbEntity
  8
ATOCAGI2NOLUBACA
370
     0
100
AcDbLine
 10
241655.73
 20
4251785.76
 30
1808.43994140625
 11
241659.32
 21
4251790.99
 31
1808.31005859375
  0
LINE
  5
10D
330
1F
100
AcDbEntity
  8
ATOCAGI2NOLUBACA
370
     0
100
AcDbLine
 10
241666.4929359366
 20
4251804.955471686
 30
1808.56005859375
 11
241660.06
 21
4251798.95
 31
1808.43994140625
  0
LINE
  5
10E
330
1F
100
AcDbEntity
  8
ATOCAGI2NOLUBACA
370
     0
100
AcDbLine
 10
241660.06
 20
4251798.95
 30
1808.43994140625
 11
241657.06
 21
4251793.31
 31
1808.27001953125
  0
LINE
  5
10F
330
1F
100
AcDbEntity
  8
ATOCAGI2NOLUBACA
370
     0
100
AcDbLine
 10
241657.06
 20
4251793.31
 30
1808.27001953125
 11
241655.616
 21
4251791.134
 31
1808.430053710938
  0
LINE
  5
110
330
1F
100
AcDbEntity
  8
ATOCAGI2NOLUBACA
370
     0
100
AcDbLine
 10
241653.6560911494
 20
4251788.860922745
 30
1808.473266601562
 11
241650.58
 21
4251782.9
 31
1808.2900390625
  0
LINE
  5
111
330
1F
100
AcDbEntity
  8
ATOCAGI2NOLUBACA
370
     0
100
AcDbLine
 10
241650.58
 20
4251782.9
 30
1808.2900390625
 11
241648.53
 21
4251778.46
 31
1808.380004882812
  0
LINE
  5
112
330
1F
100
AcDbEntity
  8
ATOCAGI2NOLUBACA
370
     0
100
AcDbLine
 10
241642.5
 20
4251769.29
 30
1808.52001953125
 11
241642.21
 21
4251769.09
 31
1808.599975585938
  0
LINE
  5
113
330
1F
100
AcDbEntity
  8
ATOCAGI2NOLUBACA
370
     0
100
AcDbLine
 10
241642.21
 20
4251769.09
 30
1808.599975585938
 11
241631.71
 21
4251754.92
 31
1809.030029296875
  0
LINE
  5
114
330
1F
100
AcDbEntity
  8
ATOCAGI2NOLUBACA
370
     0
100
AcDbLine
 10
241631.71
 20
4251754.92
 30
1809.030029296875
 11
241626.53
 21
4251746.83
 31
1809.170043945312
  0
LINE
  5
115
330
1F
100
AcDbEntity
  8
ATOCAGI2NOLUBACA
370
     0
100
AcDbLine
 10
241648.53
 20
4251778.46
 30
1808.380004882812
 11
241642.5
 21
4251769.29
 31
1808.52001953125
  0
POINT
  5
116
330
1F
100
AcDbEntity
  8
ATOCAGI2NOLUBACA
370
     0
100
AcDbPoint
 10
241621.6007302307
 20
4251740.318244187
 30
1808.983032226562
  0
POINT
  5
117
330
1F
100
AcDbEntity
  8
ATOCAGI2NOLUBACA
370
     0
100
AcDbPoint
 10
241621.6409084545
 20
4251742.088959092
 30
1809.052978515625
  0
POINT
  5
118
330
1F
100
AcDbEntity
  8
ATOCAGI2NOLUBACA
370
     0
100
AcDbPoint
 10
241614.5993338049
 20
4251748.358536587
 30
1809.3330078125
  0
POINT
  5
119
330
1F
100
AcDbEntity
  8
ATOCAGI2NOLUBACA
370
     0
100
AcDbPoint
 10
241613.9472223216
 20
4251749.839660543
 30
1809.3330078125
  0
POINT
  5
11A
330
1F
100
AcDbEntity
  8
ATOCAGI2NOLUBACA
370
     0
100
AcDbPoint
 10
241615.3750070185
 20
4251751.621738402
 30
1809.343017578125
  0
POINT
  5
11B
330
1F
100
AcDbEntity
  8
ATOCAGI2NOLUBACA
370
     0
100
AcDbPoint
 10
241617.616774505
 20
4251751.283233137
 30
1809.263061523438
  0
POINT
  5
11C
330
1F
100
AcDbEntity
  8
ATOCAGI2NOLUBACA
370
     0
100
AcDbPoint
 10
241623.718512187
 20
4251744.74744387
 30
1809.182983398438
  0
POINT
  5
11D
330
1F
100
AcDbEntity
  8
ATOCAGI2NOLUBACA
370
     0
100
AcDbPoint
 10
241625.4009530994
 20
4251745.313652216
 30
1808.95703125
  0
LINE
  5
11E
330
1F
100
AcDbEntity
  8
ATOCAGI2NOLUBACA
370
     0
100
AcDbLine
 10
241621.6007302307
 20
4251740.318244187
 30
1808.983032226562
 11
241621.6409084545
 21
4251742.088959092
 31
1809.052978515625
  0
LINE
  5
11F
330
1F
100
AcDbEntity
  8
ATOCAGI2NOLUBACA
370
     0
100
AcDbLine
 10
241621.6409084545
 20
4251742.088959092
 30
1809.052978515625
 11
241614.5993338049
 21
4251748.358536587
 31
1809.3330078125
  0
LINE
  5
120
330
1F
100
AcDbEntity
  8
ATOCAGI2NOLUBACA
370
     0
100
AcDbLine
 10
241614.5993338049
 20
4251748.358536587
 30
1809.3330078125
 11
241613.9472223216
 21
4251749.839660543
 31
1809.3330078125
  0
LINE
  5
121
330
1F
100
AcDbEntity
  8
ATOCAGI2NOLUBACA
370
     0
100
AcDbLine
 10
241613.9472223216
 20
4251749.839660543
 30
1809.3330078125
 11
241615.3750070185
 21
4251751.621738402
 31
1809.343017578125
  0
POINT
  5
122
330
1F
100
AcDbEntity
  8
ATOCAGI2NOLUBACA
370
     0
100
AcDbPoint
 10
241619.1554395275
 20
4251748.82507715
 30
1808.983032226562
  0
LINE
  5
123
330
1F
100
AcDbEntity
  8
ATOCAGI2NOLUBACA
370
     0
100
AcDbLine
 10
241615.3750070185
 20
4251751.621738402
 30
1809.343017578125
 11
241617.616774505
 21
4251751.283233137
 31
1809.263061523438
  0
LINE
  5
124
330
1F
100
AcDbEntity
  8
ATOCAGI2NOLUBACA
370
     0
100
AcDbLine
 10
241617.616774505
 20
4251751.283233137
 30
1809.263061523438
 11
241619.1554395275
 21
4251748.82507715
 31
1808.983032226562
  0
LINE
  5
125
330
1F
100
AcDbEntity
  8
ATOCAGI2NOLUBACA
370
     0
100
AcDbLine
 10
241619.1554395275
 20
4251748.82507715
 30
1808.983032226562
 11
241623.718512187
 21
4251744.74744387
 31
1809.182983398438
  0
LINE
  5
126
330
1F
100
AcDbEntity
  8
ATOCAGI2NOLUBACA
370
     0
100
AcDbLine
 10
241623.718512187
 20
4251744.74744387
 30
1809.182983398438
 11
241625.4009530994
 21
4251745.313652216
 31
1808.95703125
  0
LINE
  5
127
330
1F
100
AcDbEntity
  8
ATOCAGI2NOLUBACA
370
     0
100
AcDbLine
 10
241625.4009530994
 20
4251745.313652216
 30
1808.95703125
 11
241626.53
 21
4251746.83
 31
1809.170043945312
  0
LINE
  5
128
330
1F
100
AcDbEntity
  8
ATOCAGI2NOLUBACA
370
     0
100
AcDbLine
 10
241616.29
 20
4251734.48
 30
1808.920043945312
 11
241621.6007302307
 21
4251740.318244187
 31
1808.983032226562
  0
POINT
  5
129
330
1F
100
AcDbEntity
  8
ATOCAGI2NOLUBACA
370
     0
100
AcDbPoint
 10
241667.8174474199
 20
4251802.013541847
 30
1808.554931640625
  0
POINT
  5
12A
330
1F
100
AcDbEntity
  8
ATOCAGI2NOLUBACA
370
     0
100
AcDbPoint
 10
241666.4929359366
 20
4251804.955471686
 30
1808.515014648438
  0
POINT
  5
12B
330
1F
100
AcDbEntity
  8
ATOCAGI2NOLUBACA
370
     0
100
AcDbPoint
 10
241673.2651436998
 20
4251806.200280791
 30
1808.614990234375
  0
POINT
  5
12C
330
1F
100
AcDbEntity
  8
ATOCAGI2NOLUBACA
370
     0
100
AcDbPoint
 10
241669.7140805021
 20
4251808.796496323
 30
1808.614990234375
  0
POINT
  5
12D
330
1F
100
AcDbEntity
  8
ATOCAGI2NOLUBACA
370
     0
100
AcDbPoint
 10
241676.8766090962
 20
4251810.447845137
 30
1808.614990234375
  0
POINT
  5
12E
330
1F
100
AcDbEntity
  8
ATOCAGI2NOLUBACA
370
     0
100
AcDbPoint
 10
241674.2749474632
 20
4251814.0340877
 30
1808.535034179688
  0
POINT
  5
12F
330
1F
100
AcDbEntity
  8
ATOCAGI2NOLUBACA
370
     0
100
AcDbPoint
 10
241680.4922311213
 20
4251816.059661505
 30
1808.734985351562
  0
POINT
  5
130
330
1F
100
AcDbEntity
  8
ATOCAGI2NOLUBACA
370
     0
100
AcDbPoint
 10
241679.1880906805
 20
4251818.637219645
 30
1808.905029296875
  0
POINT
  5
131
330
1F
100
AcDbEntity
  8
ATOCAGI2NOLUBACA
370
     0
100
AcDbPoint
 10
241684.4243941132
 20
4251819.792543733
 30
1808.981079101562
  0
POINT
  5
132
330
1F
100
AcDbEntity
  8
ATOCAGI2NOLUBACA
370
     0
100
AcDbPoint
 10
241682.3360188125
 20
4251822.879196398
 30
1809.001098632812
  0
LINE
  5
133
330
1F
100
AcDbEntity
  8
ATOCAGI2NOLUBACA
370
     0
100
AcDbLine
 10
241667.8174474199
 20
4251802.013541847
 30
1808.554931640625
 11
241673.2651436998
 21
4251806.200280791
 31
1808.614990234375
  0
LINE
  5
134
330
1F
100
AcDbEntity
  8
ATOCAGI2NOLUBACA
370
     0
100
AcDbLine
 10
241676.8766090962
 20
4251810.447845137
 30
1808.614990234375
 11
241680.4922311213
 21
4251816.059661505
 31
1808.734985351562
  0
LINE
  5
135
330
1F
100
AcDbEntity
  8
ATOCAGI2NOLUBACA
370
     0
100
AcDbLine
 10
241680.4922311213
 20
4251816.059661505
 30
1808.734985351562
 11
241684.4243941132
 21
4251819.792543733
 31
1808.981079101562
  0
LINE
  5
136
330
1F
100
AcDbEntity
  8
ATOCAGI2NOLUBACA
370
     0
100
AcDbLine
 10
241684.4243941132
 20
4251819.792543733
 30
1808.981079101562
 11
241688.974571752
 21
4251825.978023451
 31
1813.77099609375
  0
LINE
  5
137
330
1F
100
AcDbEntity
  8
ATOCAGI2NOLUBACA
370
     0
100
AcDbLine
 10
241685.9591593071
 20
4251826.626561851
 30
1812.595703125
 11
241682.3360188125
 21
4251822.879196398
 31
1809.001098632812
  0
LINE
  5
138
330
1F
100
AcDbEntity
  8
ATOCAGI2NOLUBACA
370
     0
100
AcDbLine
 10
241682.3360188125
 20
4251822.879196398
 30
1809.001098632812
 11
241679.1880906805
 21
4251818.637219645
 31
1808.905029296875
  0
LINE
  5
139
330
1F
100
AcDbEntity
  8
ATOCAGI2NOLUBACA
370
     0
100
AcDbLine
 10
241679.1880906805
 20
4251818.637219645
 30
1808.905029296875
 11
241675.6984497389
 21
4251815.367769319
 31
1808.642211914062
  0
LINE
  5
13A
330
1F
100
AcDbEntity
  8
ATOCAGI2NOLUBACA
370
     0
100
AcDbLine
 10
241672.9553710802
 20
4251812.518717499
 30
1808.55810546875
 11
241672.1835341644
 21
4251811.632358302
 31
1808.571655273438
  0
LINE
  5
13B
330
1F
100
AcDbEntity
  8
ATOCAGI2NOLUBACA
370
     0
100
AcDbLine
 10
241669.7140805021
 20
4251808.796496323
 30
1808.614990234375
 11
241666.4929359366
 21
4251804.955471686
 31
1808.515014648438
  0
LINE
  5
13C
330
1F
100
AcDbEntity
  8
ATOCAGI2NOLUBACA
370
     0
100
AcDbLine
 10
241649.97
 20
4251802.7
 30
1809.099975585938
 11
241654.74
 21
4251805.96
 31
1809.099975585938
  0
LINE
  5
13D
330
1F
100
AcDbEntity
  8
ATOCAGI2NOLUBACA
370
     0
100
AcDbLine
 10
241654.74
 20
4251805.96
 30
1809.099975585938
 11
241663.5
 21
4251809.36
 31
1808.800048828125
  0
LINE
  5
13E
330
1F
100
AcDbEntity
  8
ATOCAGI2NOLUBACA
370
     0
100
AcDbLine
 10
241654.6
 20
4251802.94
 30
1809.099975585938
 11
241661.732
 21
4251805.53
 31
1808.800048828125
  0
LINE
  5
13F
330
1F
100
AcDbEntity
  8
ATOCAGI2NOLUBACA
370
     0
100
AcDbLine
 10
241661.732
 20
4251805.53
 30
1808.800048828125
 11
241668.13
 21
4251809.26
 31
1808.650024414062
  0
LINE
  5
140
330
1F
100
AcDbEntity
  8
ATOCAGI2NOLUBACA
370
     0
100
AcDbLine
 10
241668.13
 20
4251809.26
 30
1808.650024414062
 11
241667.57
 21
4251811.25
 31
1808.650024414062
  0
LINE
  5
141
330
1F
100
AcDbEntity
  8
ATOCAGI2NOLUBACA
370
     0
100
AcDbLine
 10
241667.57
 20
4251811.25
 30
1808.650024414062
 11
241667.1079618867
 21
4251811.035441761
 31
1808.667114257812
  0
LINE
  5
142
330
1F
100
AcDbEntity
  8
ATOCAGI2NOLUBACA
370
     0
100
AcDbLine
 10
241667.1079618867
 20
4251811.035441761
 30
1808.667114257812
 11
241663.5
 21
4251809.36
 31
1808.800048828125
  0
LINE
  5
143
330
1F
100
AcDbEntity
  8
ATOCAGI2NOLUBACA
370
     0
100
AcDbLine
 10
241670.8610565701
 20
4251810.113656419
 30
1808.594848632812
 11
241669.7140805021
 21
4251808.796496323
 31
1808.614990234375
  0
LINE
  5
144
330
1F
100
AcDbEntity
  8
ATOCAGI2NOLUBACA
370
     0
100
AcDbLine
 10
241674.7515364471
 20
4251807.948476646
 30
1808.614990234375
 11
241676.8766090962
 21
4251810.447845137
 31
1808.614990234375
  0
LINE
  5
145
330
1F
100
AcDbEntity
  8
ATOCAGI2NOLUBACA
370
     0
100
AcDbLine
 10
241670.8610565701
 20
4251810.113656419
 30
1808.594848632812
 11
241672.1835341644
 21
4251811.632358302
 31
1808.571655273438
  0
LINE
  5
146
330
1F
100
AcDbEntity
  8
ATOCAGI2NOLUBACA
370
     0
100
AcDbLine
 10
241672.1835341644
 20
4251811.632358302
 30
1808.571655273438
 11
241675.6984497389
 21
4251815.367769319
 31
1808.642211914062
  0
LINE
  5
147
330
1F
100
AcDbEntity
  8
ATOCAGI2NOLUBACA
370
     0
100
AcDbLine
 10
241673.2651436998
 20
4251806.200280791
 30
1808.614990234375
 11
241674.7515364471
 21
4251807.948476646
 31
1808.614990234375
  0
LINE
  5
148
330
1F
100
AcDbEntity
  8
ATOCAGI2NOLUBACA
370
     0
100
AcDbLine
 10
241685.9591593071
 20
4251826.626561851
 30
1812.595703125
 11
241688.974571752
 21
4251825.978023451
 31
1813.77099609375
  0
POINT
  5
149
330
1F
100
AcDbEntity
  8
ATOCAGI2NOLUBACA
370
     0
100
AcDbPoint
 10
241653.6560911494
 20
4251788.860922745
 30
1808.473266601562
  0
POINT
  5
14A
330
1F
100
AcDbEntity
  8
ATOCAGI2NOLUBACA
370
     0
100
AcDbPoint
 10
241655.616
 20
4251791.134
 30
1808.430053710938
  0
POINT
  5
14B
330
1F
100
AcDbEntity
  8
ATOCAGI2NOLUBACA
370
     0
100
AcDbPoint
 10
241652.995
 20
4251794.522
 30
1808.5
  0
POINT
  5
14C
330
1F
100
AcDbEntity
  8
ATOCAGI2NOLUBACA
370
     0
100
AcDbPoint
 10
241650.417
 20
4251793.726
 30
1808.599975585938
  0
POINT
  5
14D
330
1F
100
AcDbEntity
  8
ATOCAGI2NOLUBACA
370
     0
100
AcDbPoint
 10
241651.406
 20
4251799.147
 30
1808.400024414062
  0
POINT
  5
14E
330
1F
100
AcDbEntity
  8
ATOCAGI2NOLUBACA
370
     0
100
AcDbPoint
 10
241649.18
 20
4251798.348
 30
1808.599975585938
  0
POINT
  5
14F
330
1F
100
AcDbEntity
  8
ATOCAGI2NOLUBACA
370
     0
100
AcDbPoint
 10
241649.97
 20
4251802.7
 30
1809.099975585938
  0
POINT
  5
150
330
1F
100
AcDbEntity
  8
ATOCAGI2NOLUBACA
370
     0
100
AcDbPoint
 10
241654.6
 20
4251802.94
 30
1809.099975585938
  0
POINT
  5
151
330
1F
100
AcDbEntity
  8
ATOCAGI2NOLUBACA
370
     0
100
AcDbPoint
 10
241654.74
 20
4251805.96
 30
1809.099975585938
  0
POINT
  5
152
330
1F
100
AcDbEntity
  8
ATOCAGI2NOLUBACA
370
     0
100
AcDbPoint
 10
241661.732
 20
4251805.53
 30
1808.800048828125
  0
POINT
  5
153
330
1F
100
AcDbEntity
  8
ATOCAGI2NOLUBACA
370
     0
100
AcDbPoint
 10
241665.8442298545
 20
4251810.448598139
 30
1808.713623046875
  0
POINT
  5
154
330
1F
100
AcDbEntity
  8
ATOCAGI2NOLUBACA
370
     0
100
AcDbPoint
 10
241668.13
 20
4251809.26
 30
1808.650024414062
  0
POINT
  5
155
330
1F
100
AcDbEntity
  8
ATOCAGI2NOLUBACA
370
     0
100
AcDbPoint
 10
241667.57
 20
4251811.25
 30
1808.650024414062
  0
POINT
  5
156
330
1F
100
AcDbEntity
  8
ATOCAGI2NOLUBACA
370
     0
100
AcDbPoint
 10
241616.29
 20
4251734.48
 30
1808.920043945312
  0
POINT
  5
157
330
1F
100
AcDbEntity
  8
ATOCAGI2NOLUBACA
370
     0
100
AcDbPoint
 10
241622.35
 20
4251733.07
 30
1808.869995117188
  0
POINT
  5
158
330
1F
100
AcDbEntity
  8
ATOCAGI2NOLUBACA
370
     0
100
AcDbPoint
 10
241622.94
 20
4251730.75
 30
1808.97998046875
  0
POINT
  5
159
330
1F
100
AcDbEntity
  8
ATOCAGI2NOLUBACA
370
     0
100
AcDbPoint
 10
241624.82
 20
4251727.84
 30
1809.119995117188
  0
POINT
  5
15A
330
1F
100
AcDbEntity
  8
ATOCAGI2NOLUBACA
370
     0
100
AcDbPoint
 10
241622.5
 20
4251724.42
 30
1809.160034179688
  0
POINT
  5
15B
330
1F
100
AcDbEntity
  8
ATOCAGI2NOLUBACA
370
     0
100
AcDbPoint
 10
241619.66
 20
4251726.68
 30
1808.859985351562
  0
POINT
  5
15C
330
1F
100
AcDbEntity
  8
ATOCAGI2NOLUBACA
370
     0
100
AcDbPoint
 10
241616.72
 20
4251726.77
 30
1808.760009765625
  0
POINT
  5
15D
330
1F
100
AcDbEntity
  8
ATOCAGI2NOLUBACA
370
     0
100
AcDbPoint
 10
241609.34
 20
4251722.86
 30
1809.030029296875
  0
POINT
  5
15E
330
1F
100
AcDbEntity
  8
ATOCAGI2NOLUBACA
370
     0
100
AcDbPoint
 10
241611.36
 20
4251719.63
 30
1809.43994140625
  0
POINT
  5
15F
330
1F
100
AcDbEntity
  8
ATOCAGI2NOLUBACA
370
     0
100
AcDbPoint
 10
241603.4244709566
 20
4251715.415196418
 30
1809.160034179688
  0
POINT
  5
160
330
1F
100
AcDbEntity
  8
ATOCAGI2NOLUBACA
370
     0
100
AcDbPoint
 10
241602.58
 20
4251708.53
 30
1809.43994140625
  0
POINT
  5
161
330
1F
100
AcDbEntity
  8
ATOCAGI2NOLUBACA
370
     0
100
AcDbPoint
 10
241597.97
 20
4251706.38
 30
1809.199951171875
  0
POINT
  5
162
330
1F
100
AcDbEntity
  8
ATOCAGI2NOLUBACA
370
     0
100
AcDbPoint
 10
241597.44
 20
4251699.36
 30
1809.25
  0
POINT
  5
163
330
1F
100
AcDbEntity
  8
ATOCAGI2NOLUBACA
370
     0
100
AcDbPoint
 10
241589.36
 20
4251694.65
 30
1809.2099609375
  0
POINT
  5
164
330
1F
100
AcDbEntity
  8
ATOCAGI2NOLUBACA
370
     0
100
AcDbPoint
 10
241582.02
 20
4251687.48
 30
1809.219970703125
  0
POINT
  5
165
330
1F
100
AcDbEntity
  8
ATOCAGI2NOLUBACA
370
     0
100
AcDbPoint
 10
241584.24
 20
4251683.41
 30
1808.880004882812
  0
POINT
  5
166
330
1F
100
AcDbEntity
  8
ATOCAGI2NOLUBACA
370
     0
100
AcDbPoint
 10
241577.77
 20
4251678.64
 30
1808.900024414062
  0
POINT
  5
167
330
1F
100
AcDbEntity
  8
ATOCAGI2NOLUBACA
370
     0
100
AcDbPoint
 10
241580.28
 20
4251676.62
 30
1808.77001953125
  0
POINT
  5
168
330
1F
100
AcDbEntity
  8
ATOCAGI2NOLUBACA
370
     0
100
AcDbPoint
 10
241572.27
 20
4251671.61
 30
1808.75
  0
POINT
  5
169
330
1F
100
AcDbEntity
  8
ATOCAGI2NOLUBACA
370
     0
100
AcDbPoint
 10
241575.51
 20
4251670.03
 30
1808.930053710938
  0
POINT
  5
16A
330
1F
100
AcDbEntity
  8
ATOCAGI2NOLUBACA
370
     0
100
AcDbPoint
 10
241563.71
 20
4251665.36
 30
1808.630004882812
  0
POINT
  5
16B
330
1F
100
AcDbEntity
  8
ATOCAGI2NOLUBACA
370
     0
100
AcDbPoint
 10
241565.43
 20
4251663.21
 30
1808.869995117188
  0
POINT
  5
16C
330
1F
100
AcDbEntity
  8
ATOCAGI2NOLUBACA
370
     0
100
AcDbPoint
 10
241664.5428799799
 20
4251796.337732986
 30
1808.442138671875
  0
POINT
  5
16D
330
1F
100
AcDbEntity
  8
ATOCAGI2NOLUBACA
370
     0
100
AcDbPoint
 10
241666.0928519606
 20
4251799.673688592
 30
1808.4921875
  0
POINT
  5
16E
330
1F
100
AcDbEntity
  8
ATOCAGI2NOLUBACA
370
     0
100
AcDbPoint
 10
241666.9511441279
 20
4251794.834198941
 30
1808.392211914062
  0
POINT
  5
16F
330
1F
100
AcDbEntity
  8
ATOCAGI2NOLUBACA
370
     0
100
AcDbPoint
 10
241668.2560732911
 20
4251798.016034373
 30
1808.312133789062
  0
POINT
  5
170
330
1F
100
AcDbEntity
  8
ATOCAGI2NOLUBACA
370
     0
100
AcDbPoint
 10
241669.3921857206
 20
4251793.985123447
 30
1808.392211914062
  0
POINT
  5
171
330
1F
100
AcDbEntity
  8
ATOCAGI2NOLUBACA
370
     0
100
AcDbPoint
 10
241669.5130669425
 20
4251797.742314969
 30
1808.209106445312
  0
POINT
  5
172
330
1F
100
AcDbEntity
  8
ATOCAGI2NOLUBACA
370
     0
100
AcDbPoint
 10
241673.7822952734
 20
4251799.052353811
 30
1808.499145507812
  0
POINT
  5
173
330
1F
100
AcDbEntity
  8
ATOCAGI2NOLUBACA
370
     0
100
AcDbPoint
 10
241675.0982900271
 20
4251795.552612275
 30
1808.689208984375
  0
POINT
  5
174
330
1F
100
AcDbEntity
  8
ATOCAGI2NOLUBACA
370
     0
100
AcDbPoint
 10
241671.8518834352
 20
4251794.566614082
 30
1808.439208984375
  0
LINE
  5
175
330
1F
100
AcDbEntity
  8
ATOCAGI2NOLUBACA
370
     0
100
AcDbLine
 10
241664.5428799799
 20
4251796.337732986
 30
1808.442138671875
 11
241666.9511441279
 21
4251794.834198941
 31
1808.392211914062
  0
LINE
  5
176
330
1F
100
AcDbEntity
  8
ATOCAGI2NOLUBACA
370
     0
100
AcDbLine
 10
241666.9511441279
 20
4251794.834198941
 30
1808.392211914062
 11
241669.3921857206
 21
4251793.985123447
 31
1808.392211914062
  0
LINE
  5
177
330
1F
100
AcDbEntity
  8
ATOCAGI2NOLUBACA
370
     0
100
AcDbLine
 10
241669.3921857206
 20
4251793.985123447
 30
1808.392211914062
 11
241671.8518834352
 21
4251794.566614082
 31
1808.439208984375
  0
LINE
  5
178
330
1F
100
AcDbEntity
  8
ATOCAGI2NOLUBACA
370
     0
100
AcDbLine
 10
241671.8518834352
 20
4251794.566614082
 30
1808.439208984375
 11
241675.0982900271
 21
4251795.552612275
 31
1808.689208984375
  0
LINE
  5
179
330
1F
100
AcDbEntity
  8
ATOCAGI2NOLUBACA
370
     0
100
AcDbLine
 10
241675.0982900271
 20
4251795.552612275
 30
1808.689208984375
 11
241673.7822952734
 21
4251799.052353811
 31
1808.499145507812
  0
LINE
  5
17A
330
1F
100
AcDbEntity
  8
ATOCAGI2NOLUBACA
370
     0
100
AcDbLine
 10
241673.7822952734
 20
4251799.052353811
 30
1808.499145507812
 11
241669.5130669425
 21
4251797.742314969
 31
1808.209106445312
  0
LINE
  5
17B
330
1F
100
AcDbEntity
  8
ATOCAGI2NOLUBACA
370
     0
100
AcDbLine
 10
241669.5130669425
 20
4251797.742314969
 30
1808.209106445312
 11
241668.2560732911
 21
4251798.016034373
 31
1808.312133789062
  0
LINE
  5
17C
330
1F
100
AcDbEntity
  8
ATOCAGI2NOLUBACA
370
     0
100
AcDbLine
 10
241668.2560732911
 20
4251798.016034373
 30
1808.312133789062
 11
241666.0928519606
 21
4251799.673688592
 31
1808.4921875
  0
LINE
  5
17D
330
1F
100
AcDbEntity
  8
ATOCAGI2NOLUBACA
370
     0
100
AcDbLine
 10
241664.5428799799
 20
4251796.337732986
 30
1808.442138671875
 11
241659.3197370787
 21
4251790.989886625
 31
1808.31005859375
  0
LINE
  5
17E
330
1F
100
AcDbEntity
  8
ATOCAGI2NOLUBACA
370
     0
100
AcDbLine
 10
241666.0928519606
 20
4251799.673688592
 30
1808.4921875
 11
241667.8171844987
 21
4251802.013428471
 31
1808.554931640625
  0
INSERT
  5
1A4
330
1F
100
AcDbEntity
  8
0
370
     0
100
AcDbBlockReference
  2
0
 10
241565.43
 20
4251663.21
 30
0.0
  0
LINE
  5
1A5
330
1F
100
AcDbEntity
  8
ATOCAGI2NOLUBACA
370
     0
100
AcDbLine
 10
241651.406
 20
4251799.147
 30
1808.400024414062
 11
241652.995
 21
4251794.522
 31
1808.5
  0
LINE
  5
1A6
330
1F
100
AcDbEntity
  8
ATOCAGI2NOLUBACA
370
     0
100
AcDbLine
 10
241652.995
 20
4251794.522
 30
1808.5
 11
241655.616
 21
4251791.134
 31
1808.430053710938
  0
LINE
  5
1A7
330
1F
100
AcDbEntity
  8
ATOCAGI2NOLUBACA
370
     0
100
AcDbLine
 10
241653.6560911494
 20
4251788.860922745
 30
1808.473266601562
 11
241650.417
 21
4251793.726
 31
1808.599975585938
  0
LINE
  5
1A8
330
1F
100
AcDbEntity
  8
ATOCAGI2NOLUBACA
370
     0
100
AcDbLine
 10
241650.417
 20
4251793.726
 30
1808.599975585938
 11
241649.18
 21
4251798.348
 31
1808.599975585938
  0
LINE
  5
1A9
330
1F
100
AcDbEntity
  8
ATOCAGI2NOLUBACA
370
     0
100
AcDbLine
 10
241649.18
 20
4251798.348
 30
1808.599975585938
 11
241649.97
 21
4251802.7
 31
1809.099975585938
  0
LINE
  5
1AA
330
1F
100
AcDbEntity
  8
ATOCAGI2NOLUBACA
370
     0
100
AcDbLine
 10
241651.406
 20
4251799.147
 30
1808.400024414062
 11
241654.6
 21
4251802.94
 31
1809.099975585938
  0
POINT
  5
1AB
330
1F
100
AcDbEntity
  8
ATOCAGI2NOLUBACA
370
     0
100
AcDbPoint
 10
241561.1814667838
 20
4251665.394570054
 30
1808.5
  0
POINT
  5
1AC
330
1F
100
AcDbEntity
  8
ATOCAGI2NOLUBACA
370
     0
100
AcDbPoint
 10
241565.0462637392
 20
4251661.019994829
 30
1808.5
  0
LINE
  5
1AD
330
1F
100
AcDbEntity
  8
ATOCAGI2NOLUBACA
370
     0
100
AcDbLine
 10
241563.71
 20
4251665.36
 30
1808.630004882812
 11
241561.1814667838
 21
4251665.394570054
 31
1808.5
  0
LINE
  5
1AE
330
1F
100
AcDbEntity
  8
ATOCAGI2NOLUBACA
370
     0
100
AcDbLine
 10
241565.43
 20
4251663.21
 30
1808.869995117188
 11
241565.0462637392
 21
4251661.019994829
 31
1808.5
  0
POINT
  5
32A
330
1F
100
AcDbEntity
  8
INIT_COORD
100
AcDbPoint
 10
241563.1138652615
 20
4251663.207282442
 30
1808.5
  0
LINE
  5
34E
330
1F
100
AcDbEntity
  8
GEOFENCE
100
AcDbLine
 10
241563.1138652615
 20
4251663.207282442
 30
1808.5
 11
241575.3610838183
 21
4251671.859235857
 31
1808.886444983768
  0
LINE
  5
34F
330
1F
100
AcDbEntity
  8
GEOFENCE
100
AcDbLine
 10
241575.3610838183
 20
4251671.859235857
 30
1808.886444983768
 11
241583.4008828955
 21
4251684.522130403
 31
1808.773606518916
  0
LINE
  5
350
330
1F
100
AcDbEntity
  8
GEOFENCE
100
AcDbLine
 10
241583.4008828955
 20
4251684.522130403
 30
1808.773606518916
 11
241592.7237352339
 21
4251696.265876791
 31
1809.184514108482
  0
LINE
  5
351
330
1F
100
AcDbEntity
  8
GEOFENCE
100
AcDbLine
 10
241592.7237352339
 20
4251696.265876791
 30
1809.184514108482
 11
241601.0414182977
 21
4251708.746903717
 31
1809.384802184631
  0
LINE
  5
352
330
1F
100
AcDbEntity
  8
GEOFENCE
100
AcDbLine
 10
241601.0414182977
 20
4251708.746903717
 30
1809.384802184631
 11
241609.9848520609
 21
4251720.788288342
 31
1809.243208321728
  0
LINE
  5
355
330
1F
100
AcDbEntity
  8
GEOFENCE
100
AcDbLine
 10
241609.9848520609
 20
4251720.788288342
 30
1809.243208321728
 11
241618.8589212807
 21
4251732.878282463
 31
1808.955219381865
  0
LINE
  5
356
330
1F
100
AcDbEntity
  8
GEOFENCE
100
AcDbLine
 10
241618.8589212807
 20
4251732.878282463
 30
1808.955219381865
 11
241621.8576011625
 21
4251728.878097005
 31
1809.035439526393
  0
LINE
  5
357
330
1F
100
AcDbEntity
  8
GEOFENCE
100
AcDbLine
 10
241618.8589212807
 20
4251732.878282463
 30
1808.955219381865
 11
241624.582278719
 21
4251741.078414973
 31
1808.923494567068
  0
LINE
  5
358
330
1F
100
AcDbEntity
  8
GEOFENCE
100
AcDbLine
 10
241624.582278719
 20
4251741.078414973
 30
1808.923494567068
 11
241617.4179640109
 21
4251748.048565196
 31
1809.222828224719
  0
LINE
  5
359
330
1F
100
AcDbEntity
  8
GEOFENCE
100
AcDbLine
 10
241624.582278719
 20
4251741.078414973
 30
1808.923494567068
 11
241636.0289935957
 21
4251757.478679991
 31
1808.860044937472
  0
LINE
  5
35B
330
1F
100
AcDbEntity
  8
GEOFENCE
100
AcDbLine
 10
241636.0289935957
 20
4251757.478679991
 30
1808.860044937472
 11
241648.3093392001
 21
4251773.25656815
 31
1808.358689675737
  0
LINE
  5
360
330
1F
100
AcDbEntity
  8
GEOFENCE
100
AcDbLine
 10
241648.3093392001
 20
4251773.25656815
 30
1808.358689675737
 11
241655.8927958934
 21
4251788.464801065
 31
1807.910542177863
  0
LINE
  5
362
330
1F
100
AcDbEntity
  8
GEOFENCE
100
AcDbLine
 10
241655.8927958934
 20
4251788.464801065
 30
1807.910542177863
 11
241652.9312380116
 21
4251792.467873017
 31
1808.36285828059
  0
LINE
  5
366
330
1F
100
AcDbEntity
  8
GEOFENCE
100
AcDbLine
 10
241652.9312380116
 20
4251792.467873017
 30
1808.36285828059
 11
241650.2204658161
 21
4251798.920148418
 31
1808.5037704948
  0
LINE
  5
369
330
1F
100
AcDbEntity
  8
GEOFENCE
100
AcDbLine
 10
241650.2204658161
 20
4251798.920148418
 30
1808.5037704948
 11
241654.5933401909
 21
4251804.354727698
 31
1809.089703731271
  0
LINE
  5
36C
330
1F
100
AcDbEntity
  8
GEOFENCE
100
AcDbLine
 10
241654.5933401909
 20
4251804.354727698
 30
1809.089703731271
 11
241663.7251087161
 21
4251808.419093962
 31
1808.786833339491
  0
LINE
  5
370
330
1F
100
AcDbEntity
  8
GEOFENCE
100
AcDbLine
 10
241655.8927958934
 20
4251788.464801065
 30
1807.910542177863
 11
241662.1828045688
 21
4251797.473945636
 31
1808.431219578409
  0
LINE
  5
372
330
1F
100
AcDbEntity
  8
GEOFENCE
100
AcDbLine
 10
241662.1828045688
 20
4251797.473945636
 30
1808.431219578409
 11
241671.9446766323
 21
4251795.311743467
 31
1808.25590387598
  0
LINE
  5
374
330
1F
100
AcDbEntity
  8
GEOFENCE
100
AcDbLine
 10
241662.1828045688
 20
4251797.473945636
 30
1808.431219578409
 11
241675.494123637
 21
4251812.398385974
 31
1808.695539992832
  0
LINE
  5
376
330
1F
100
AcDbEntity
  8
GEOFENCE
100
AcDbLine
 10
241675.494123637
 20
4251812.398385974
 30
1808.695539992832
 11
241685.0016829949
 21
4251823.439484097
 31
1812.259311491382
  0
LINE
  5
378
330
1F
100
AcDbEntity
  8
GEOFENCE
100
AcDbLine
 10
241565.0462637392
 20
4251646.019994829
 30
1808.5
 11
241570.0462637392
 21
4251646.019994829
 31
1808.5
  0
ENDSEC
  0
SECTION
  2
OBJECTS
  0
DICTIONARY
  5
C
330
0
100
AcDbDictionary
281
     1
  3
ACAD_BACKGROUND
350
1DB
  3
ACAD_COLOR
350
1D4
  3
ACAD_DETAILVIEWSTYLE
350
31B
  3
ACAD_GROUP
350
D
  3
ACAD_IMAGE_VARS
350
319
  3
ACAD_LAYOUT
350
1A
  3
ACAD_MATERIAL
350
3B
  3
ACAD_MLEADERSTYLE
350
1D2
  3
ACAD_MLINESTYLE
350
17
  3
ACAD_PLOTSETTINGS
350
19
  3
ACAD_PLOTSTYLENAME
350
E
  3
ACAD_SCALELIST
350
182
  3
ACAD_SECTIONVIEWSTYLE
350
31C
  3
ACAD_TABLESTYLE
350
1D1
  3
ACAD_VISUALSTYLE
350
2A
  3
ACDB_RECOMPOSE_DATA
350
384
  3
AcDbVariableDictionary
350
1AF
  3
APPDATA
350
317
  0
SUN
  5
318
330
29
100
AcDbSun
 90
        1
290
     0
 63
     7
421
 16777215
 40
1.0
291
     1
 91
  2455826
 92
 54000000
292
     0
 70
     2
 71
   256
280
     1
  0
DICTIONARY
  5
31D
330
2
100
AcDbDictionary
280
     1
281
     1
  3
ACAD_LAYERSTATES
360
321
  3
ACLYDICTIONARY
360
37E
  0
DICTIONARY
  5
1DE
330
10
100
AcDbDictionary
280
     1
281
     1
  3
ADSK_XREC_LAYER_RECONCILED
360
1DF
  0
DICTIONARY
  5
29A
330
9C
100
AcDbDictionary
280
     1
281
     1
  3
ADSK_XREC_LAYER_RECONCILED
360
29B
  0
DICTIONARY
  5
2A4
330
A1
100
AcDbDictionary
280
     1
281
     1
  3
ADSK_XREC_LAYER_RECONCILED
360
2A5
  0
DICTIONARY
  5
2AE
330
A6
100
AcDbDictionary
280
     1
281
     1
  3
ADSK_XREC_LAYER_RECONCILED
360
2AF
  0
DICTIONARY
  5
2B4
330
A9
100
AcDbDictionary
280
     1
281
     1
  3
ADSK_XREC_LAYER_RECONCILED
360
2B5
  0
DICTIONARY
  5
2BA
330
AC
100
AcDbDictionary
280
     1
281
     1
  3
ADSK_XREC_LAYER_RECONCILED
360
2BB
  0
DICTIONARY
  5
1DB
102
{ACAD_REACTORS
330
C
102
}
330
C
100
AcDbDictionary
281
     1
  0
DICTIONARY
  5
1D4
102
{ACAD_REACTORS
330
C
102
}
330
C
100
AcDbDictionary
281
     1
  0
DICTIONARY
  5
31B
102
{ACAD_REACTORS
330
C
102
}
330
C
100
AcDbDictionary
281
     1
  0
DICTIONARY
  5
D
102
{ACAD_REACTORS
330
C
102
}
330
C
100
AcDbDictionary
281
     1
  0
RASTERVARIABLES
  5
319
102
{ACAD_REACTORS
330
C
102
}
330
C
100
AcDbRasterVariables
 90
        0
 70
     1
 71
     1
 72
     1
  0
DICTIONARY
  5
1A
102
{ACAD_REACTORS
330
C
102
}
330
C
100
AcDbDictionary
281
     1
  3
Layout1
350
1E
  3
Layout2
350
26
  3
Model
350
22
  0
DICTIONARY
  5
3B
102
{ACAD_REACTORS
330
C
102
}
330
C
100
AcDbDictionary
281
     1
  3
ByBlock
350
3D
  3
ByLayer
350
3C
  3
Global
350
3E
  0
DICTIONARY
  5
1D2
102
{ACAD_REACTORS
330
C
102
}
330
C
100
AcDbDictionary
281
     1
  3
Standard
350
1D6
  0
DICTIONARY
  5
17
102
{ACAD_REACTORS
330
C
102
}
330
C
100
AcDbDictionary
281
     1
  3
Standard
350
18
  0
DICTIONARY
  5
19
102
{ACAD_REACTORS
330
C
102
}
330
C
100
AcDbDictionary
281
     1
  0
ACDBDICTIONARYWDFLT
  5
E
102
{ACAD_REACTORS
330
C
102
}
330
C
100
AcDbDictionary
281
     1
  3
Normal
350
F
100
AcDbDictionaryWithDefault
340
F
  0
DICTIONARY
  5
182
102
{ACAD_REACTORS
330
C
102
}
330
C
100
AcDbDictionary
281
     1
  3
A0
350
183
  3
A1
350
184
  3
A2
350
185
  3
A3
350
186
  3
A4
350
187
  3
A5
350
188
  3
A6
350
189
  3
A7
350
18A
  3
A8
350
18B
  3
A9
350
18C
  3
B0
350
18D
  3
B1
350
18E
  3
B2
350
18F
  3
B3
350
190
  3
B4
350
191
  3
B5
350
192
  3
B6
350
193
  3
B7
350
194
  3
B8
350
195
  3
B9
350
196
  3
C0
350
197
  3
C1
350
198
  3
C2
350
199
  3
C3
350
19A
  3
C4
350
19B
  3
C5
350
19C
  3
C6
350
19D
  3
C7
350
19E
  3
C8
350
19F
  3
C9
350
1A0
  3
D0
350
1A1
  3
D1
350
1A2
  3
D2
350
1A3
  0
DICTIONARY
  5
31C
102
{ACAD_REACTORS
330
C
102
}
330
C
100
AcDbDictionary
281
     1
  0
DICTIONARY
  5
1D1
102
{ACAD_REACTORS
330
C
102
}
330
C
100
AcDbDictionary
281
     1
  3
Standard
350
1D5
  0
DICTIONARY
  5
2A
102
{ACAD_REACTORS
330
C
102
}
330
C
100
AcDbDictionary
281
     1
  3
2dWireframe
350
2F
  3
3D Hidden
350
31
  3
3dWireframe
350
30
  3
Basic
350
32
  3
Brighten
350
36
  3
ColorChange
350
3A
  3
Conceptual
350
34
  3
Dim
350
35
  3
EdgeColorOff
350
311
  3
Facepattern
350
39
  3
Flat
350
2B
  3
FlatWithEdges
350
2C
  3
Gouraud
350
2D
  3
GouraudWithEdges
350
2E
  3
Hidden
350
30E
  3
JitterOff
350
30F
  3
Linepattern
350
38
  3
OverhangOff
350
310
  3
Realistic
350
33
  3
Shaded
350
316
  3
Shaded with edges
350
315
  3
Shades of Gray
350
312
  3
Sketchy
350
313
  3
Thicken
350
37
  3
Wireframe
350
30D
  3
X-Ray
350
314
  0
XRECORD
  5
384
102
{ACAD_REACTORS
330
C
102
}
330
C
100
AcDbXrecord
280
     1
 90
        1
330
1D5
  0
DICTIONARY
  5
1AF
102
{ACAD_REACTORS
330
C
102
}
330
C
100
AcDbDictionary
281
     1
  3
CANNOSCALE
350
1B0
  3
CMLEADERSTYLE
350
304
  3
CTABLESTYLE
350
303
  3
XCLIPFRAME
350
31A
  0
DICTIONARY
  5
317
102
{ACAD_REACTORS
330
C
102
}
330
C
100
AcDbDictionary
281
     1
  0
DICTIONARY
  5
321
102
{ACAD_REACTORS
330
31D
102
}
330
31D
100
AcDbDictionary
281
     1
  0
DICTIONARY
  5
37E
102
{ACAD_REACTORS
330
31D
102
}
330
31D
100
AcDbDictionary
281
     1
1001
ACAD
1000
<All
  0
XRECORD
  5
1DF
102
{ACAD_REACTORS
330
1DE
102
}
330
1DE
100
AcDbXrecord
280
     1
290
     1
  0
XRECORD
  5
29B
102
{ACAD_REACTORS
330
29A
102
}
330
29A
100
AcDbXrecord
280
     1
290
     1
  0
XRECORD
  5
2A5
102
{ACAD_REACTORS
330
2A4
102
}
330
2A4
100
AcDbXrecord
280
     1
290
     1
  0
XRECORD
  5
2AF
102
{ACAD_REACTORS
330
2AE
102
}
330
2AE
100
AcDbXrecord
280
     1
290
     1
  0
XRECORD
  5
2B5
102
{ACAD_REACTORS
330
2B4
102
}
330
2B4
100
AcDbXrecord
280
     1
290
     1
  0
XRECORD
  5
2BB
102
{ACAD_REACTORS
330
2BA
102
}
330
2BA
100
AcDbXrecord
280
     1
290
     1
  0
LAYOUT
  5
1E
102
{ACAD_REACTORS
330
1A
102
}
330
1A
100
AcDbPlotSettings
  1

  2
none_device
  4

  6

 40
0.0
 41
0.0
 42
0.0
 43
0.0
 44
0.0
 45
0.0
 46
0.0
 47
0.0
 48
0.0
 49
0.0
140
0.0
141
0.0
142
1.0
143
1.0
 70
   688
 72
     0
 73
     0
 74
     5
  7

 75
    16
 76
     0
 77
     2
 78
   300
147
1.0
148
0.0
149
0.0
100
AcDbLayout
  1
Layout1
 70
     1
 71
     1
 10
0.0
 20
0.0
 11
420.0
 21
297.0
 12
0.0
 22
0.0
 32
0.0
 14
1.000000000000000E+20
 24
1.000000000000000E+20
 34
1.000000000000000E+20
 15
-1.000000000000000E+20
 25
-1.000000000000000E+20
 35
-1.000000000000000E+20
146
0.0
 13
0.0
 23
0.0
 33
0.0
 16
1.0
 26
0.0
 36
0.0
 17
0.0
 27
1.0
 37
0.0
 76
     0
330
1B
  0
LAYOUT
  5
26
102
{ACAD_REACTORS
330
1A
102
}
330
1A
100
AcDbPlotSettings
  1

  2
none_device
  4

  6

 40
0.0
 41
0.0
 42
0.0
 43
0.0
 44
0.0
 45
0.0
 46
0.0
 47
0.0
 48
0.0
 49
0.0
140
0.0
141
0.0
142
1.0
143
1.0
 70
   688
 72
     0
 73
     0
 74
     5
  7

 75
    16
 76
     0
 77
     2
 78
   300
147
1.0
148
0.0
149
0.0
100
AcDbLayout
  1
Layout2
 70
     1
 71
     2
 10
0.0
 20
0.0
 11
0.0
 21
0.0
 12
0.0
 22
0.0
 32
0.0
 14
0.0
 24
0.0
 34
0.0
 15
0.0
 25
0.0
 35
0.0
146
0.0
 13
0.0
 23
0.0
 33
0.0
 16
1.0
 26
0.0
 36
0.0
 17
0.0
 27
1.0
 37
0.0
 76
     0
330
23
  0
LAYOUT
  5
22
102
{ACAD_REACTORS
330
1A
102
}
330
1A
100
AcDbPlotSettings
  1

  2
none_device
  4

  6

 40
0.0
 41
0.0
 42
0.0
 43
0.0
 44
0.0
 45
0.0
 46
0.0
 47
0.0
 48
0.0
 49
0.0
140
0.0
141
0.0
142
1.0
143
1.0
 70
  1712
 72
     0
 73
     0
 74
     0
  7

 75
     0
 76
     0
 77
     2
 78
   300
147
1.0
148
0.0
149
0.0
100
AcDbLayout
  1
Model
 70
     1
 71
     0
 10
0.0
 20
0.0
 11
420.0
 21
297.0
 12
0.0
 22
0.0
 32
0.0
 14
241561.1814667838
 24
4251646.019994829
 34
1807.910542177863
 15
241688.974571752
 25
4251826.626561851
 35
1813.77099609375
146
0.0
 13
0.0
 23
0.0
 33
0.0
 16
1.0
 26
0.0
 36
0.0
 17
0.0
 27
1.0
 37
0.0
 76
     0
330
1F
331
29
  0
MATERIAL
  5
3D
102
{ACAD_REACTORS
330
3B
102
}
330
3B
100
AcDbMaterial
  1
ByBlock
 72
     1
 94
      127
  0
MATERIAL
  5
3C
102
{ACAD_REACTORS
330
3B
102
}
330
3B
100
AcDbMaterial
  1
ByLayer
 72
     1
 94
      127
  0
MATERIAL
  5
3E
102
{ACAD_REACTORS
330
3B
102
}
330
3B
100
AcDbMaterial
  1
Global
 72
     1
 94
      127
  0
MLEADERSTYLE
  5
1D6
102
{ACAD_REACTORS
330
1D2
102
}
330
1D2
100
AcDbMLeaderStyle
179
     2
170
     2
171
     1
172
     0
 90
        2
 40
0.0
 41
0.0
173
     1
 91
-1056964608
340
14
 92
       -2
290
     1
 42
2.0
291
     1
 43
0.36
  3
Standard
341
0
 44
4.0
300

342
11
174
     1
178
     6
175
     1
176
     0
 93
-1056964608
 45
4.0
292
     0
297
     0
 46
4.0
343
0
 94
-1056964608
 47
1.0
 49
1.0
140
1.0
293
     1
141
0.0
294
     1
177
     0
142
1.0
295
     1
296
     0
143
0.125
271
     0
272
     9
273
     9
  0
MLINESTYLE
  5
18
102
{ACAD_REACTORS
330
17
102
}
330
17
100
AcDbMlineStyle
  2
STANDARD
 70
     0
  3

 62
   256
 51
90.0
 52
90.0
 71
     2
 49
0.5
 62
   256
  6
BYLAYER
 49
-0.5
 62
   256
  6
BYLAYER
  0
ACDBPLACEHOLDER
  5
F
102
{ACAD_REACTORS
330
E
102
}
330
E
  0
SCALE
  5
183
102
{ACAD_REACTORS
330
182
102
}
330
182
100
AcDbScale
 70
     0
300
1:1
140
1.0
141
1.0
290
     1
  0
SCALE
  5
184
102
{ACAD_REACTORS
330
182
102
}
330
182
100
AcDbScale
 70
     0
300
1:2
140
1.0
141
2.0
290
     0
  0
SCALE
  5
185
102
{ACAD_REACTORS
330
182
102
}
330
182
100
AcDbScale
 70
     0
300
1:4
140
1.0
141
4.0
290
     0
  0
SCALE
  5
186
102
{ACAD_REACTORS
330
182
102
}
330
182
100
AcDbScale
 70
     0
300
1:5
140
1.0
141
5.0
290
     0
  0
SCALE
  5
187
102
{ACAD_REACTORS
330
182
102
}
330
182
100
AcDbScale
 70
     0
300
1:8
140
1.0
141
8.0
290
     0
  0
SCALE
  5
188
102
{ACAD_REACTORS
330
182
102
}
330
182
100
AcDbScale
 70
     0
300
1:10
140
1.0
141
10.0
290
     0
  0
SCALE
  5
189
102
{ACAD_REACTORS
330
182
102
}
330
182
100
AcDbScale
 70
     0
300
1:16
140
1.0
141
16.0
290
     0
  0
SCALE
  5
18A
102
{ACAD_REACTORS
330
182
102
}
330
182
100
AcDbScale
 70
     0
300
1:20
140
1.0
141
20.0
290
     0
  0
SCALE
  5
18B
102
{ACAD_REACTORS
330
182
102
}
330
182
100
AcDbScale
 70
     0
300
1:30
140
1.0
141
30.0
290
     0
  0
SCALE
  5
18C
102
{ACAD_REACTORS
330
182
102
}
330
182
100
AcDbScale
 70
     0
300
1:40
140
1.0
141
40.0
290
     0
  0
SCALE
  5
18D
102
{ACAD_REACTORS
330
182
102
}
330
182
100
AcDbScale
 70
     0
300
1:50
140
1.0
141
50.0
290
     0
  0
SCALE
  5
18E
102
{ACAD_REACTORS
330
182
102
}
330
182
100
AcDbScale
 70
     0
300
1:100
140
1.0
141
100.0
290
     0
  0
SCALE
  5
18F
102
{ACAD_REACTORS
330
182
102
}
330
182
100
AcDbScale
 70
     0
300
2:1
140
2.0
141
1.0
290
     0
  0
SCALE
  5
190
102
{ACAD_REACTORS
330
182
102
}
330
182
100
AcDbScale
 70
     0
300
4:1
140
4.0
141
1.0
290
     0
  0
SCALE
  5
191
102
{ACAD_REACTORS
330
182
102
}
330
182
100
AcDbScale
 70
     0
300
8:1
140
8.0
141
1.0
290
     0
  0
SCALE
  5
192
102
{ACAD_REACTORS
330
182
102
}
330
182
100
AcDbScale
 70
     0
300
10:1
140
10.0
141
1.0
290
     0
  0
SCALE
  5
193
102
{ACAD_REACTORS
330
182
102
}
330
182
100
AcDbScale
 70
     0
300
100:1
140
100.0
141
1.0
290
     0
  0
SCALE
  5
194
102
{ACAD_REACTORS
330
182
102
}
330
182
100
AcDbScale
 70
     0
300
1/128" = 1'-0"
140
0.0078125
141
12.0
290
     0
  0
SCALE
  5
195
102
{ACAD_REACTORS
330
182
102
}
330
182
100
AcDbScale
 70
     0
300
1/64" = 1'-0"
140
0.015625
141
12.0
290
     0
  0
SCALE
  5
196
102
{ACAD_REACTORS
330
182
102
}
330
182
100
AcDbScale
 70
     0
300
1/32" = 1'-0"
140
0.03125
141
12.0
290
     0
  0
SCALE
  5
197
102
{ACAD_REACTORS
330
182
102
}
330
182
100
AcDbScale
 70
     0
300
1/16" = 1'-0"
140
0.0625
141
12.0
290
     0
  0
SCALE
  5
198
102
{ACAD_REACTORS
330
182
102
}
330
182
100
AcDbScale
 70
     0
300
3/32" = 1'-0"
140
0.09375
141
12.0
290
     0
  0
SCALE
  5
199
102
{ACAD_REACTORS
330
182
102
}
330
182
100
AcDbScale
 70
     0
300
1/8" = 1'-0"
140
0.125
141
12.0
290
     0
  0
SCALE
  5
19A
102
{ACAD_REACTORS
330
182
102
}
330
182
100
AcDbScale
 70
     0
300
3/16" = 1'-0"
140
0.1875
141
12.0
290
     0
  0
SCALE
  5
19B
102
{ACAD_REACTORS
330
182
102
}
330
182
100
AcDbScale
 70
     0
300
1/4" = 1'-0"
140
0.25
141
12.0
290
     0
  0
SCALE
  5
19C
102
{ACAD_REACTORS
330
182
102
}
330
182
100
AcDbScale
 70
     0
300
3/8" = 1'-0"
140
0.375
141
12.0
290
     0
  0
SCALE
  5
19D
102
{ACAD_REACTORS
330
182
102
}
330
182
100
AcDbScale
 70
     0
300
1/2" = 1'-0"
140
0.5
141
12.0
290
     0
  0
SCALE
  5
19E
102
{ACAD_REACTORS
330
182
102
}
330
182
100
AcDbScale
 70
     0
300
3/4" = 1'-0"
140
0.75
141
12.0
290
     0
  0
SCALE
  5
19F
102
{ACAD_REACTORS
330
182
102
}
330
182
100
AcDbScale
 70
     0
300
1" = 1'-0"
140
1.0
141
12.0
290
     0
  0
SCALE
  5
1A0
102
{ACAD_REACTORS
330
182
102
}
330
182
100
AcDbScale
 70
     0
300
1-1/2" = 1'-0"
140
1.5
141
12.0
290
     0
  0
SCALE
  5
1A1
102
{ACAD_REACTORS
330
182
102
}
330
182
100
AcDbScale
 70
     0
300
3" = 1'-0"
140
3.0
141
12.0
290
     0
  0
SCALE
  5
1A2
102
{ACAD_REACTORS
330
182
102
}
330
182
100
AcDbScale
 70
     0
300
6" = 1'-0"
140
6.0
141
12.0
290
     0
  0
SCALE
  5
1A3
102
{ACAD_REACTORS
330
182
102
}
330
182
100
AcDbScale
 70
     0
300
1'-0" = 1'-0"
140
12.0
141
12.0
290
     0
  0
TABLESTYLE
  5
1D5
102
{ACAD_REACTORS
330
1D1
102
}
102
{ACAD_XDICTIONARY
360
382
102
}
330
1D1
100
AcDbTableStyle
  3
Standard
 70
     0
 71
     0
 40
1.5
 41
1.5
280
     0
281
     0
  7
Standard
140
4.5
170
     2
 62
     0
 63
   257
283
     0
 90
      512
 91
        0
  1

274
    -2
284
     1
 64
     0
275
    -2
285
     1
 65
     0
276
    -2
286
     1
 66
     0
277
    -2
287
     1
 67
     0
278
    -2
288
     1
 68
     0
279
    -2
289
     1
 69
     0
  7
Standard
140
6.0
170
     5
 62
     0
 63
   257
283
     0
 90
      512
 91
        0
  1

274
    -2
284
     1
 64
     0
275
    -2
285
     1
 65
     0
276
    -2
286
     1
 66
     0
277
    -2
287
     1
 67
     0
278
    -2
288
     1
 68
     0
279
    -2
289
     1
 69
     0
  7
Standard
140
4.5
170
     5
 62
     0
 63
   257
283
     0
 90
      512
 91
        0
  1

274
    -2
284
     1
 64
     0
275
    -2
285
     1
 65
     0
276
    -2
286
     1
 66
     0
277
    -2
287
     1
 67
     0
278
    -2
288
     1
 68
     0
279
    -2
289
     1
 69
     0
  0
VISUALSTYLE
  5
2F
102
{ACAD_REACTORS
330
2A
102
}
330
2A
100
AcDbVisualStyle
  2
2dWireframe
 70
     4
177
     2
291
     0
 71
     0
176
     1
 72
     2
176
     1
 73
     0
176
     1
 90
        0
176
     1
 40
-0.6
176
     1
 41
-30.0
176
     1
 62
     5
 63
     7
421
 16777215
176
     1
 74
     1
176
     1
 91
        4
176
     1
 64
     7
176
     1
 65
   257
176
     1
 75
     1
176
     1
175
     1
176
     1
 42
1.0
176
     1
 92
        0
176
     1
 66
   257
176
     1
 43
1.0
176
     1
 76
     1
176
     1
 77
     6
176
     1
 78
     2
176
     1
 67
     7
176
     1
 79
     5
176
     1
170
     0
176
     1
171
     0
176
     1
290
     0
176
     1
 93
        1
176
     1
 44
0.0
176
     1
173
     0
176
     1
  0
VISUALSTYLE
  5
31
102
{ACAD_REACTORS
330
2A
102
}
330
2A
100
AcDbVisualStyle
  2
3D Hidden
 70
     6
177
     2
291
     0
 71
     1
176
     1
 72
     2
176
     1
 73
     2
176
     1
 90
        0
176
     1
 40
-0.6
176
     1
 41
-30.0
176
     1
 62
     5
 63
     7
421
 16777215
176
     1
 74
     2
176
     1
 91
        2
176
     1
 64
     7
176
     1
 65
   257
176
     1
 75
     2
176
     1
175
     1
176
     1
 42
40.0
176
     1
 92
        0
176
     1
 66
   257
176
     1
 43
1.0
176
     1
 76
     1
176
     1
 77
     6
176
     1
 78
     2
176
     1
 67
     7
176
     1
 79
     3
176
     1
170
     0
176
     1
171
     0
176
     1
290
     0
176
     1
 93
        1
176
     1
 44
0.0
176
     1
173
     0
176
     1
  0
VISUALSTYLE
  5
30
102
{ACAD_REACTORS
330
2A
102
}
330
2A
100
AcDbVisualStyle
  2
3dWireframe
 70
     5
177
     2
291
     0
 71
     0
176
     1
 72
     2
176
     1
 73
     0
176
     1
 90
        0
176
     1
 40
-0.6
176
     1
 41
-30.0
176
     1
 62
     5
 63
     7
421
 16777215
176
     1
 74
     1
176
     1
 91
        4
176
     1
 64
     7
176
     1
 65
   257
176
     1
 75
     1
176
     1
175
     1
176
     1
 42
1.0
176
     1
 92
        0
176
     1
 66
   257
176
     1
 43
1.0
176
     1
 76
     1
176
     1
 77
     6
176
     1
 78
     2
176
     1
 67
     7
176
     1
 79
     5
176
     1
170
     0
176
     1
171
     0
176
     1
290
     0
176
     1
 93
        1
176
     1
 44
0.0
176
     1
173
     0
176
     1
  0
VISUALSTYLE
  5
32
102
{ACAD_REACTORS
330
2A
102
}
330
2A
100
AcDbVisualStyle
  2
Basic
 70
     7
177
     2
291
     1
 71
     1
176
     1
 72
     0
176
     1
 73
     1
176
     1
 90
        0
176
     1
 40
-0.6
176
     1
 41
-30.0
176
     1
 62
     5
 63
     7
421
 16777215
176
     1
 74
     0
176
     1
 91
        4
176
     1
 64
     7
176
     1
 65
   257
176
     1
 75
     1
176
     1
175
     1
176
     1
 42
1.0
176
     1
 92
        8
176
     1
 66
     7
176
     1
 43
1.0
176
     1
 76
     1
176
     1
 77
     6
176
     1
 78
     2
176
     1
 67
     7
176
     1
 79
     5
176
     1
170
     0
176
     1
171
     0
176
     1
290
     0
176
     1
 93
        1
176
     1
 44
0.0
176
     1
173
     0
176
     1
  0
VISUALSTYLE
  5
36
102
{ACAD_REACTORS
330
2A
102
}
330
2A
100
AcDbVisualStyle
  2
Brighten
 70
    12
177
     2
291
     1
 71
     2
176
     1
 72
     2
176
     1
 73
     0
176
     1
 90
        0
176
     1
 40
-0.6
176
     1
 41
-30.0
176
     1
 62
     5
 63
     7
421
 16777215
176
     1
 74
     1
176
     1
 91
        4
176
     1
 64
     7
176
     1
 65
   257
176
     1
 75
     1
176
     1
175
     1
176
     1
 42
1.0
176
     1
 92
        8
176
     1
 66
     7
176
     1
 43
1.0
176
     1
 76
     1
176
     1
 77
     6
176
     1
 78
     2
176
     1
 67
     7
176
     1
 79
     5
176
     1
170
     0
176
     1
171
     0
176
     1
290
     0
176
     1
 93
        1
176
     1
 44
50.0
176
     1
173
     0
176
     1
  0
VISUALSTYLE
  5
3A
102
{ACAD_REACTORS
330
2A
102
}
330
2A
100
AcDbVisualStyle
  2
ColorChange
 70
    16
177
     2
291
     1
 71
     2
176
     1
 72
     2
176
     1
 73
     3
176
     1
 90
        0
176
     1
 40
-0.6
176
     1
 41
-30.0
176
     1
 62
     5
 63
     8
421
  8421504
176
     1
 74
     1
176
     1
 91
        4
176
     1
 64
     7
176
     1
 65
   257
176
     1
 75
     1
176
     1
175
     1
176
     1
 42
1.0
176
     1
 92
        8
176
     1
 66
     8
424
  8421504
176
     1
 43
1.0
176
     1
 76
     1
176
     1
 77
     6
176
     1
 78
     2
176
     1
 67
     7
176
     1
 79
     5
176
     1
170
     0
176
     1
171
     0
176
     1
290
     0
176
     1
 93
        1
176
     1
 44
0.0
176
     1
173
     0
176
     1
  0
VISUALSTYLE
  5
34
102
{ACAD_REACTORS
330
2A
102
}
330
2A
100
AcDbVisualStyle
  2
Conceptual
 70
     9
177
     2
291
     0
 71
     3
176
     1
 72
     2
176
     1
 73
     0
176
     1
 90
        0
176
     1
 40
-0.6
176
     1
 41
-30.0
176
     1
 62
     5
 63
     7
421
 16777215
176
     1
 74
     2
176
     1
 91
        2
176
     1
 64
     7
176
     1
 65
   257
176
     1
 75
     1
176
     1
175
     1
176
     1
 42
40.0
176
     1
 92
        8
176
     1
 66
     7
176
     1
 43
1.0
176
     1
 76
     1
176
     1
 77
     6
176
     1
 78
     2
176
     1
 67
     7
176
     1
 79
     3
176
     1
170
     0
176
     1
171
     0
176
     1
290
     0
176
     1
 93
        1
176
     1
 44
0.0
176
     1
173
     0
176
     1
  0
VISUALSTYLE
  5
35
102
{ACAD_REACTORS
330
2A
102
}
330
2A
100
AcDbVisualStyle
  2
Dim
 70
    11
177
     2
291
     1
 71
     2
176
     1
 72
     2
176
     1
 73
     0
176
     1
 90
        0
176
     1
 40
-0.6
176
     1
 41
-30.0
176
     1
 62
     5
 63
     7
421
 16777215
176
     1
 74
     1
176
     1
 91
        4
176
     1
 64
     7
176
     1
 65
   257
176
     1
 75
     1
176
     1
175
     1
176
     1
 42
1.0
176
     1
 92
        8
176
     1
 66
     7
176
     1
 43
1.0
176
     1
 76
     1
176
     1
 77
     6
176
     1
 78
     2
176
     1
 67
     7
176
     1
 79
     5
176
     1
170
     0
176
     1
171
     0
176
     1
290
     0
176
     1
 93
        1
176
     1
 44
-50.0
176
     1
173
     0
176
     1
  0
VISUALSTYLE
  5
311
102
{ACAD_REACTORS
330
2A
102
}
330
2A
100
AcDbVisualStyle
  2
EdgeColorOff
 70
    22
177
     2
291
     1
 71
     2
176
     0
 72
     2
176
     0
 73
     0
176
     0
 90
        0
176
     0
 40
0.6
176
     0
 41
30.0
176
     0
 62
     5
 63
     7
421
 16777215
176
     0
 74
     1
176
     0
 91
        4
176
     0
 64
     7
176
     0
 65
   257
176
     0
 75
     1
176
     0
175
     1
176
     0
 42
1.0
176
     0
 92
        8
176
     2
 66
     7
176
     0
 43
1.0
176
     0
 76
     1
176
     0
 77
     6
176
     0
 78
     2
176
     0
 67
     7
176
     0
 79
     5
176
     0
170
     0
176
     0
171
     0
176
     0
290
     0
176
     0
 93
        1
176
     0
 44
0.0
176
     0
173
     0
176
     0
  0
VISUALSTYLE
  5
39
102
{ACAD_REACTORS
330
2A
102
}
330
2A
100
AcDbVisualStyle
  2
Facepattern
 70
    15
177
     2
291
     1
 71
     2
176
     1
 72
     2
176
     1
 73
     0
176
     1
 90
        0
176
     1
 40
-0.6
176
     1
 41
-30.0
176
     1
 62
     5
 63
     7
421
 16777215
176
     1
 74
     1
176
     1
 91
        4
176
     1
 64
     7
176
     1
 65
   257
176
     1
 75
     1
176
     1
175
     1
176
     1
 42
1.0
176
     1
 92
        8
176
     1
 66
     7
176
     1
 43
1.0
176
     1
 76
     1
176
     1
 77
     6
176
     1
 78
     2
176
     1
 67
     7
176
     1
 79
     5
176
     1
170
     0
176
     1
171
     0
176
     1
290
     0
176
     1
 93
        1
176
     1
 44
0.0
176
     1
173
     0
176
     1
  0
VISUALSTYLE
  5
2B
102
{ACAD_REACTORS
330
2A
102
}
330
2A
100
AcDbVisualStyle
  2
Flat
 70
     0
177
     2
291
     1
 71
     2
176
     1
 72
     1
176
     1
 73
     1
176
     1
 90
        2
176
     1
 40
-0.6
176
     1
 41
30.0
176
     1
 62
     5
 63
     7
421
 16777215
176
     1
 74
     0
176
     1
 91
        4
176
     1
 64
     7
176
     1
 65
   257
176
     1
 75
     1
176
     1
175
     1
176
     1
 42
1.0
176
     1
 92
        8
176
     1
 66
     7
176
     1
 43
1.0
176
     1
 76
     1
176
     1
 77
     6
176
     1
 78
     2
176
     1
 67
     7
176
     1
 79
     5
176
     1
170
     0
176
     1
171
     0
176
     1
290
     0
176
     1
 93
       13
176
     1
 44
0.0
176
     1
173
     0
176
     1
  0
VISUALSTYLE
  5
2C
102
{ACAD_REACTORS
330
2A
102
}
330
2A
100
AcDbVisualStyle
  2
FlatWithEdges
 70
     1
177
     2
291
     1
 71
     2
176
     1
 72
     1
176
     1
 73
     1
176
     1
 90
        2
176
     1
 40
-0.6
176
     1
 41
30.0
176
     1
 62
     5
 63
     7
421
 16777215
176
     1
 74
     1
176
     1
 91
        4
176
     1
 64
     7
176
     1
 65
   257
176
     1
 75
     1
176
     1
175
     1
176
     1
 42
1.0
176
     1
 92
        0
176
     1
 66
   257
176
     1
 43
1.0
176
     1
 76
     1
176
     1
 77
     6
176
     1
 78
     2
176
     1
 67
     7
176
     1
 79
     5
176
     1
170
     0
176
     1
171
     0
176
     1
290
     0
176
     1
 93
       13
176
     1
 44
0.0
176
     1
173
     0
176
     1
  0
VISUALSTYLE
  5
2D
102
{ACAD_REACTORS
330
2A
102
}
330
2A
100
AcDbVisualStyle
  2
Gouraud
 70
     2
177
     2
291
     1
 71
     2
176
     1
 72
     2
176
     1
 73
     1
176
     1
 90
        2
176
     1
 40
-0.6
176
     1
 41
30.0
176
     1
 62
     5
 63
     7
421
 16777215
176
     1
 74
     0
176
     1
 91
        4
176
     1
 64
     7
176
     1
 65
   257
176
     1
 75
     1
176
     1
175
     1
176
     1
 42
1.0
176
     1
 92
        0
176
     1
 66
     7
176
     1
 43
1.0
176
     1
 76
     1
176
     1
 77
     6
176
     1
 78
     2
176
     1
 67
     7
176
     1
 79
     5
176
     1
170
     0
176
     1
171
     0
176
     1
290
     0
176
     1
 93
       13
176
     1
 44
0.0
176
     1
173
     0
176
     1
  0
VISUALSTYLE
  5
2E
102
{ACAD_REACTORS
330
2A
102
}
330
2A
100
AcDbVisualStyle
  2
GouraudWithEdges
 70
     3
177
     2
291
     1
 71
     2
176
     1
 72
     2
176
     1
 73
     1
176
     1
 90
        2
176
     1
 40
-0.6
176
     1
 41
30.0
176
     1
 62
     5
 63
     7
421
 16777215
176
     1
 74
     1
176
     1
 91
        4
176
     1
 64
     7
176
     1
 65
   257
176
     1
 75
     1
176
     1
175
     1
176
     1
 42
1.0
176
     1
 92
        0
176
     1
 66
   257
176
     1
 43
1.0
176
     1
 76
     1
176
     1
 77
     6
176
     1
 78
     2
176
     1
 67
     7
176
     1
 79
     5
176
     1
170
     0
176
     1
171
     0
176
     1
290
     0
176
     1
 93
       13
176
     1
 44
0.0
176
     1
173
     0
176
     1
  0
VISUALSTYLE
  5
30E
102
{ACAD_REACTORS
330
2A
102
}
330
2A
100
AcDbVisualStyle
  2
Hidden
 70
     6
177
     2
291
     0
 71
     1
176
     1
 72
     2
176
     1
 73
     2
176
     1
 90
        0
176
     1
 40
0.6
176
     1
 41
30.0
176
     1
 62
     5
 63
     7
421
 16777215
176
     1
 74
     2
176
     1
 91
        2
176
     1
 64
     7
176
     1
 65
   257
176
     1
 75
     2
176
     1
175
     1
176
     1
 42
40.0
176
     1
 92
        0
176
     1
 66
   257
176
     1
 43
1.0
176
     1
 76
     1
176
     1
 77
     6
176
     1
 78
     2
176
     1
 67
     7
176
     1
 79
     3
176
     1
170
     0
176
     1
171
     0
176
     1
290
     0
176
     1
 93
        1
176
     1
 44
0.0
176
     1
173
     0
176
     1
  0
VISUALSTYLE
  5
30F
102
{ACAD_REACTORS
330
2A
102
}
330
2A
100
AcDbVisualStyle
  2
JitterOff
 70
    20
177
     2
291
     1
 71
     2
176
     0
 72
     2
176
     0
 73
     0
176
     0
 90
        0
176
     0
 40
0.6
176
     0
 41
30.0
176
     0
 62
     5
 63
     7
421
 16777215
176
     0
 74
     1
176
     0
 91
        4
176
     0
 64
     7
176
     0
 65
   257
176
     0
 75
     1
176
     0
175
     1
176
     0
 42
1.0
176
     0
 92
       10
176
     2
 66
     7
176
     0
 43
1.0
176
     0
 76
     1
176
     0
 77
     6
176
     0
 78
     2
176
     0
 67
     7
176
     0
 79
     5
176
     0
170
     0
176
     0
171
     0
176
     0
290
     0
176
     0
 93
        1
176
     0
 44
0.0
176
     0
173
     0
176
     0
  0
VISUALSTYLE
  5
38
102
{ACAD_REACTORS
330
2A
102
}
330
2A
100
AcDbVisualStyle
  2
Linepattern
 70
    14
177
     2
291
     1
 71
     2
176
     1
 72
     2
176
     1
 73
     0
176
     1
 90
        0
176
     1
 40
-0.6
176
     1
 41
-30.0
176
     1
 62
     5
 63
     7
421
 16777215
176
     1
 74
     1
176
     1
 91
        4
176
     1
 64
     7
176
     1
 65
   257
176
     1
 75
     7
176
     1
175
     7
176
     1
 42
1.0
176
     1
 92
        8
176
     1
 66
     7
176
     1
 43
1.0
176
     1
 76
     1
176
     1
 77
     6
176
     1
 78
     2
176
     1
 67
     7
176
     1
 79
     5
176
     1
170
     0
176
     1
171
     0
176
     1
290
     0
176
     1
 93
        1
176
     1
 44
0.0
176
     1
173
     0
176
     1
  0
VISUALSTYLE
  5
310
102
{ACAD_REACTORS
330
2A
102
}
330
2A
100
AcDbVisualStyle
  2
OverhangOff
 70
    21
177
     2
291
     1
 71
     2
176
     0
 72
     2
176
     0
 73
     0
176
     0
 90
        0
176
     0
 40
0.6
176
     0
 41
30.0
176
     0
 62
     5
 63
     7
421
 16777215
176
     0
 74
     1
176
     0
 91
        4
176
     0
 64
     7
176
     0
 65
   257
176
     0
 75
     1
176
     0
175
     1
176
     0
 42
1.0
176
     0
 92
        9
176
     2
 66
     7
176
     0
 43
1.0
176
     0
 76
     1
176
     0
 77
     6
176
     0
 78
     2
176
     0
 67
     7
176
     0
 79
     5
176
     0
170
     0
176
     0
171
     0
176
     0
290
     0
176
     0
 93
        1
176
     0
 44
0.0
176
     0
173
     0
176
     0
  0
VISUALSTYLE
  5
33
102
{ACAD_REACTORS
330
2A
102
}
330
2A
100
AcDbVisualStyle
  2
Realistic
 70
     8
177
     2
291
     0
 71
     2
176
     1
 72
     2
176
     1
 73
     0
176
     1
 90
        0
176
     1
 40
-0.6
176
     1
 41
-30.0
176
     1
 62
     5
 63
     7
421
 16777215
176
     1
 74
     1
176
     1
 91
        0
176
     1
 64
     7
176
     1
 65
   257
176
     1
 75
     1
176
     1
175
     1
176
     1
 42
1.0
176
     1
 92
        8
176
     1
 66
     8
424
  7895160
176
     1
 43
1.0
176
     1
 76
     1
176
     1
 77
     6
176
     1
 78
     2
176
     1
 67
     7
176
     1
 79
     5
176
     1
170
     0
176
     1
171
     0
176
     1
290
     0
176
     1
 93
       13
176
     1
 44
0.0
176
     1
173
     0
176
     1
  0
VISUALSTYLE
  5
316
102
{ACAD_REACTORS
330
2A
102
}
330
2A
100
AcDbVisualStyle
  2
Shaded
 70
    27
177
     2
291
     0
 71
     2
176
     1
 72
     2
176
     1
 73
     1
176
     1
 90
        2
176
     1
 40
0.6
176
     1
 41
30.0
176
     1
 62
     5
 63
     7
421
 16777215
176
     1
 74
     0
176
     1
 91
        4
176
     1
 64
     7
176
     1
 65
   257
176
     1
 75
     1
176
     1
175
     1
176
     1
 42
1.0
176
     1
 92
        8
176
     1
 66
   257
176
     1
 43
1.0
176
     1
 76
     1
176
     1
 77
     6
176
     1
 78
     2
176
     1
 67
     8
425
  7895160
176
     1
 79
     3
176
     1
170
     0
176
     1
171
     0
176
     1
290
     0
176
     1
 93
        5
176
     1
 44
0.0
176
     1
173
     0
176
     1
  0
VISUALSTYLE
  5
315
102
{ACAD_REACTORS
330
2A
102
}
330
2A
100
AcDbVisualStyle
  2
Shaded with edges
 70
    26
177
     2
291
     0
 71
     2
176
     1
 72
     2
176
     1
 73
     1
176
     1
 90
        2
176
     1
 40
0.6
176
     1
 41
30.0
176
     1
 62
     5
 63
     7
421
 16777215
176
     1
 74
     1
176
     1
 91
       10
176
     1
 64
     7
176
     1
 65
   257
176
     1
 75
     2
176
     1
175
     1
176
     1
 42
1.0
176
     1
 92
        8
176
     1
 66
   257
176
     1
 43
1.0
176
     1
 76
     1
176
     1
 77
     6
176
     1
 78
     2
176
     1
 67
     7
176
     1
 79
     3
176
     1
170
     0
176
     1
171
     0
176
     1
290
     0
176
     1
 93
        5
176
     1
 44
0.0
176
     1
173
     0
176
     1
  0
VISUALSTYLE
  5
312
102
{ACAD_REACTORS
330
2A
102
}
330
2A
100
AcDbVisualStyle
  2
Shades of Gray
 70
    23
177
     2
291
     0
 71
     2
176
     1
 72
     2
176
     1
 73
     3
176
     1
 90
        0
176
     1
 40
0.6
176
     1
 41
30.0
176
     1
 62
     5
 63
     7
421
 16777215
176
     1
 74
     2
176
     1
 91
        2
176
     1
 64
     7
176
     1
 65
     7
176
     1
 75
     1
176
     1
175
     1
176
     1
 42
40.0
176
     1
 92
        8
176
     1
 66
     7
176
     1
 43
1.0
176
     1
 76
     1
176
     1
 77
     6
176
     1
 78
     2
176
     1
 67
     7
176
     1
 79
     3
176
     1
170
     0
176
     1
171
     0
176
     1
290
     0
176
     1
 93
        1
176
     1
 44
0.0
176
     1
173
     0
176
     1
  0
VISUALSTYLE
  5
313
102
{ACAD_REACTORS
330
2A
102
}
330
2A
100
AcDbVisualStyle
  2
Sketchy
 70
    24
177
     2
291
     0
 71
     1
176
     1
 72
     2
176
     1
 73
     2
176
     1
 90
        0
176
     1
 40
0.6
176
     1
 41
30.0
176
     1
 62
     5
 63
     7
421
 16777215
176
     1
 74
     2
176
     1
 91
        2
176
     1
 64
     7
176
     1
 65
     7
176
     1
 75
     1
176
     1
175
     1
176
     1
 42
40.0
176
     1
 92
       11
176
     1
 66
     7
176
     1
 43
1.0
176
     1
 76
     1
176
     1
 77
     6
176
     1
 78
     2
176
     1
 67
     7
176
     1
 79
     6
176
     1
170
     0
176
     1
171
     0
176
     1
290
     0
176
     1
 93
        1
176
     1
 44
0.0
176
     1
173
     0
176
     1
  0
VISUALSTYLE
  5
37
102
{ACAD_REACTORS
330
2A
102
}
330
2A
100
AcDbVisualStyle
  2
Thicken
 70
    13
177
     2
291
     1
 71
     2
176
     1
 72
     2
176
     1
 73
     0
176
     1
 90
        0
176
     1
 40
-0.6
176
     1
 41
-30.0
176
     1
 62
     5
 63
     7
421
 16777215
176
     1
 74
     1
176
     1
 91
        4
176
     1
 64
     7
176
     1
 65
   257
176
     1
 75
     1
176
     1
175
     1
176
     1
 42
1.0
176
     1
 92
       12
176
     1
 66
     7
176
     1
 43
1.0
176
     1
 76
     1
176
     1
 77
     6
176
     1
 78
     2
176
     1
 67
     7
176
     1
 79
     5
176
     1
170
     0
176
     1
171
     0
176
     1
290
     0
176
     1
 93
        1
176
     1
 44
0.0
176
     1
173
     0
176
     1
  0
VISUALSTYLE
  5
30D
102
{ACAD_REACTORS
330
2A
102
}
330
2A
100
AcDbVisualStyle
  2
Wireframe
 70
     5
177
     2
291
     0
 71
     0
176
     1
 72
     2
176
     1
 73
     0
176
     1
 90
        0
176
     1
 40
0.6
176
     1
 41
30.0
176
     1
 62
     5
 63
     7
421
 16777215
176
     1
 74
     1
176
     1
 91
        4
176
     1
 64
     7
176
     1
 65
   257
176
     1
 75
     1
176
     1
175
     1
176
     1
 42
1.0
176
     1
 92
        0
176
     1
 66
   257
176
     1
 43
1.0
176
     1
 76
     1
176
     1
 77
     6
176
     1
 78
     2
176
     1
 67
     7
176
     1
 79
     3
176
     1
170
     0
176
     1
171
     0
176
     1
290
     0
176
     1
 93
        1
176
     1
 44
0.0
176
     1
173
     0
176
     1
  0
VISUALSTYLE
  5
314
102
{ACAD_REACTORS
330
2A
102
}
330
2A
100
AcDbVisualStyle
  2
X-Ray
 70
    25
177
     2
291
     0
 71
     2
176
     1
 72
     2
176
     1
 73
     1
176
     1
 90
        1
176
     1
 40
0.5
176
     1
 41
30.0
176
     1
 62
     5
 63
     7
421
 16777215
176
     1
 74
     1
176
     1
 91
        0
176
     1
 64
     7
176
     1
 65
   257
176
     1
 75
     1
176
     1
175
     1
176
     1
 42
1.0
176
     1
 92
        8
176
     1
 66
     7
176
     1
 43
1.0
176
     1
 76
     1
176
     1
 77
     6
176
     1
 78
     2
176
     1
 67
     7
176
     1
 79
     3
176
     1
170
     0
176
     1
171
     0
176
     1
290
     0
176
     1
 93
       13
176
     1
 44
0.0
176
     1
173
     0
176
     1
  0
DICTIONARYVAR
  5
1B0
102
{ACAD_REACTORS
330
1AF
102
}
330
1AF
100
DictionaryVariables
280
     0
  1
1:1
  0
DICTIONARYVAR
  5
304
102
{ACAD_REACTORS
330
1AF
102
}
330
1AF
100
DictionaryVariables
280
     0
  1
Standard
  0
DICTIONARYVAR
  5
303
102
{ACAD_REACTORS
330
1AF
102
}
330
1AF
100
DictionaryVariables
280
     0
  1
Standard
  0
DICTIONARYVAR
  5
31A
102
{ACAD_REACTORS
330
1AF
102
}
330
1AF
100
DictionaryVariables
280
     0
  1
0
  0
DICTIONARY
  5
382
330
1D5
100
AcDbDictionary
280
     1
281
     1
  3
ACAD_ROUNDTRIP_2008_TABLESTYLE_CELLSTYLEMAP
360
383
  0
CELLSTYLEMAP
  5
383
102
{ACAD_REACTORS
330
382
102
}
330
382
100
AcDbCellStyleMap
 90
        3
300
CELLSTYLE
  1
TABLEFORMAT_BEGIN
 90
        5
170
     1
 91
        0
 92
    32768
 62
   257
 93
        1
300
CONTENTFORMAT
  1
CONTENTFORMAT_BEGIN
 90
        0
 91
        0
 92
      512
 93
        0
300

 40
0.0
140
1.0
 94
        5
 62
     0
340
11
144
6.0
309
CONTENTFORMAT_END
171
     1
301
MARGIN
  1
CELLMARGIN_BEGIN
 40
1.5
 40
1.5
 40
1.5
 40
1.5
 40
4.5
 40
4.5
309
CELLMARGIN_END
 94
        6
 95
        1
302
GRIDFORMAT
  1
GRIDFORMAT_BEGIN
 90
        0
 91
        1
 62
     0
 92
       -2
340
0
 93
        0
 40
1.125
309
GRIDFORMAT_END
 95
        2
302
GRIDFORMAT
  1
GRIDFORMAT_BEGIN
 90
        0
 91
        1
 62
     0
 92
       -2
340
0
 93
        0
 40
1.125
309
GRIDFORMAT_END
 95
        4
302
GRIDFORMAT
  1
GRIDFORMAT_BEGIN
 90
        0
 91
        1
 62
     0
 92
       -2
340
0
 93
        0
 40
1.125
309
GRIDFORMAT_END
 95
        8
302
GRIDFORMAT
  1
GRIDFORMAT_BEGIN
 90
        0
 91
        1
 62
     0
 92
       -2
340
0
 93
        0
 40
1.125
309
GRIDFORMAT_END
 95
       16
302
GRIDFORMAT
  1
GRIDFORMAT_BEGIN
 90
        0
 91
        1
 62
     0
 92
       -2
340
0
 93
        0
 40
1.125
309
GRIDFORMAT_END
 95
       32
302
GRIDFORMAT
  1
GRIDFORMAT_BEGIN
 90
        0
 91
        1
 62
     0
 92
       -2
340
0
 93
        0
 40
1.125
309
GRIDFORMAT_END
309
TABLEFORMAT_END
  1
CELLSTYLE_BEGIN
 90
        1
 91
        1
300
_TITLE
309
CELLSTYLE_END
300
CELLSTYLE
  1
TABLEFORMAT_BEGIN
 90
        5
170
     1
 91
        0
 92
        0
 62
   257
 93
        1
300
CONTENTFORMAT
  1
CONTENTFORMAT_BEGIN
 90
        0
 91
        0
 92
      512
 93
        0
300

 40
0.0
140
1.0
 94
        5
 62
     0
340
11
144
4.5
309
CONTENTFORMAT_END
171
     1
301
MARGIN
  1
CELLMARGIN_BEGIN
 40
1.5
 40
1.5
 40
1.5
 40
1.5
 40
4.5
 40
4.5
309
CELLMARGIN_END
 94
        6
 95
        1
302
GRIDFORMAT
  1
GRIDFORMAT_BEGIN
 90
        0
 91
        1
 62
     0
 92
       -2
340
0
 93
        0
 40
1.125
309
GRIDFORMAT_END
 95
        2
302
GRIDFORMAT
  1
GRIDFORMAT_BEGIN
 90
        0
 91
        1
 62
     0
 92
       -2
340
0
 93
        0
 40
1.125
309
GRIDFORMAT_END
 95
        4
302
GRIDFORMAT
  1
GRIDFORMAT_BEGIN
 90
        0
 91
        1
 62
     0
 92
       -2
340
0
 93
        0
 40
1.125
309
GRIDFORMAT_END
 95
        8
302
GRIDFORMAT
  1
GRIDFORMAT_BEGIN
 90
        0
 91
        1
 62
     0
 92
       -2
340
0
 93
        0
 40
1.125
309
GRIDFORMAT_END
 95
       16
302
GRIDFORMAT
  1
GRIDFORMAT_BEGIN
 90
        0
 91
        1
 62
     0
 92
       -2
340
0
 93
        0
 40
1.125
309
GRIDFORMAT_END
 95
       32
302
GRIDFORMAT
  1
GRIDFORMAT_BEGIN
 90
        0
 91
        1
 62
     0
 92
       -2
340
0
 93
        0
 40
1.125
309
GRIDFORMAT_END
309
TABLEFORMAT_END
  1
CELLSTYLE_BEGIN
 90
        2
 91
        1
300
_HEADER
309
CELLSTYLE_END
300
CELLSTYLE
  1
TABLEFORMAT_BEGIN
 90
        5
170
     1
 91
        0
 92
        0
 62
   257
 93
        1
300
CONTENTFORMAT
  1
CONTENTFORMAT_BEGIN
 90
        0
 91
        0
 92
      512
 93
        0
300

 40
0.0
140
1.0
 94
        2
 62
     0
340
11
144
4.5
309
CONTENTFORMAT_END
171
     1
301
MARGIN
  1
CELLMARGIN_BEGIN
 40
1.5
 40
1.5
 40
1.5
 40
1.5
 40
4.5
 40
4.5
309
CELLMARGIN_END
 94
        6
 95
        1
302
GRIDFORMAT
  1
GRIDFORMAT_BEGIN
 90
        0
 91
        1
 62
     0
 92
       -2
340
0
 93
        0
 40
1.125
309
GRIDFORMAT_END
 95
        2
302
GRIDFORMAT
  1
GRIDFORMAT_BEGIN
 90
        0
 91
        1
 62
     0
 92
       -2
340
0
 93
        0
 40
1.125
309
GRIDFORMAT_END
 95
        4
302
GRIDFORMAT
  1
GRIDFORMAT_BEGIN
 90
        0
 91
        1
 62
     0
 92
       -2
340
0
 93
        0
 40
1.125
309
GRIDFORMAT_END
 95
        8
302
GRIDFORMAT
  1
GRIDFORMAT_BEGIN
 90
        0
 91
        1
 62
     0
 92
       -2
340
0
 93
        0
 40
1.125
309
GRIDFORMAT_END
 95
       16
302
GRIDFORMAT
  1
GRIDFORMAT_BEGIN
 90
        0
 91
        1
 62
     0
 92
       -2
340
0
 93
        0
 40
1.125
309
GRIDFORMAT_END
 95
       32
302
GRIDFORMAT
  1
GRIDFORMAT_BEGIN
 90
        0
 91
        1
 62
     0
 92
       -2
340
0
 93
        0
 40
1.125
309
GRIDFORMAT_END
309
TABLEFORMAT_END
  1
CELLSTYLE_BEGIN
 90
        3
 91
        2
300
_DATA
309
CELLSTYLE_END
  0
ENDSEC
  0
EOF
