  0
SECTION
  2
HEADER
  9
$ACADVER
  1
AC1024
  9
$ACADMAINTVER
 70
     6
  9
$DWGCODEPAGE
  3
ANSI_1252
  9
$LASTSAVEDBY
  1
bmks
  9
$INSBASE
 10
0.0
 20
0.0
 30
0.0
  9
$EXTMIN
 10
241468.0039830569
 20
4251007.592
 30
1754.496948242188
  9
$EXTMAX
 10
241906.273
 20
4251744.708467633
 30
1761.400024414062
  9
$LIMMIN
 10
0.0
 20
0.0
  9
$LIMMAX
 10
420.0
 20
297.0
  9
$ORTHOMODE
 70
     0
  9
$REGENMODE
 70
     1
  9
$FILLMODE
 70
     1
  9
$QTEXTMODE
 70
     0
  9
$MIRRTEXT
 70
     1
  9
$LTSCALE
 40
1.0
  9
$ATTMODE
 70
     1
  9
$TEXTSIZE
 40
2.5
  9
$TRACEWID
 40
1.0
  9
$TEXTSTYLE
  7
Standard
  9
$CLAYER
  8
GEOFENCE
  9
$CELTYPE
  6
ByLayer
  9
$CECOLOR
 62
   256
  9
$CELTSCALE
 40
1.0
  9
$DISPSILH
 70
     0
  9
$DIMSCALE
 40
1.0
  9
$DIMASZ
 40
2.5
  9
$DIMEXO
 40
0.625
  9
$DIMDLI
 40
3.75
  9
$DIMRND
 40
0.0
  9
$DIMDLE
 40
0.0
  9
$DIMEXE
 40
1.25
  9
$DIMTP
 40
0.0
  9
$DIMTM
 40
0.0
  9
$DIMTXT
 40
2.5
  9
$DIMCEN
 40
2.5
  9
$DIMTSZ
 40
0.0
  9
$DIMTOL
 70
     0
  9
$DIMLIM
 70
     0
  9
$DIMTIH
 70
     0
  9
$DIMTOH
 70
     0
  9
$DIMSE1
 70
     0
  9
$DIMSE2
 70
     0
  9
$DIMTAD
 70
     1
  9
$DIMZIN
 70
     8
  9
$DIMBLK
  1

  9
$DIMASO
 70
     1
  9
$DIMSHO
 70
     1
  9
$DIMPOST
  1

  9
$DIMAPOST
  1

  9
$DIMALT
 70
     0
  9
$DIMALTD
 70
     3
  9
$DIMALTF
 40
0.03937007874016
  9
$DIMLFAC
 40
1.0
  9
$DIMTOFL
 70
     1
  9
$DIMTVP
 40
0.0
  9
$DIMTIX
 70
     0
  9
$DIMSOXD
 70
     0
  9
$DIMSAH
 70
     0
  9
$DIMBLK1
  1

  9
$DIMBLK2
  1

  9
$DIMSTYLE
  2
ISO-25
  9
$DIMCLRD
 70
     0
  9
$DIMCLRE
 70
     0
  9
$DIMCLRT
 70
     0
  9
$DIMTFAC
 40
1.0
  9
$DIMGAP
 40
0.625
  9
$DIMJUST
 70
     0
  9
$DIMSD1
 70
     0
  9
$DIMSD2
 70
     0
  9
$DIMTOLJ
 70
     0
  9
$DIMTZIN
 70
     8
  9
$DIMALTZ
 70
     0
  9
$DIMALTTZ
 70
     0
  9
$DIMUPT
 70
     0
  9
$DIMDEC
 70
     2
  9
$DIMTDEC
 70
     2
  9
$DIMALTU
 70
     2
  9
$DIMALTTD
 70
     3
  9
$DIMTXSTY
  7
Standard
  9
$DIMAUNIT
 70
     0
  9
$DIMADEC
 70
     0
  9
$DIMALTRND
 40
0.0
  9
$DIMAZIN
 70
     0
  9
$DIMDSEP
 70
    44
  9
$DIMATFIT
 70
     3
  9
$DIMFRAC
 70
     0
  9
$DIMLDRBLK
  1

  9
$DIMLUNIT
 70
     2
  9
$DIMLWD
 70
    -2
  9
$DIMLWE
 70
    -2
  9
$DIMTMOVE
 70
     0
  9
$DIMFXL
 40
1.0
  9
$DIMFXLON
 70
     0
  9
$DIMJOGANG
 40
0.7853981633974483
  9
$DIMTFILL
 70
     0
  9
$DIMTFILLCLR
 70
     0
  9
$DIMARCSYM
 70
     0
  9
$DIMLTYPE
  6

  9
$DIMLTEX1
  6

  9
$DIMLTEX2
  6

  9
$DIMTXTDIRECTION
 70
     0
  9
$LUNITS
 70
     2
  9
$LUPREC
 70
     4
  9
$SKETCHINC
 40
1.0
  9
$FILLETRAD
 40
10.0
  9
$AUNITS
 70
     0
  9
$AUPREC
 70
     0
  9
$MENU
  1
.
  9
$ELEVATION
 40
0.0
  9
$PELEVATION
 40
0.0
  9
$THICKNESS
 40
0.0
  9
$LIMCHECK
 70
     0
  9
$CHAMFERA
 40
10.0
  9
$CHAMFERB
 40
10.0
  9
$CHAMFERC
 40
20.0
  9
$CHAMFERD
 40
0.0
  9
$SKPOLY
 70
     0
  9
$TDCREATE
 40
2458037.84436066
  9
$TDUCREATE
 40
2458037.71936066
  9
$TDUPDATE
 40
2458040.687890382
  9
$TDUUPDATE
 40
2458040.562890382
  9
$TDINDWG
 40
0.0114170949
  9
$TDUSRTIMER
 40
2458040.561433472
  9
$USRTIMER
 70
     1
  9
$ANGBASE
 50
0.0
  9
$ANGDIR
 70
     0
  9
$PDMODE
 70
     0
  9
$PDSIZE
 40
0.0
  9
$PLINEWID
 40
0.0
  9
$SPLFRAME
 70
     0
  9
$SPLINETYPE
 70
     6
  9
$SPLINESEGS
 70
     8
  9
$HANDSEED
  5
3F1
  9
$SURFTAB1
 70
     6
  9
$SURFTAB2
 70
     6
  9
$SURFTYPE
 70
     6
  9
$SURFU
 70
     6
  9
$SURFV
 70
     6
  9
$UCSBASE
  2

  9
$UCSNAME
  2

  9
$UCSORG
 10
0.0
 20
0.0
 30
0.0
  9
$UCSXDIR
 10
1.0
 20
0.0
 30
0.0
  9
$UCSYDIR
 10
0.0
 20
1.0
 30
0.0
  9
$UCSORTHOREF
  2

  9
$UCSORTHOVIEW
 70
     1
  9
$UCSORGTOP
 10
0.0
 20
0.0
 30
0.0
  9
$UCSORGBOTTOM
 10
0.0
 20
0.0
 30
0.0
  9
$UCSORGLEFT
 10
0.0
 20
0.0
 30
0.0
  9
$UCSORGRIGHT
 10
0.0
 20
0.0
 30
0.0
  9
$UCSORGFRONT
 10
0.0
 20
0.0
 30
0.0
  9
$UCSORGBACK
 10
0.0
 20
0.0
 30
0.0
  9
$PUCSBASE
  2

  9
$PUCSNAME
  2

  9
$PUCSORG
 10
0.0
 20
0.0
 30
0.0
  9
$PUCSXDIR
 10
1.0
 20
0.0
 30
0.0
  9
$PUCSYDIR
 10
0.0
 20
1.0
 30
0.0
  9
$PUCSORTHOREF
  2

  9
$PUCSORTHOVIEW
 70
     0
  9
$PUCSORGTOP
 10
0.0
 20
0.0
 30
0.0
  9
$PUCSORGBOTTOM
 10
0.0
 20
0.0
 30
0.0
  9
$PUCSORGLEFT
 10
0.0
 20
0.0
 30
0.0
  9
$PUCSORGRIGHT
 10
0.0
 20
0.0
 30
0.0
  9
$PUCSORGFRONT
 10
0.0
 20
0.0
 30
0.0
  9
$PUCSORGBACK
 10
0.0
 20
0.0
 30
0.0
  9
$USERI1
 70
     0
  9
$USERI2
 70
     0
  9
$USERI3
 70
     0
  9
$USERI4
 70
     0
  9
$USERI5
 70
     0
  9
$USERR1
 40
0.0
  9
$USERR2
 40
0.0
  9
$USERR3
 40
0.0
  9
$USERR4
 40
0.0
  9
$USERR5
 40
0.0
  9
$WORLDVIEW
 70
     1
  9
$SHADEDGE
 70
     3
  9
$SHADEDIF
 70
    70
  9
$TILEMODE
 70
     1
  9
$MAXACTVP
 70
    64
  9
$PINSBASE
 10
0.0
 20
0.0
 30
0.0
  9
$PLIMCHECK
 70
     0
  9
$PEXTMIN
 10
1.000000000000000E+20
 20
1.000000000000000E+20
 30
1.000000000000000E+20
  9
$PEXTMAX
 10
-1.000000000000000E+20
 20
-1.000000000000000E+20
 30
-1.000000000000000E+20
  9
$PLIMMIN
 10
0.0
 20
0.0
  9
$PLIMMAX
 10
0.0
 20
0.0
  9
$UNITMODE
 70
     0
  9
$VISRETAIN
 70
     1
  9
$PLINEGEN
 70
     0
  9
$PSLTSCALE
 70
     1
  9
$TREEDEPTH
 70
  3020
  9
$CMLSTYLE
  2
Standard
  9
$CMLJUST
 70
     0
  9
$CMLSCALE
 40
20.0
  9
$PROXYGRAPHICS
 70
     1
  9
$MEASUREMENT
 70
     1
  9
$CELWEIGHT
370
    -1
  9
$ENDCAPS
280
     0
  9
$JOINSTYLE
280
     0
  9
$LWDISPLAY
290
     0
  9
$INSUNITS
 70
     4
  9
$HYPERLINKBASE
  1

  9
$STYLESHEET
  1

  9
$XEDIT
290
     1
  9
$CEPSNTYPE
380
     0
  9
$PSTYLEMODE
290
     1
  9
$FINGERPRINTGUID
  2
{B0A50714-6E83-4443-84D4-0921B41D6AC0}
  9
$VERSIONGUID
  2
{3736792A-C840-480A-8F74-C2D7598F6C70}
  9
$EXTNAMES
290
     1
  9
$PSVPSCALE
 40
0.0
  9
$OLESTARTUP
290
     0
  9
$SORTENTS
280
   127
  9
$INDEXCTL
280
     0
  9
$HIDETEXT
280
     1
  9
$XCLIPFRAME
280
     0
  9
$HALOGAP
280
     0
  9
$OBSCOLOR
 70
   257
  9
$OBSLTYPE
280
     0
  9
$INTERSECTIONDISPLAY
280
     0
  9
$INTERSECTIONCOLOR
 70
   257
  9
$DIMASSOC
280
     2
  9
$PROJECTNAME
  1

  9
$CAMERADISPLAY
290
     0
  9
$LENSLENGTH
 40
50.0
  9
$CAMERAHEIGHT
 40
0.0
  9
$STEPSPERSEC
 40
2.0
  9
$STEPSIZE
 40
6.0
  9
$3DDWFPREC
 40
2.0
  9
$PSOLWIDTH
 40
5.0
  9
$PSOLHEIGHT
 40
80.0
  9
$LOFTANG1
 40
1.570796326794897
  9
$LOFTANG2
 40
1.570796326794897
  9
$LOFTMAG1
 40
0.0
  9
$LOFTMAG2
 40
0.0
  9
$LOFTPARAM
 70
     7
  9
$LOFTNORMALS
280
     1
  9
$LATITUDE
 40
37.795
  9
$LONGITUDE
 40
-122.394
  9
$NORTHDIRECTION
 40
0.0
  9
$TIMEZONE
 70
 -8000
  9
$LIGHTGLYPHDISPLAY
280
     1
  9
$TILEMODELIGHTSYNCH
280
     1
  9
$CMATERIAL
347
3C
  9
$SOLIDHIST
280
     1
  9
$SHOWHIST
280
     1
  9
$DWFFRAME
280
     2
  9
$DGNFRAME
280
     2
  9
$REALWORLDSCALE
290
     1
  9
$INTERFERECOLOR
 62
   256
  9
$CSHADOW
280
     0
  9
$SHADOWPLANELOCATION
 40
0.0
  0
ENDSEC
  0
SECTION
  2
CLASSES
  0
CLASS
  1
ACDBDICTIONARYWDFLT
  2
AcDbDictionaryWithDefault
  3
ObjectDBX Classes
 90
        0
 91
        4
280
     0
281
     0
  0
CLASS
  1
VISUALSTYLE
  2
AcDbVisualStyle
  3
ObjectDBX Classes
 90
     4095
 91
        4
280
     0
281
     0
  0
CLASS
  1
MATERIAL
  2
AcDbMaterial
  3
ObjectDBX Classes
 90
     1153
 91
        4
280
     0
281
     0
  0
CLASS
  1
SCALE
  2
AcDbScale
  3
ObjectDBX Classes
 90
     1153
 91
        4
280
     0
281
     0
  0
CLASS
  1
DICTIONARYVAR
  2
AcDbDictionaryVar
  3
ObjectDBX Classes
 90
        0
 91
        4
280
     0
281
     0
  0
CLASS
  1
TABLESTYLE
  2
AcDbTableStyle
  3
ObjectDBX Classes
 90
     4095
 91
        4
280
     0
281
     0
  0
CLASS
  1
MLEADERSTYLE
  2
AcDbMLeaderStyle
  3
ACDB_MLEADERSTYLE_CLASS
 90
     4095
 91
        4
280
     0
281
     0
  0
CLASS
  1
SOLID_BACKGROUND
  2
AcDbSolidBackground
  3
SCENEOE
 90
     4095
 91
        4
280
     0
281
     0
  0
CLASS
  1
NPOCOLLECTION
  2
AcDbImpNonPersistentObjectsCollection
  3
ObjectDBX Classes
 90
     1153
 91
        1
280
     1
281
     0
  0
CLASS
  1
CELLSTYLEMAP
  2
AcDbCellStyleMap
  3
ObjectDBX Classes
 90
     1152
 91
        4
280
     0
281
     0
  0
CLASS
  1
SUN
  2
AcDbSun
  3
SCENEOE
 90
     1153
 91
        4
280
     0
281
     0
  0
CLASS
  1
RASTERVARIABLES
  2
AcDbRasterVariables
  3
ISM
 90
        0
 91
        4
280
     0
281
     0
  0
ENDSEC
  0
SECTION
  2
TABLES
  0
TABLE
  2
VPORT
  5
8
330
0
100
AcDbSymbolTable
 70
     1
  0
VPORT
  5
29
330
8
100
AcDbSymbolTableRecord
100
AcDbViewportTableRecord
  2
*Active
 70
     0
 10
0.0
 20
0.0
 11
1.0
 21
1.0
 12
-1338.989408804095
 22
65.96142032080394
 13
0.0
 23
0.0
 14
10.0
 24
10.0
 15
10.0
 25
10.0
 16
0.7917103044746909
 26
-0.2143427291885018
 36
0.5720594161830377
 17
242033.1829952003
 27
4252239.21107301
 37
494.1814448880432
 40
1048.008406361534
 41
1.894736842105263
 42
50.0
 43
0.0
 44
0.0
 50
0.0
 51
36.52212374047844
 71
    16
 72
   100
 73
     1
 74
     3
 75
     0
 76
     0
 77
     0
 78
     0
281
     0
 65
     1
110
0.0
120
0.0
130
0.0
111
1.0
121
0.0
131
0.0
112
0.0
122
1.0
132
0.0
 79
     1
146
0.0
348
2F
 60
     3
 61
     5
292
     1
282
     1
141
0.0
142
0.0
 63
   250
361
377
  0
ENDTAB
  0
TABLE
  2
LTYPE
  5
5
330
0
100
AcDbSymbolTable
 70
     1
  0
LTYPE
  5
14
330
5
100
AcDbSymbolTableRecord
100
AcDbLinetypeTableRecord
  2
ByBlock
 70
     0
  3

 72
    65
 73
     0
 40
0.0
  0
LTYPE
  5
15
330
5
100
AcDbSymbolTableRecord
100
AcDbLinetypeTableRecord
  2
ByLayer
 70
     0
  3

 72
    65
 73
     0
 40
0.0
  0
LTYPE
  5
16
330
5
100
AcDbSymbolTableRecord
100
AcDbLinetypeTableRecord
  2
Continuous
 70
     0
  3
Solid line
 72
    65
 73
     0
 40
0.0
  0
ENDTAB
  0
TABLE
  2
LAYER
  5
2
102
{ACAD_XDICTIONARY
360
37C
102
}
330
0
100
AcDbSymbolTable
 70
     8
  0
LAYER
  5
10
102
{ACAD_XDICTIONARY
360
23E
102
}
330
2
100
AcDbSymbolTableRecord
100
AcDbLayerTableRecord
  2
0
 70
     0
 62
     5
  6
Continuous
370
     0
390
F
347
3E
  0
LAYER
  5
9E
102
{ACAD_XDICTIONARY
360
2FE
102
}
330
2
100
AcDbSymbolTableRecord
100
AcDbLayerTableRecord
  2
ATOCAGi3NOLUGALERI
 70
     0
 62
     4
  6
Continuous
370
     0
390
F
347
3E
  0
LAYER
  5
A1
102
{ACAD_XDICTIONARY
360
304
102
}
330
2
100
AcDbSymbolTableRecord
100
AcDbLayerTableRecord
  2
TAS
 70
     0
 62
     7
  6
Continuous
370
    -3
390
F
347
3E
  0
LAYER
  5
A6
102
{ACAD_XDICTIONARY
360
30E
102
}
330
2
100
AcDbSymbolTableRecord
100
AcDbLayerTableRecord
  2
SONDAJ_KESiT
 70
     0
 62
     7
  6
Continuous
370
    -3
390
F
347
3E
  0
LAYER
  5
A9
102
{ACAD_XDICTIONARY
360
314
102
}
330
2
100
AcDbSymbolTableRecord
100
AcDbLayerTableRecord
  2
TAS_TARAMA
 70
     0
 62
     7
  6
Continuous
370
    -3
390
F
347
3E
  0
LAYER
  5
AC
102
{ACAD_XDICTIONARY
360
31A
102
}
330
2
100
AcDbSymbolTableRecord
100
AcDbLayerTableRecord
  2
DAYK_ONU_KESITLERI
 70
     0
 62
     7
  6
Continuous
370
    -3
390
F
347
3E
  0
LAYER
  5
382
330
2
100
AcDbSymbolTableRecord
100
AcDbLayerTableRecord
  2
INIT_COORD
 70
     0
 62
     5
  6
Continuous
370
     0
390
F
347
3E
1001
AcAecLayerStandard
1000

1000

  0
LAYER
  5
38E
330
2
100
AcDbSymbolTableRecord
100
AcDbLayerTableRecord
  2
GEOFENCE
 70
     0
 62
     3
  6
Continuous
370
    -3
390
F
347
3E
1001
AcAecLayerStandard
1000

1000

  0
ENDTAB
  0
TABLE
  2
STYLE
  5
3
330
0
100
AcDbSymbolTable
 70
     1
  0
STYLE
  5
11
330
3
100
AcDbSymbolTableRecord
100
AcDbTextStyleTableRecord
  2
Standard
 70
     0
 40
0.0
 41
1.0
 50
0.0
 71
     0
 42
2.5
  3
times.ttf
  4

1001
ACAD
1000
Times New Roman
1071
       18
  0
ENDTAB
  0
TABLE
  2
VIEW
  5
6
330
0
100
AcDbSymbolTable
 70
     0
  0
ENDTAB
  0
TABLE
  2
UCS
  5
7
330
0
100
AcDbSymbolTable
 70
     0
  0
ENDTAB
  0
TABLE
  2
APPID
  5
9
330
0
100
AcDbSymbolTable
 70
     3
  0
APPID
  5
12
330
9
100
AcDbSymbolTableRecord
100
AcDbRegAppTableRecord
  2
ACAD
 70
     0
  0
APPID
  5
237
330
9
100
AcDbSymbolTableRecord
100
AcDbRegAppTableRecord
  2
ACAD_MLEADERVER
 70
     0
  0
APPID
  5
383
330
9
100
AcDbSymbolTableRecord
100
AcDbRegAppTableRecord
  2
AcAecLayerStandard
 70
     0
  0
ENDTAB
  0
TABLE
  2
DIMSTYLE
  5
A
330
0
100
AcDbSymbolTable
 70
     1
100
AcDbDimStyleTable
  0
DIMSTYLE
105
27
330
A
100
AcDbSymbolTableRecord
100
AcDbDimStyleTableRecord
  2
ISO-25
 70
     0
 41
2.5
 42
0.625
 43
3.75
 44
1.25
 73
     0
 74
     0
 77
     1
 78
     8
140
2.5
141
2.5
143
0.03937007874016
147
0.625
171
     3
172
     1
178
     0
271
     2
272
     2
274
     3
278
    44
283
     0
284
     8
340
11
  0
ENDTAB
  0
TABLE
  2
BLOCK_RECORD
  5
1
330
0
100
AcDbSymbolTable
 70
     2
  0
BLOCK_RECORD
  5
1F
330
1
100
AcDbSymbolTableRecord
100
AcDbBlockTableRecord
  2
*Model_Space
340
22
 70
     0
280
     1
281
     0
  0
BLOCK_RECORD
  5
1B
330
1
100
AcDbSymbolTableRecord
100
AcDbBlockTableRecord
  2
*Paper_Space
340
1E
 70
     0
280
     1
281
     0
  0
BLOCK_RECORD
  5
23
330
1
100
AcDbSymbolTableRecord
100
AcDbBlockTableRecord
  2
*Paper_Space0
340
26
 70
     0
280
     1
281
     0
  0
BLOCK_RECORD
  5
1D1
330
1
100
AcDbSymbolTableRecord
100
AcDbBlockTableRecord
  2
0
340
0
102
{BLKREFS
331
1F6
102
}
 70
     0
280
     1
281
     0
  0
ENDTAB
  0
ENDSEC
  0
SECTION
  2
BLOCKS
  0
BLOCK
  5
20
330
1F
100
AcDbEntity
  8
0
100
AcDbBlockBegin
  2
*Model_Space
 70
     0
 10
0.0
 20
0.0
 30
0.0
  3
*Model_Space
  1

  0
ENDBLK
  5
21
330
1F
100
AcDbEntity
  8
0
100
AcDbBlockEnd
  0
BLOCK
  5
1C
330
1B
100
AcDbEntity
 67
     1
  8
0
100
AcDbBlockBegin
  2
*Paper_Space
 70
     0
 10
0.0
 20
0.0
 30
0.0
  3
*Paper_Space
  1

  0
ENDBLK
  5
1D
330
1B
100
AcDbEntity
 67
     1
  8
0
100
AcDbBlockEnd
  0
BLOCK
  5
24
330
23
100
AcDbEntity
  8
0
100
AcDbBlockBegin
  2
*Paper_Space0
 70
     0
 10
0.0
 20
0.0
 30
0.0
  3
*Paper_Space0
  1

  0
ENDBLK
  5
25
330
23
100
AcDbEntity
  8
0
100
AcDbBlockEnd
  0
BLOCK
  5
1D2
330
1D1
100
AcDbEntity
  8
0
100
AcDbBlockBegin
  2
0
 70
     0
 10
0.0
 20
0.0
 30
0.0
  3
0
  1

  0
ENDBLK
  5
1D3
330
1D1
100
AcDbEntity
  8
0
100
AcDbBlockEnd
  0
ENDSEC
  0
SECTION
  2
ENTITIES
  0
POINT
  5
CF
330
1F
100
AcDbEntity
  8
ATOCAGi3NOLUGALERI
370
     0
100
AcDbPoint
 10
241468.0039830569
 20
4251526.15509271
 30
1754.64697265625
  0
POINT
  5
D0
330
1F
100
AcDbEntity
  8
ATOCAGi3NOLUGALERI
370
     0
100
AcDbPoint
 10
241470.8096960998
 20
4251524.695808219
 30
1754.6669921875
  0
POINT
  5
D1
330
1F
100
AcDbEntity
  8
ATOCAGi3NOLUGALERI
370
     0
100
AcDbPoint
 10
241476.8619786806
 20
4251535.365275305
 30
1754.6669921875
  0
POINT
  5
D2
330
1F
100
AcDbEntity
  8
ATOCAGi3NOLUGALERI
370
     0
100
AcDbPoint
 10
241474.290539411
 20
4251536.788501454
 30
1754.6669921875
  0
LINE
  5
D3
330
1F
100
AcDbEntity
  8
ATOCAGi3NOLUGALERI
370
     0
100
AcDbLine
 10
241468.0039830569
 20
4251526.15509271
 30
1754.64697265625
 11
241474.290539411
 21
4251536.788501454
 31
1754.6669921875
  0
LINE
  5
D4
330
1F
100
AcDbEntity
  8
ATOCAGi3NOLUGALERI
370
     0
100
AcDbLine
 10
241476.8619786806
 20
4251535.365275305
 30
1754.6669921875
 11
241470.8096960998
 21
4251524.695808219
 31
1754.6669921875
  0
POINT
  5
D5
330
1F
100
AcDbEntity
  8
ATOCAGi3NOLUGALERI
370
     0
100
AcDbPoint
 10
241491.7151774751
 20
4251554.023325323
 30
1754.496948242188
  0
POINT
  5
D6
330
1F
100
AcDbEntity
  8
ATOCAGi3NOLUGALERI
370
     0
100
AcDbPoint
 10
241488.5098534136
 20
4251556.403106173
 30
1754.746948242188
  0
POINT
  5
D7
330
1F
100
AcDbEntity
  8
ATOCAGi3NOLUGALERI
370
     0
100
AcDbPoint
 10
241490.3118994127
 20
4251560.529252485
 30
1754.496948242188
  0
POINT
  5
D8
330
1F
100
AcDbEntity
  8
ATOCAGi3NOLUGALERI
370
     0
100
AcDbPoint
 10
241492.0806511351
 20
4251562.939449395
 30
1754.496948242188
  0
POINT
  5
D9
330
1F
100
AcDbEntity
  8
ATOCAGi3NOLUGALERI
370
     0
100
AcDbPoint
 10
241495.1326951563
 20
4251566.89534198
 30
1754.496948242188
  0
POINT
  5
DA
330
1F
100
AcDbEntity
  8
ATOCAGi3NOLUGALERI
370
     0
100
AcDbPoint
 10
241500.1516503456
 20
4251565.535229115
 30
1754.496948242188
  0
POINT
  5
DB
330
1F
100
AcDbEntity
  8
ATOCAGi3NOLUGALERI
370
     0
100
AcDbPoint
 10
241496.3793347827
 20
4251561.790287546
 30
1754.496948242188
  0
POINT
  5
DC
330
1F
100
AcDbEntity
  8
ATOCAGi3NOLUGALERI
370
     0
100
AcDbPoint
 10
241493.3580259148
 20
4251557.006070732
 30
1754.496948242188
  0
POINT
  5
DD
330
1F
100
AcDbEntity
  8
ATOCAGi3NOLUGALERI
370
     0
100
AcDbPoint
 10
241491.3842504656
 20
4251553.310827051
 30
1754.596923828125
  0
LINE
  5
DE
330
1F
100
AcDbEntity
  8
ATOCAGi3NOLUGALERI
370
     0
100
AcDbLine
 10
241500.1516503456
 20
4251565.535229115
 30
1754.496948242188
 11
241496.3793347827
 21
4251561.790287546
 31
1754.496948242188
  0
LINE
  5
DF
330
1F
100
AcDbEntity
  8
ATOCAGi3NOLUGALERI
370
     0
100
AcDbLine
 10
241496.3793347827
 20
4251561.790287546
 30
1754.496948242188
 11
241493.3580259148
 21
4251557.006070732
 31
1754.496948242188
  0
LINE
  5
E0
330
1F
100
AcDbEntity
  8
ATOCAGi3NOLUGALERI
370
     0
100
AcDbLine
 10
241493.3580259148
 20
4251557.006070732
 30
1754.496948242188
 11
241491.7151774751
 21
4251554.023325323
 31
1754.496948242188
  0
LINE
  5
E1
330
1F
100
AcDbEntity
  8
ATOCAGi3NOLUGALERI
370
     0
100
AcDbLine
 10
241491.7151774751
 20
4251554.023325323
 30
1754.496948242188
 11
241491.3842504656
 21
4251553.310827051
 31
1754.596923828125
  0
LINE
  5
E2
330
1F
100
AcDbEntity
  8
ATOCAGi3NOLUGALERI
370
     0
100
AcDbLine
 10
241491.3842504656
 20
4251553.310827051
 30
1754.596923828125
 11
241476.8619786806
 21
4251535.365275305
 31
1754.6669921875
  0
LINE
  5
E3
330
1F
100
AcDbEntity
  8
ATOCAGi3NOLUGALERI
370
     0
100
AcDbLine
 10
241474.290539411
 20
4251536.788501454
 30
1754.6669921875
 11
241488.5098534136
 21
4251556.403106173
 31
1754.746948242188
  0
LINE
  5
E4
330
1F
100
AcDbEntity
  8
ATOCAGi3NOLUGALERI
370
     0
100
AcDbLine
 10
241488.5098534136
 20
4251556.403106173
 30
1754.746948242188
 11
241490.3118994127
 21
4251560.529252485
 31
1754.496948242188
  0
LINE
  5
E5
330
1F
100
AcDbEntity
  8
ATOCAGi3NOLUGALERI
370
     0
100
AcDbLine
 10
241490.3118994127
 20
4251560.529252485
 30
1754.496948242188
 11
241492.0806511351
 21
4251562.939449395
 31
1754.496948242188
  0
LINE
  5
E6
330
1F
100
AcDbEntity
  8
ATOCAGi3NOLUGALERI
370
     0
100
AcDbLine
 10
241492.0806511351
 20
4251562.939449395
 30
1754.496948242188
 11
241495.1326951563
 21
4251566.89534198
 31
1754.496948242188
  0
POINT
  5
E7
330
1F
100
AcDbEntity
  8
ATOCAGi3NOLUGALERI
370
     0
100
AcDbPoint
 10
241496.3919752828
 20
4251567.882651884
 30
1755.10693359375
  0
POINT
  5
E8
330
1F
100
AcDbEntity
  8
ATOCAGi3NOLUGALERI
370
     0
100
AcDbPoint
 10
241501.4964110076
 20
4251572.823559887
 30
1754.956909179688
  0
POINT
  5
E9
330
1F
100
AcDbEntity
  8
ATOCAGi3NOLUGALERI
370
     0
100
AcDbPoint
 10
241504.908536666
 20
4251570.660727501
 30
1755.016967773438
  0
POINT
  5
EA
330
1F
100
AcDbEntity
  8
ATOCAGi3NOLUGALERI
370
     0
100
AcDbPoint
 10
241504.8099608971
 20
4251576.458635961
 30
1755.136962890625
  0
POINT
  5
EB
330
1F
100
AcDbEntity
  8
ATOCAGi3NOLUGALERI
370
     0
100
AcDbPoint
 10
241509.8904414156
 20
4251577.700952364
 30
1755.1669921875
  0
POINT
  5
EC
330
1F
100
AcDbEntity
  8
ATOCAGi3NOLUGALERI
370
     0
100
AcDbPoint
 10
241508.7921448774
 20
4251581.4920388
 30
1755.046997070312
  0
POINT
  5
ED
330
1F
100
AcDbEntity
  8
ATOCAGi3NOLUGALERI
370
     0
100
AcDbPoint
 10
241512.7995175208
 20
4251582.093418295
 30
1755.206909179688
  0
POINT
  5
EE
330
1F
100
AcDbEntity
  8
ATOCAGi3NOLUGALERI
370
     0
100
AcDbPoint
 10
241519.7595807191
 20
4251596.502276087
 30
1755.116943359375
  0
POINT
  5
EF
330
1F
100
AcDbEntity
  8
ATOCAGi3NOLUGALERI
370
     0
100
AcDbPoint
 10
241522.1696059725
 20
4251593.527537653
 30
1754.996948242188
  0
LINE
  5
F0
330
1F
100
AcDbEntity
  8
ATOCAGi3NOLUGALERI
370
     0
100
AcDbLine
 10
241504.8099608971
 20
4251576.458635961
 30
1755.136962890625
 11
241508.7921448774
 21
4251581.4920388
 31
1755.046997070312
  0
LINE
  5
F1
330
1F
100
AcDbEntity
  8
ATOCAGi3NOLUGALERI
370
     0
100
AcDbLine
 10
241512.7995175208
 20
4251582.093418295
 30
1755.206909179688
 11
241509.8904414156
 21
4251577.700952364
 31
1755.1669921875
  0
LINE
  5
F2
330
1F
100
AcDbEntity
  8
ATOCAGi3NOLUGALERI
370
     0
100
AcDbLine
 10
241500.1516503456
 20
4251565.535229115
 30
1754.496948242188
 11
241504.908536666
 21
4251570.660727501
 31
1755.016967773438
  0
LINE
  5
F3
330
1F
100
AcDbEntity
  8
ATOCAGi3NOLUGALERI
370
     0
100
AcDbLine
 10
241504.908536666
 20
4251570.660727501
 30
1755.016967773438
 11
241509.8904414156
 21
4251577.700952364
 31
1755.1669921875
  0
LINE
  5
F4
330
1F
100
AcDbEntity
  8
ATOCAGi3NOLUGALERI
370
     0
100
AcDbLine
 10
241495.1326951563
 20
4251566.89534198
 30
1754.496948242188
 11
241496.3919752828
 21
4251567.882651884
 31
1755.10693359375
  0
LINE
  5
F5
330
1F
100
AcDbEntity
  8
ATOCAGi3NOLUGALERI
370
     0
100
AcDbLine
 10
241496.3919752828
 20
4251567.882651884
 30
1755.10693359375
 11
241501.4964110076
 21
4251572.823559887
 31
1754.956909179688
  0
LINE
  5
F6
330
1F
100
AcDbEntity
  8
ATOCAGi3NOLUGALERI
370
     0
100
AcDbLine
 10
241501.4964110076
 20
4251572.823559887
 30
1754.956909179688
 11
241504.8099608971
 21
4251576.458635961
 31
1755.136962890625
  0
POINT
  5
F7
330
1F
100
AcDbEntity
  8
ATOCAGi3NOLUGALERI
370
     0
100
AcDbPoint
 10
241517.4916769368
 20
4251587.480341854
 30
1754.996826171875
  0
POINT
  5
F8
330
1F
100
AcDbEntity
  8
ATOCAGi3NOLUGALERI
370
     0
100
AcDbPoint
 10
241521.9379254614
 20
4251592.89251378
 30
1754.886840820312
  0
POINT
  5
F9
330
1F
100
AcDbEntity
  8
ATOCAGi3NOLUGALERI
370
     0
100
AcDbPoint
 10
241525.2138837937
 20
4251592.512938326
 30
1754.806884765625
  0
POINT
  5
FA
330
1F
100
AcDbEntity
  8
ATOCAGi3NOLUGALERI
370
     0
100
AcDbPoint
 10
241528.7750886408
 20
4251588.035912856
 30
1754.996826171875
  0
POINT
  5
FB
330
1F
100
AcDbEntity
  8
ATOCAGi3NOLUGALERI
370
     0
100
AcDbPoint
 10
241531.6714149843
 20
4251590.27785347
 30
1754.896850585938
  0
POINT
  5
FC
330
1F
100
AcDbEntity
  8
ATOCAGi3NOLUGALERI
370
     0
100
AcDbPoint
 10
241527.0372773229
 20
4251596.579610941
 30
1754.896850585938
  0
POINT
  5
FD
330
1F
100
AcDbEntity
  8
ATOCAGi3NOLUGALERI
370
     0
100
AcDbPoint
 10
241526.7700421036
 20
4251599.211454616
 30
1755.096923828125
  0
POINT
  5
FE
330
1F
100
AcDbEntity
  8
ATOCAGi3NOLUGALERI
370
     0
100
AcDbPoint
 10
241531.9014536326
 20
4251605.878853909
 30
1754.896850585938
  0
POINT
  5
FF
330
1F
100
AcDbEntity
  8
ATOCAGi3NOLUGALERI
370
     0
100
AcDbPoint
 10
241528.2314460348
 20
4251608.937008999
 30
1754.896850585938
  0
POINT
  5
100
330
1F
100
AcDbEntity
  8
ATOCAGi3NOLUGALERI
370
     0
100
AcDbPoint
 10
241522.438664982
 20
4251601.458166414
 30
1755.196899414062
  0
POINT
  5
101
330
1F
100
AcDbEntity
  8
ATOCAGi3NOLUGALERI
370
     0
100
AcDbPoint
 10
241518.3638395926
 20
4251596.141736658
 30
1754.946899414062
  0
POINT
  5
102
330
1F
100
AcDbEntity
  8
ATOCAGi3NOLUGALERI
370
     0
100
AcDbPoint
 10
241516.7018467469
 20
4251592.742782007
 30
1754.996826171875
  0
POINT
  5
103
330
1F
100
AcDbEntity
  8
ATOCAGi3NOLUGALERI
370
     0
100
AcDbPoint
 10
241513.5108824134
 20
4251588.167037648
 30
1755.146850585938
  0
LINE
  5
104
330
1F
100
AcDbEntity
  8
ATOCAGi3NOLUGALERI
370
     0
100
AcDbLine
 10
241508.7921448774
 20
4251581.4920388
 30
1755.046997070312
 11
241513.5108824134
 21
4251588.167037648
 31
1755.146850585938
  0
LINE
  5
105
330
1F
100
AcDbEntity
  8
ATOCAGi3NOLUGALERI
370
     0
100
AcDbLine
 10
241513.5108824134
 20
4251588.167037648
 30
1755.146850585938
 11
241516.7018467469
 21
4251592.742782007
 31
1754.996826171875
  0
LINE
  5
106
330
1F
100
AcDbEntity
  8
ATOCAGi3NOLUGALERI
370
     0
100
AcDbLine
 10
241516.7018467469
 20
4251592.742782007
 30
1754.996826171875
 11
241518.3638395926
 21
4251596.141736658
 31
1754.946899414062
  0
LINE
  5
107
330
1F
100
AcDbEntity
  8
ATOCAGi3NOLUGALERI
370
     0
100
AcDbLine
 10
241518.3638395926
 20
4251596.141736658
 30
1754.946899414062
 11
241519.7595807191
 21
4251596.502276087
 31
1755.116943359375
  0
LINE
  5
108
330
1F
100
AcDbEntity
  8
ATOCAGi3NOLUGALERI
370
     0
100
AcDbLine
 10
241519.7595807191
 20
4251596.502276087
 30
1755.116943359375
 11
241522.438664982
 21
4251601.458166414
 31
1755.196899414062
  0
LINE
  5
109
330
1F
100
AcDbEntity
  8
ATOCAGi3NOLUGALERI
370
     0
100
AcDbLine
 10
241522.438664982
 20
4251601.458166414
 30
1755.196899414062
 11
241528.2314460348
 21
4251608.937008999
 31
1754.896850585938
  0
LINE
  5
10A
330
1F
100
AcDbEntity
  8
ATOCAGi3NOLUGALERI
370
     0
100
AcDbLine
 10
241531.9014536326
 20
4251605.878853909
 30
1754.896850585938
 11
241526.7700421036
 21
4251599.211454616
 31
1755.096923828125
  0
LINE
  5
10B
330
1F
100
AcDbEntity
  8
ATOCAGi3NOLUGALERI
370
     0
100
AcDbLine
 10
241526.7700421036
 20
4251599.211454616
 30
1755.096923828125
 11
241527.0372773229
 21
4251596.579610941
 31
1754.896850585938
  0
LINE
  5
10C
330
1F
100
AcDbEntity
  8
ATOCAGi3NOLUGALERI
370
     0
100
AcDbLine
 10
241527.0372773229
 20
4251596.579610941
 30
1754.896850585938
 11
241531.6714149843
 21
4251590.27785347
 31
1754.896850585938
  0
LINE
  5
10D
330
1F
100
AcDbEntity
  8
ATOCAGi3NOLUGALERI
370
     0
100
AcDbLine
 10
241531.671414984
 20
4251590.27785347
 30
1754.896850585938
 11
241528.775088641
 21
4251588.03591286
 31
1754.996948242188
  0
LINE
  5
10E
330
1F
100
AcDbEntity
  8
ATOCAGi3NOLUGALERI
370
     0
100
AcDbLine
 10
241522.1696059725
 20
4251593.527537653
 30
1754.996948242188
 11
241521.9379254614
 21
4251592.89251378
 31
1754.886840820312
  0
LINE
  5
10F
330
1F
100
AcDbEntity
  8
ATOCAGi3NOLUGALERI
370
     0
100
AcDbLine
 10
241521.9379254614
 20
4251592.89251378
 30
1754.886840820312
 11
241517.4916769368
 21
4251587.480341854
 31
1754.996826171875
  0
LINE
  5
110
330
1F
100
AcDbEntity
  8
ATOCAGi3NOLUGALERI
370
     0
100
AcDbLine
 10
241517.4916769368
 20
4251587.480341854
 30
1754.996826171875
 11
241512.7995175208
 21
4251582.093418295
 31
1755.206909179688
  0
LINE
  5
111
330
1F
100
AcDbEntity
  8
ATOCAGi3NOLUGALERI
370
     0
100
AcDbLine
 10
241522.1696059725
 20
4251593.527537653
 30
1754.996948242188
 11
241525.2138837937
 21
4251592.512938326
 31
1754.806884765625
  0
LINE
  5
112
330
1F
100
AcDbEntity
  8
ATOCAGi3NOLUGALERI
370
     0
100
AcDbLine
 10
241525.2138837937
 20
4251592.512938326
 30
1754.806884765625
 11
241528.7750886408
 21
4251588.035912856
 31
1754.996826171875
  0
POINT
  5
113
330
1F
100
AcDbEntity
  8
ATOCAGi3NOLUGALERI
370
     0
100
AcDbPoint
 10
241535.7606725223
 20
4251612.167886844
 30
1754.7568359375
  0
POINT
  5
114
330
1F
100
AcDbEntity
  8
ATOCAGi3NOLUGALERI
370
     0
100
AcDbPoint
 10
241539.6058601789
 20
4251618.094796989
 30
1754.73681640625
  0
POINT
  5
115
330
1F
100
AcDbEntity
  8
ATOCAGi3NOLUGALERI
370
     0
100
AcDbPoint
 10
241542.5655374594
 20
4251622.810916283
 30
1754.706909179688
  0
POINT
  5
11B
330
1F
100
AcDbEntity
  8
ATOCAGi3NOLUGALERI
370
     0
100
AcDbPoint
 10
241537.4861254641
 20
4251620.866615876
 30
1754.916870117188
  0
POINT
  5
11C
330
1F
100
AcDbEntity
  8
ATOCAGi3NOLUGALERI
370
     0
100
AcDbPoint
 10
241532.1410577584
 20
4251613.568419016
 30
1754.946899414062
  0
LINE
  5
11D
330
1F
100
AcDbEntity
  8
ATOCAGi3NOLUGALERI
370
     0
100
AcDbLine
 10
241531.9014536326
 20
4251605.878853909
 30
1754.896850585938
 11
241535.7606725223
 21
4251612.167886844
 31
1754.7568359375
  0
LINE
  5
11E
330
1F
100
AcDbEntity
  8
ATOCAGi3NOLUGALERI
370
     0
100
AcDbLine
 10
241535.7606725223
 20
4251612.167886844
 30
1754.7568359375
 11
241539.6058601789
 21
4251618.094796989
 31
1754.73681640625
  0
LINE
  5
11F
330
1F
100
AcDbEntity
  8
ATOCAGi3NOLUGALERI
370
     0
100
AcDbLine
 10
241539.6058601789
 20
4251618.094796989
 30
1754.73681640625
 11
241542.5655374594
 21
4251622.810916283
 31
1754.706909179688
  0
LINE
  5
120
330
1F
100
AcDbEntity
  8
ATOCAGi3NOLUGALERI
370
     0
100
AcDbLine
 10
241537.4861254641
 20
4251620.866615876
 30
1754.916870117188
 11
241532.1410577584
 21
4251613.568419016
 31
1754.946899414062
  0
LINE
  5
121
330
1F
100
AcDbEntity
  8
ATOCAGi3NOLUGALERI
370
     0
100
AcDbLine
 10
241532.1410577584
 20
4251613.568419016
 30
1754.946899414062
 11
241528.2314460348
 21
4251608.937008999
 31
1754.896850585938
  0
POINT
  5
124
330
1F
100
AcDbEntity
  8
ATOCAGi3NOLUGALERI
370
     0
100
AcDbPoint
 10
241541.6192650311
 20
4251628.178470294
 30
1754.936889648438
  0
POINT
  5
125
330
1F
100
AcDbEntity
  8
ATOCAGi3NOLUGALERI
370
     0
100
AcDbPoint
 10
241545.8080425607
 20
4251626.225582453
 30
1754.936889648438
  0
POINT
  5
126
330
1F
100
AcDbEntity
  8
ATOCAGi3NOLUGALERI
370
     0
100
AcDbPoint
 10
241545.2959522604
 20
4251633.156913911
 30
1755.116943359375
  0
POINT
  5
127
330
1F
100
AcDbEntity
  8
ATOCAGi3NOLUGALERI
370
     0
100
AcDbPoint
 10
241551.3670355022
 20
4251633.712439527
 30
1755.0068359375
  0
POINT
  5
128
330
1F
100
AcDbEntity
  8
ATOCAGi3NOLUGALERI
370
     0
100
AcDbPoint
 10
241549.8281885166
 20
4251640.591557097
 30
1755.136840820312
  0
POINT
  5
129
330
1F
100
AcDbEntity
  8
ATOCAGi3NOLUGALERI
370
     0
100
AcDbPoint
 10
241557.5553079059
 20
4251643.329424394
 30
1755.5869140625
  0
POINT
  5
12A
330
1F
100
AcDbEntity
  8
ATOCAGi3NOLUGALERI
370
     0
100
AcDbPoint
 10
241556.8078963532
 20
4251648.912974253
 30
1755.436889648438
  0
POINT
  5
12D
330
1F
100
AcDbEntity
  8
ATOCAGi3NOLUGALERI
370
     0
100
AcDbPoint
 10
241559.0093616754
 20
4251645.841616461
 30
1755.536865234375
  0
LINE
  5
12E
330
1F
100
AcDbEntity
  8
ATOCAGi3NOLUGALERI
370
     0
100
AcDbLine
 10
241541.6192650311
 20
4251628.178470294
 30
1754.936889648438
 11
241545.2959522604
 21
4251633.156913911
 31
1755.116943359375
  0
LINE
  5
12F
330
1F
100
AcDbEntity
  8
ATOCAGi3NOLUGALERI
370
     0
100
AcDbLine
 10
241545.2959522604
 20
4251633.156913911
 30
1755.116943359375
 11
241549.8281885166
 21
4251640.591557097
 31
1755.136840820312
  0
LINE
  5
130
330
1F
100
AcDbEntity
  8
ATOCAGi3NOLUGALERI
370
     0
100
AcDbLine
 10
241549.8281885166
 20
4251640.591557097
 30
1755.136840820312
 11
241556.8078963532
 21
4251648.912974253
 31
1755.436889648438
  0
LINE
  5
131
330
1F
100
AcDbEntity
  8
ATOCAGi3NOLUGALERI
370
     0
100
AcDbLine
 10
241559.0093616754
 20
4251645.841616461
 30
1755.542236328125
 11
241557.5553079059
 21
4251643.329424394
 31
1755.5869140625
  0
LINE
  5
132
330
1F
100
AcDbEntity
  8
ATOCAGi3NOLUGALERI
370
     0
100
AcDbLine
 10
241545.8080425607
 20
4251626.225582453
 30
1754.936889648438
 11
241551.3670355022
 21
4251633.712439527
 31
1755.0068359375
  0
LINE
  5
133
330
1F
100
AcDbEntity
  8
ATOCAGi3NOLUGALERI
370
     0
100
AcDbLine
 10
241551.3670355022
 20
4251633.712439527
 30
1755.0068359375
 11
241557.5553079059
 21
4251643.329424394
 31
1755.5869140625
  0
LINE
  5
135
330
1F
100
AcDbEntity
  8
ATOCAGi3NOLUGALERI
370
     0
100
AcDbLine
 10
241537.4861254641
 20
4251620.866615876
 30
1754.916870117188
 11
241541.6192650311
 21
4251628.178470294
 31
1754.936889648438
  0
LINE
  5
136
330
1F
100
AcDbEntity
  8
ATOCAGi3NOLUGALERI
370
     0
100
AcDbLine
 10
241542.5655374594
 20
4251622.810916283
 30
1754.706909179688
 11
241545.8080425607
 21
4251626.225582453
 31
1754.936889648438
  0
POINT
  5
137
330
1F
100
AcDbEntity
  8
ATOCAGi3NOLUGALERI
370
     0
100
AcDbPoint
 10
241567.1924502651
 20
4251656.214303466
 30
1755.826904296875
  0
POINT
  5
138
330
1F
100
AcDbEntity
  8
ATOCAGi3NOLUGALERI
370
     0
100
AcDbPoint
 10
241565.4032357098
 20
4251659.88048742
 30
1755.886962890625
  0
POINT
  5
139
330
1F
100
AcDbEntity
  8
ATOCAGi3NOLUGALERI
370
     0
100
AcDbPoint
 10
241571.9557399394
 20
4251663.447520653
 30
1756.096923828125
  0
POINT
  5
13A
330
1F
100
AcDbEntity
  8
ATOCAGi3NOLUGALERI
370
     0
100
AcDbPoint
 10
241573.2191473425
 20
4251666.061962155
 30
1755.916870117188
  0
POINT
  5
13B
330
1F
100
AcDbEntity
  8
ATOCAGi3NOLUGALERI
370
     0
100
AcDbPoint
 10
241576.0589162344
 20
4251669.778525596
 30
1756.156860351562
  0
POINT
  5
13C
330
1F
100
AcDbEntity
  8
ATOCAGi3NOLUGALERI
370
     0
100
AcDbPoint
 10
241581.5715087044
 20
4251676.053087376
 30
1756.146850585938
  0
POINT
  5
13D
330
1F
100
AcDbEntity
  8
ATOCAGi3NOLUGALERI
370
     0
100
AcDbPoint
 10
241584.6577542799
 20
4251679.990672914
 30
1756.126953125
  0
POINT
  5
13E
330
1F
100
AcDbEntity
  8
ATOCAGi3NOLUGALERI
370
     0
100
AcDbPoint
 10
241582.0912841134
 20
4251682.622200413
 30
1756.176879882812
  0
POINT
  5
13F
330
1F
100
AcDbEntity
  8
ATOCAGi3NOLUGALERI
370
     0
100
AcDbPoint
 10
241578.7027874819
 20
4251678.402906878
 30
1756.176879882812
  0
POINT
  5
140
330
1F
100
AcDbEntity
  8
ATOCAGi3NOLUGALERI
370
     0
100
AcDbPoint
 10
241573.3113742522
 20
4251671.272257683
 30
1756.176879882812
  0
POINT
  5
141
330
1F
100
AcDbEntity
  8
ATOCAGi3NOLUGALERI
370
     0
100
AcDbPoint
 10
241570.2741346252
 20
4251667.699455905
 30
1756.126953125
  0
POINT
  5
142
330
1F
100
AcDbEntity
  8
ATOCAGi3NOLUGALERI
370
     0
100
AcDbPoint
 10
241567.6612174792
 20
4251663.963352389
 30
1756.10693359375
  0
LINE
  5
143
330
1F
100
AcDbEntity
  8
ATOCAGi3NOLUGALERI
370
     0
100
AcDbLine
 10
241567.6612174792
 20
4251663.963352389
 30
1756.10693359375
 11
241570.2741346252
 21
4251667.699455905
 31
1756.126953125
  0
LINE
  5
144
330
1F
100
AcDbEntity
  8
ATOCAGi3NOLUGALERI
370
     0
100
AcDbLine
 10
241570.2741346252
 20
4251667.699455905
 30
1756.126953125
 11
241573.3113742522
 21
4251671.272257683
 31
1756.176879882812
  0
LINE
  5
145
330
1F
100
AcDbEntity
  8
ATOCAGi3NOLUGALERI
370
     0
100
AcDbLine
 10
241573.3113742522
 20
4251671.272257683
 30
1756.176879882812
 11
241578.7027874819
 21
4251678.402906878
 31
1756.176879882812
  0
LINE
  5
146
330
1F
100
AcDbEntity
  8
ATOCAGi3NOLUGALERI
370
     0
100
AcDbLine
 10
241578.7027874819
 20
4251678.402906878
 30
1756.176879882812
 11
241582.0912841134
 21
4251682.622200413
 31
1756.176879882812
  0
LINE
  5
147
330
1F
100
AcDbEntity
  8
ATOCAGi3NOLUGALERI
370
     0
100
AcDbLine
 10
241584.6577542799
 20
4251679.990672914
 30
1756.126953125
 11
241581.5715087044
 21
4251676.053087376
 31
1756.146850585938
  0
LINE
  5
148
330
1F
100
AcDbEntity
  8
ATOCAGi3NOLUGALERI
370
     0
100
AcDbLine
 10
241581.5715087044
 20
4251676.053087376
 30
1756.146850585938
 11
241576.0589162344
 21
4251669.778525596
 31
1756.156860351562
  0
LINE
  5
149
330
1F
100
AcDbEntity
  8
ATOCAGi3NOLUGALERI
370
     0
100
AcDbLine
 10
241576.0589162344
 20
4251669.778525596
 30
1756.156860351562
 11
241573.2191473425
 21
4251666.061962155
 31
1755.916870117188
  0
LINE
  5
14A
330
1F
100
AcDbEntity
  8
ATOCAGi3NOLUGALERI
370
     0
100
AcDbLine
 10
241573.2191473425
 20
4251666.061962155
 30
1755.916870117188
 11
241571.9557399394
 21
4251663.447520653
 31
1756.096923828125
  0
LINE
  5
14B
330
1F
100
AcDbEntity
  8
ATOCAGi3NOLUGALERI
370
     0
100
AcDbLine
 10
241571.9557399394
 20
4251663.447520653
 30
1756.096923828125
 11
241567.1924502651
 21
4251656.214303466
 31
1755.826904296875
  0
LINE
  5
14C
330
1F
100
AcDbEntity
  8
ATOCAGi3NOLUGALERI
370
     0
100
AcDbLine
 10
241565.4032357098
 20
4251659.88048742
 30
1755.886962890625
 11
241567.6612174792
 21
4251663.963352389
 31
1756.10693359375
  0
LINE
  5
14D
330
1F
100
AcDbEntity
  8
ATOCAGi3NOLUGALERI
370
     0
100
AcDbLine
 10
241556.8078963532
 20
4251648.912974253
 30
1755.436889648438
 11
241565.4032357098
 21
4251659.88048742
 31
1755.886962890625
  0
LINE
  5
14E
330
1F
100
AcDbEntity
  8
ATOCAGi3NOLUGALERI
370
     0
100
AcDbLine
 10
241560.6286563094
 20
4251647.959528171
 30
1755.589233398438
 11
241567.1924502651
 21
4251656.214303466
 31
1755.826904296875
  0
POINT
  5
150
330
1F
100
AcDbEntity
  8
ATOCAGi3NOLUGALERI
370
     0
100
AcDbPoint
 10
241589.1061604014
 20
4251686.154205687
 30
1756.276977539062
  0
POINT
  5
151
330
1F
100
AcDbEntity
  8
ATOCAGi3NOLUGALERI
370
     0
100
AcDbPoint
 10
241588.2537563721
 20
4251690.075990459
 30
1756.197021484375
  0
POINT
  5
152
330
1F
100
AcDbEntity
  8
ATOCAGi3NOLUGALERI
370
     0
100
AcDbPoint
 10
241595.0423496024
 20
4251693.352667965
 30
1756.197021484375
  0
POINT
  5
153
330
1F
100
AcDbEntity
  8
ATOCAGi3NOLUGALERI
370
     0
100
AcDbPoint
 10
241592.7441748431
 20
4251695.784064128
 30
1756.197021484375
  0
LINE
  5
154
330
1F
100
AcDbEntity
  8
ATOCAGi3NOLUGALERI
370
     0
100
AcDbLine
 10
241582.0912841134
 20
4251682.622200413
 30
1756.176879882812
 11
241588.2537563721
 21
4251690.075990459
 31
1756.197021484375
  0
LINE
  5
155
330
1F
100
AcDbEntity
  8
ATOCAGi3NOLUGALERI
370
     0
100
AcDbLine
 10
241588.2537563721
 20
4251690.075990459
 30
1756.197021484375
 11
241592.7441748431
 21
4251695.784064128
 31
1756.197021484375
  0
LINE
  5
156
330
1F
100
AcDbEntity
  8
ATOCAGi3NOLUGALERI
370
     0
100
AcDbLine
 10
241595.0423496024
 20
4251693.352667965
 30
1756.197021484375
 11
241589.1061604014
 21
4251686.154205687
 31
1756.276977539062
  0
LINE
  5
157
330
1F
100
AcDbEntity
  8
ATOCAGi3NOLUGALERI
370
     0
100
AcDbLine
 10
241589.1061604014
 20
4251686.154205687
 30
1756.276977539062
 11
241584.6577542799
 21
4251679.990672914
 31
1756.126953125
  0
POINT
  5
158
330
1F
100
AcDbEntity
  8
ATOCAGi3NOLUGALERI
370
     0
100
AcDbPoint
 10
241559.8663596167
 20
4251645.054047971
 30
1755.486938476562
  0
POINT
  5
159
330
1F
100
AcDbEntity
  8
ATOCAGi3NOLUGALERI
370
     0
100
AcDbPoint
 10
241563.698067598
 20
4251641.197810548
 30
1755.706909179688
  0
POINT
  5
15A
330
1F
100
AcDbEntity
  8
ATOCAGi3NOLUGALERI
370
     0
100
AcDbPoint
 10
241567.1436157566
 20
4251636.76257525
 30
1755.506958007812
  0
POINT
  5
15B
330
1F
100
AcDbEntity
  8
ATOCAGi3NOLUGALERI
370
     0
100
AcDbPoint
 10
241570.3273775525
 20
4251638.753742452
 30
1755.506958007812
  0
POINT
  5
15C
330
1F
100
AcDbEntity
  8
ATOCAGi3NOLUGALERI
370
     0
100
AcDbPoint
 10
241573.0191093529
 20
4251640.308417748
 30
1755.506958007812
  0
POINT
  5
15D
330
1F
100
AcDbEntity
  8
ATOCAGi3NOLUGALERI
370
     0
100
AcDbPoint
 10
241571.2737597484
 20
4251643.328935307
 30
1755.506958007812
  0
POINT
  5
15E
330
1F
100
AcDbEntity
  8
ATOCAGi3NOLUGALERI
370
     0
100
AcDbPoint
 10
241568.1308292549
 20
4251641.693769632
 30
1755.506958007812
  0
POINT
  5
15F
330
1F
100
AcDbEntity
  8
ATOCAGi3NOLUGALERI
370
     0
100
AcDbPoint
 10
241564.5205077373
 20
4251644.979287529
 30
1755.506958007812
  0
POINT
  5
160
330
1F
100
AcDbEntity
  8
ATOCAGi3NOLUGALERI
370
     0
100
AcDbPoint
 10
241560.9033482974
 20
4251647.722190632
 30
1755.506958007812
  0
POINT
  5
165
330
1F
100
AcDbEntity
  8
ATOCAGi3NOLUGALERI
370
     0
100
AcDbPoint
 10
241568.0148657388
 20
4251641.543835406
 30
1755.506958007812
  0
LINE
  5
168
330
1F
100
AcDbEntity
  8
ATOCAGi3NOLUGALERI
370
     0
100
AcDbLine
 10
241559.8663596167
 20
4251645.054047971
 30
1755.486938476562
 11
241563.698067598
 21
4251641.197810548
 31
1755.706909179688
  0
LINE
  5
169
330
1F
100
AcDbEntity
  8
ATOCAGi3NOLUGALERI
370
     0
100
AcDbLine
 10
241563.698067598
 20
4251641.197810548
 30
1755.706909179688
 11
241567.1436157566
 21
4251636.76257525
 31
1755.506958007812
  0
LINE
  5
16A
330
1F
100
AcDbEntity
  8
ATOCAGi3NOLUGALERI
370
     0
100
AcDbLine
 10
241567.1436157566
 20
4251636.76257525
 30
1755.506958007812
 11
241570.3273775525
 21
4251638.753742452
 31
1755.506958007812
  0
LINE
  5
16B
330
1F
100
AcDbEntity
  8
ATOCAGi3NOLUGALERI
370
     0
100
AcDbLine
 10
241570.3273775525
 20
4251638.753742452
 30
1755.506958007812
 11
241573.0191093529
 21
4251640.308417748
 31
1755.506958007812
  0
LINE
  5
16C
330
1F
100
AcDbEntity
  8
ATOCAGi3NOLUGALERI
370
     0
100
AcDbLine
 10
241573.0191093529
 20
4251640.308417748
 30
1755.506958007812
 11
241571.2737597484
 21
4251643.328935307
 31
1755.506958007812
  0
LINE
  5
16D
330
1F
100
AcDbEntity
  8
ATOCAGi3NOLUGALERI
370
     0
100
AcDbLine
 10
241571.2737597484
 20
4251643.328935307
 30
1755.506958007812
 11
241568.1308292549
 21
4251641.693769632
 31
1755.506958007812
  0
LINE
  5
16E
330
1F
100
AcDbEntity
  8
ATOCAGi3NOLUGALERI
370
     0
100
AcDbLine
 10
241568.1308292549
 20
4251641.693769632
 30
1755.506958007812
 11
241564.5205077373
 21
4251644.979287529
 31
1755.506958007812
  0
LINE
  5
16F
330
1F
100
AcDbEntity
  8
ATOCAGi3NOLUGALERI
370
     0
100
AcDbLine
 10
241564.5205077373
 20
4251644.979287529
 30
1755.506958007812
 11
241560.9033482974
 21
4251647.722190632
 31
1755.506958007812
  0
LINE
  5
170
330
1F
100
AcDbEntity
  8
ATOCAGi3NOLUGALERI
370
     0
100
AcDbLine
 10
241559.8663596167
 20
4251645.054047971
 30
1755.486938476562
 11
241559.0093616754
 21
4251645.841616461
 31
1755.542236328125
  0
LINE
  5
171
330
1F
100
AcDbEntity
  8
ATOCAGi3NOLUGALERI
370
     0
100
AcDbLine
 10
241560.9033482974
 20
4251647.722190632
 30
1755.506958007812
 11
241560.6286563092
 21
4251647.959528171
 31
1755.589233398438
  0
POINT
  5
176
330
1F
100
AcDbEntity
  8
ATOCAGi3NOLUGALERI
370
     0
100
AcDbPoint
 10
241596.5276025924
 20
4251695.220596431
 30
1756.447021484375
  0
POINT
  5
177
330
1F
100
AcDbEntity
  8
ATOCAGi3NOLUGALERI
370
     0
100
AcDbPoint
 10
241594.194799045
 20
4251698.227626024
 30
1756.447021484375
  0
POINT
  5
178
330
1F
100
AcDbEntity
  8
ATOCAGi3NOLUGALERI
370
     0
100
AcDbPoint
 10
241598.7201821624
 20
4251698.179301254
 30
1756.447021484375
  0
POINT
  5
179
330
1F
100
AcDbEntity
  8
ATOCAGi3NOLUGALERI
370
     0
100
AcDbPoint
 10
241596.4436258477
 20
4251700.514639508
 30
1756.447021484375
  0
POINT
  5
17A
330
1F
100
AcDbEntity
  8
ATOCAGi3NOLUGALERI
370
     0
100
AcDbPoint
 10
241601.4072643591
 20
4251699.975313292
 30
1756.447021484375
  0
POINT
  5
17B
330
1F
100
AcDbEntity
  8
ATOCAGi3NOLUGALERI
370
     0
100
AcDbPoint
 10
241598.0462347734
 20
4251701.992674499
 30
1756.447021484375
  0
POINT
  5
17C
330
1F
100
AcDbEntity
  8
ATOCAGi3NOLUGALERI
370
     0
100
AcDbPoint
 10
241599.9441934765
 20
4251702.989141938
 30
1756.447021484375
  0
POINT
  5
17D
330
1F
100
AcDbEntity
  8
ATOCAGi3NOLUGALERI
370
     0
100
AcDbPoint
 10
241604.6286889415
 20
4251701.189343584
 30
1756.597045898438
  0
POINT
  5
17E
330
1F
100
AcDbEntity
  8
ATOCAGi3NOLUGALERI
370
     0
100
AcDbPoint
 10
241602.9900633936
 20
4251704.6037232
 30
1756.7470703125
  0
POINT
  5
17F
330
1F
100
AcDbEntity
  8
ATOCAGi3NOLUGALERI
370
     0
100
AcDbPoint
 10
241607.902780734
 20
4251703.47494517
 30
1756.64697265625
  0
POINT
  5
180
330
1F
100
AcDbEntity
  8
ATOCAGi3NOLUGALERI
370
     0
100
AcDbPoint
 10
241605.6107291248
 20
4251705.783341805
 30
1756.587036132812
  0
POINT
  5
181
330
1F
100
AcDbEntity
  8
ATOCAGi3NOLUGALERI
370
     0
100
AcDbPoint
 10
241608.8420625242
 20
4251703.864049153
 30
1756.717041015625
  0
POINT
  5
182
330
1F
100
AcDbEntity
  8
ATOCAGi3NOLUGALERI
370
     0
100
AcDbPoint
 10
241610.6908273115
 20
4251705.767771764
 30
1756.357055664062
  0
POINT
  5
183
330
1F
100
AcDbEntity
  8
ATOCAGi3NOLUGALERI
370
     0
100
AcDbPoint
 10
241612.3334067542
 20
4251708.021525711
 30
1756.357055664062
  0
POINT
  5
186
330
1F
100
AcDbEntity
  8
ATOCAGi3NOLUGALERI
370
     0
100
AcDbPoint
 10
241609.2174877141
 20
4251709.594705147
 30
1756.357055664062
  0
POINT
  5
187
330
1F
100
AcDbEntity
  8
ATOCAGi3NOLUGALERI
370
     0
100
AcDbPoint
 10
241606.7985844558
 20
4251706.735795508
 30
1756.357055664062
  0
LINE
  5
188
330
1F
100
AcDbEntity
  8
ATOCAGi3NOLUGALERI
370
     0
100
AcDbLine
 10
241592.7441748431
 20
4251695.784064128
 30
1756.197021484375
 11
241594.194799045
 21
4251698.227626024
 31
1756.447021484375
  0
LINE
  5
189
330
1F
100
AcDbEntity
  8
ATOCAGi3NOLUGALERI
370
     0
100
AcDbLine
 10
241594.194799045
 20
4251698.227626024
 30
1756.447021484375
 11
241596.4436258477
 21
4251700.514639508
 31
1756.447021484375
  0
LINE
  5
18A
330
1F
100
AcDbEntity
  8
ATOCAGi3NOLUGALERI
370
     0
100
AcDbLine
 10
241596.4436258477
 20
4251700.514639508
 30
1756.447021484375
 11
241598.0462347734
 21
4251701.992674499
 31
1756.447021484375
  0
LINE
  5
18B
330
1F
100
AcDbEntity
  8
ATOCAGi3NOLUGALERI
370
     0
100
AcDbLine
 10
241598.0462347734
 20
4251701.992674499
 30
1756.447021484375
 11
241599.9441934765
 21
4251702.989141938
 31
1756.447021484375
  0
LINE
  5
18C
330
1F
100
AcDbEntity
  8
ATOCAGi3NOLUGALERI
370
     0
100
AcDbLine
 10
241599.9441934765
 20
4251702.989141938
 30
1756.447021484375
 11
241602.9900633936
 21
4251704.6037232
 31
1756.7470703125
  0
LINE
  5
18D
330
1F
100
AcDbEntity
  8
ATOCAGi3NOLUGALERI
370
     0
100
AcDbLine
 10
241602.9900633936
 20
4251704.6037232
 30
1756.7470703125
 11
241605.6107291248
 21
4251705.783341805
 31
1756.587036132812
  0
LINE
  5
18E
330
1F
100
AcDbEntity
  8
ATOCAGi3NOLUGALERI
370
     0
100
AcDbLine
 10
241605.6107291248
 20
4251705.783341805
 30
1756.587036132812
 11
241606.7985844558
 21
4251706.735795508
 31
1756.357055664062
  0
LINE
  5
18F
330
1F
100
AcDbEntity
  8
ATOCAGi3NOLUGALERI
370
     0
100
AcDbLine
 10
241606.7985844558
 20
4251706.735795508
 30
1756.357055664062
 11
241609.2174877141
 21
4251709.594705147
 31
1756.357055664062
  0
LINE
  5
190
330
1F
100
AcDbEntity
  8
ATOCAGi3NOLUGALERI
370
     0
100
AcDbLine
 10
241612.3334067542
 20
4251708.021525711
 30
1756.357055664062
 11
241610.6908273115
 21
4251705.767771764
 31
1756.357055664062
  0
LINE
  5
191
330
1F
100
AcDbEntity
  8
ATOCAGi3NOLUGALERI
370
     0
100
AcDbLine
 10
241610.6908273115
 20
4251705.767771764
 30
1756.357055664062
 11
241608.8420625242
 21
4251703.864049153
 31
1756.717041015625
  0
LINE
  5
192
330
1F
100
AcDbEntity
  8
ATOCAGi3NOLUGALERI
370
     0
100
AcDbLine
 10
241608.8420625242
 20
4251703.864049153
 30
1756.717041015625
 11
241607.902780734
 21
4251703.47494517
 31
1756.64697265625
  0
LINE
  5
193
330
1F
100
AcDbEntity
  8
ATOCAGi3NOLUGALERI
370
     0
100
AcDbLine
 10
241607.902780734
 20
4251703.47494517
 30
1756.64697265625
 11
241604.6286889415
 21
4251701.189343584
 31
1756.597045898438
  0
LINE
  5
194
330
1F
100
AcDbEntity
  8
ATOCAGi3NOLUGALERI
370
     0
100
AcDbLine
 10
241604.6286889415
 20
4251701.189343584
 30
1756.597045898438
 11
241601.4072643591
 21
4251699.975313292
 31
1756.447021484375
  0
LINE
  5
195
330
1F
100
AcDbEntity
  8
ATOCAGi3NOLUGALERI
370
     0
100
AcDbLine
 10
241601.4072643591
 20
4251699.975313292
 30
1756.447021484375
 11
241598.7201821624
 21
4251698.179301254
 31
1756.447021484375
  0
LINE
  5
196
330
1F
100
AcDbEntity
  8
ATOCAGi3NOLUGALERI
370
     0
100
AcDbLine
 10
241598.7201821624
 20
4251698.179301254
 30
1756.447021484375
 11
241596.5276025924
 21
4251695.220596431
 31
1756.447021484375
  0
LINE
  5
197
330
1F
100
AcDbEntity
  8
ATOCAGi3NOLUGALERI
370
     0
100
AcDbLine
 10
241596.5276025924
 20
4251695.220596431
 30
1756.447021484375
 11
241595.0423496024
 21
4251693.352667965
 31
1756.197021484375
  0
POINT
  5
1A0
330
1F
100
AcDbEntity
  8
ATOCAGi3NOLUGALERI
370
     0
100
AcDbPoint
 10
241617.2348279968
 20
4251722.002366409
 30
1756.51708984375
  0
POINT
  5
1A3
330
1F
100
AcDbEntity
  8
ATOCAGi3NOLUGALERI
370
     0
100
AcDbPoint
 10
241617.8181873887
 20
4251724.831401304
 30
1756.567016601562
  0
POINT
  5
1A8
330
1F
100
AcDbEntity
  8
ATOCAGi3NOLUGALERI
370
     0
100
AcDbPoint
 10
241612.3871977345
 20
4251713.712003448
 30
1756.697998046875
  0
POINT
  5
1A9
330
1F
100
AcDbEntity
  8
ATOCAGi3NOLUGALERI
370
     0
100
AcDbPoint
 10
241615.4190558334
 20
4251711.934373097
 30
1756.657958984375
  0
POINT
  5
1AA
330
1F
100
AcDbEntity
  8
ATOCAGi3NOLUGALERI
370
     0
100
AcDbPoint
 10
241614.9212483551
 20
4251717.653717518
 30
1756.858032226562
  0
POINT
  5
1AB
330
1F
100
AcDbEntity
  8
ATOCAGi3NOLUGALERI
370
     0
100
AcDbPoint
 10
241620.233214097
 20
4251719.788910672
 30
1756.89794921875
  0
POINT
  5
1AC
330
1F
100
AcDbEntity
  8
ATOCAGi3NOLUGALERI
370
     0
100
AcDbPoint
 10
241617.397932791
 20
4251721.768284375
 30
1756.777954101562
  0
LINE
  5
1AD
330
1F
100
AcDbEntity
  8
ATOCAGi3NOLUGALERI
370
     0
100
AcDbLine
 10
241609.2178738588
 20
4251709.594937963
 30
1756.357055664062
 11
241612.3871977345
 21
4251713.712003448
 31
1756.697998046875
  0
LINE
  5
1AE
330
1F
100
AcDbEntity
  8
ATOCAGi3NOLUGALERI
370
     0
100
AcDbLine
 10
241612.3337928989
 20
4251708.021758527
 30
1756.357055664062
 11
241615.4190558334
 21
4251711.934373097
 31
1756.657958984375
  0
LINE
  5
1AF
330
1F
100
AcDbEntity
  8
ATOCAGi3NOLUGALERI
370
     0
100
AcDbLine
 10
241612.3871977345
 20
4251713.712003448
 30
1756.697998046875
 11
241614.9212483551
 21
4251717.653717518
 31
1756.858032226562
  0
LINE
  5
1B0
330
1F
100
AcDbEntity
  8
ATOCAGi3NOLUGALERI
370
     0
100
AcDbLine
 10
241614.9212483551
 20
4251717.653717518
 30
1756.858032226562
 11
241617.397932791
 21
4251721.768284375
 31
1756.777954101562
  0
LINE
  5
1B1
330
1F
100
AcDbEntity
  8
ATOCAGi3NOLUGALERI
370
     0
100
AcDbLine
 10
241620.233214097
 20
4251719.788910672
 30
1756.89794921875
 11
241615.4190558334
 21
4251711.934373097
 31
1756.657958984375
  0
POINT
  5
1B2
330
1F
100
AcDbEntity
  8
ATOCAGi3NOLUGALERI
370
     0
100
AcDbPoint
 10
241612.6221077438
 20
4251723.349234313
 30
1757.02099609375
  0
POINT
  5
1B3
330
1F
100
AcDbEntity
  8
ATOCAGi3NOLUGALERI
370
     0
100
AcDbPoint
 10
241612.1874141129
 20
4251725.782062702
 30
1757.31103515625
  0
POINT
  5
1B7
330
1F
100
AcDbEntity
  8
ATOCAGi3NOLUGALERI
370
     0
100
AcDbPoint
 10
241618.1769774875
 20
4251725.592629679
 30
1756.781005859375
  0
POINT
  5
1B8
330
1F
100
AcDbEntity
  8
ATOCAGi3NOLUGALERI
370
     0
100
AcDbPoint
 10
241621.7110165307
 20
4251726.485729304
 30
1756.941040039062
  0
POINT
  5
1B9
330
1F
100
AcDbEntity
  8
ATOCAGi3NOLUGALERI
370
     0
100
AcDbPoint
 10
241618.6633113174
 20
4251731.63894316
 30
1756.98095703125
  0
POINT
  5
1BA
330
1F
100
AcDbEntity
  8
ATOCAGi3NOLUGALERI
370
     0
100
AcDbPoint
 10
241622.0283205979
 20
4251730.846989212
 30
1756.931030273438
  0
LINE
  5
1BB
330
1F
100
AcDbEntity
  8
ATOCAGi3NOLUGALERI
370
     0
100
AcDbLine
 10
241618.1769774875
 20
4251725.592629679
 30
1756.781005859375
 11
241618.6633113174
 21
4251731.63894316
 31
1756.98095703125
  0
LINE
  5
1BC
330
1F
100
AcDbEntity
  8
ATOCAGi3NOLUGALERI
370
     0
100
AcDbLine
 10
241620.233214097
 20
4251719.788910672
 30
1756.89794921875
 11
241621.7110165307
 21
4251726.485729304
 31
1756.941040039062
  0
LINE
  5
1BD
330
1F
100
AcDbEntity
  8
ATOCAGi3NOLUGALERI
370
     0
100
AcDbLine
 10
241621.7110165307
 20
4251726.485729304
 30
1756.941040039062
 11
241622.0283205979
 21
4251730.846989212
 31
1756.931030273438
  0
POINT
  5
1BE
330
1F
100
AcDbEntity
  8
ATOCAGi3NOLUGALERI
370
     0
100
AcDbPoint
 10
241607.000170992
 20
4251725.65693255
 30
1761.400024414062
  0
POINT
  5
1BF
330
1F
100
AcDbEntity
  8
ATOCAGi3NOLUGALERI
370
     0
100
AcDbPoint
 10
241609.6904540338
 20
4251724.208318605
 30
1760.199951171875
  0
POINT
  5
1C0
330
1F
100
AcDbEntity
  8
ATOCAGi3NOLUGALERI
370
     0
100
AcDbPoint
 10
241609.9350252195
 20
4251726.936227983
 30
1761.030029296875
  0
POINT
  5
1C1
330
1F
100
AcDbEntity
  8
ATOCAGi3NOLUGALERI
370
     0
100
AcDbPoint
 10
241611.6156682386
 20
4251723.421301072
 30
1760.099975585938
  0
POINT
  5
1C2
330
1F
100
AcDbEntity
  8
ATOCAGi3NOLUGALERI
370
     0
100
AcDbPoint
 10
241611.4902471178
 20
4251725.961078769
 30
1759.900024414062
  0
LINE
  5
1C3
330
1F
100
AcDbEntity
  8
ATOCAGi3NOLUGALERI
370
     0
100
AcDbLine
 10
241611.6156682386
 20
4251723.421301072
 30
1760.099975585938
 11
241609.6904540338
 21
4251724.208318605
 31
1760.199951171875
  0
LINE
  5
1C4
330
1F
100
AcDbEntity
  8
ATOCAGi3NOLUGALERI
370
     0
100
AcDbLine
 10
241609.9350252195
 20
4251726.936227983
 30
1761.030029296875
 11
241611.4902471178
 21
4251725.961078769
 31
1759.900024414062
  0
POINT
  5
1C5
330
1F
100
AcDbEntity
  8
ATOCAGi3NOLUGALERI
370
     0
100
AcDbPoint
 10
241623.1937180028
 20
4251732.476049163
 30
1757.050048828125
  0
POINT
  5
1C6
330
1F
100
AcDbEntity
  8
ATOCAGi3NOLUGALERI
370
     0
100
AcDbPoint
 10
241626.2555186497
 20
4251736.442794449
 30
1757.180053710938
  0
POINT
  5
1C7
330
1F
100
AcDbEntity
  8
ATOCAGi3NOLUGALERI
370
     0
100
AcDbPoint
 10
241631.480655254
 20
4251742.140281908
 30
1757.219970703125
  0
POINT
  5
1C8
330
1F
100
AcDbEntity
  8
ATOCAGi3NOLUGALERI
370
     0
100
AcDbPoint
 10
241629.1063768433
 20
4251744.708467633
 30
1757.5
  0
POINT
  5
1C9
330
1F
100
AcDbEntity
  8
ATOCAGi3NOLUGALERI
370
     0
100
AcDbPoint
 10
241625.2139762246
 20
4251741.325501591
 30
1756.965087890625
  0
LINE
  5
1CA
330
1F
100
AcDbEntity
  8
ATOCAGi3NOLUGALERI
370
     0
100
AcDbLine
 10
241622.0283205979
 20
4251730.846989212
 30
1756.931030273438
 11
241623.1937180028
 21
4251732.476049163
 31
1757.050048828125
  0
LINE
  5
1CB
330
1F
100
AcDbEntity
  8
ATOCAGi3NOLUGALERI
370
     0
100
AcDbLine
 10
241623.1937180028
 20
4251732.476049163
 30
1757.050048828125
 11
241626.2555186497
 21
4251736.442794449
 31
1757.180053710938
  0
POINT
  5
1CC
330
1F
100
AcDbEntity
  8
ATOCAGi3NOLUGALERI
370
     0
100
AcDbPoint
 10
241628.0538739283
 20
4251739.121739929
 30
1757.076049804688
  0
LINE
  5
1CD
330
1F
100
AcDbEntity
  8
ATOCAGi3NOLUGALERI
370
     0
100
AcDbLine
 10
241626.2555186497
 20
4251736.442794449
 30
1757.180053710938
 11
241628.0538739283
 21
4251739.121739929
 31
1757.076049804688
  0
LINE
  5
1CE
330
1F
100
AcDbEntity
  8
ATOCAGi3NOLUGALERI
370
     0
100
AcDbLine
 10
241628.0538739283
 20
4251739.121739929
 30
1757.076049804688
 11
241631.480655254
 21
4251742.140281908
 31
1757.219970703125
  0
LINE
  5
1CF
330
1F
100
AcDbEntity
  8
ATOCAGi3NOLUGALERI
370
     0
100
AcDbLine
 10
241629.1063768433
 20
4251744.708467633
 30
1757.5
 11
241625.2139762246
 21
4251741.325501591
 31
1756.965087890625
  0
LINE
  5
1D0
330
1F
100
AcDbEntity
  8
ATOCAGi3NOLUGALERI
370
     0
100
AcDbLine
 10
241612.1874141129
 20
4251725.782062702
 30
1757.31103515625
 11
241611.4902471178
 21
4251725.961078769
 31
1759.900024414062
  0
INSERT
  5
1F6
330
1F
100
AcDbEntity
  8
0
370
     0
100
AcDbBlockReference
  2
0
 10
241470.8096960998
 20
4251524.695808219
 30
0.0
  0
POINT
  5
1F7
330
1F
100
AcDbEntity
  8
ATOCAGi3NOLUGALERI
370
     0
100
AcDbPoint
 10
241616.2762465438
 20
4251722.830319228
 30
1756.699951171875
  0
POINT
  5
1F8
330
1F
100
AcDbEntity
  8
ATOCAGi3NOLUGALERI
370
     0
100
AcDbPoint
 10
241616.1598230881
 20
4251725.59387095
 30
1756.699951171875
  0
LINE
  5
1F9
330
1F
100
AcDbEntity
  8
ATOCAGi3NOLUGALERI
370
     0
100
AcDbLine
 10
241618.1769774875
 20
4251725.592629679
 30
1756.781005859375
 11
241617.8181873887
 21
4251724.831401304
 31
1756.567016601562
  0
LINE
  5
1FA
330
1F
100
AcDbEntity
  8
ATOCAGi3NOLUGALERI
370
     0
100
AcDbLine
 10
241617.8181873887
 20
4251724.831401304
 30
1756.567016601562
 11
241616.1598230881
 21
4251725.59387095
 31
1756.699951171875
  0
LINE
  5
1FB
330
1F
100
AcDbEntity
  8
ATOCAGi3NOLUGALERI
370
     0
100
AcDbLine
 10
241616.1598230881
 20
4251725.59387095
 30
1756.699951171875
 11
241612.1874141129
 21
4251725.782062702
 31
1757.31103515625
  0
LINE
  5
1FC
330
1F
100
AcDbEntity
  8
ATOCAGi3NOLUGALERI
370
     0
100
AcDbLine
 10
241617.397932791
 20
4251721.768284375
 30
1756.777954101562
 11
241617.2348279968
 21
4251722.002366409
 31
1756.51708984375
  0
LINE
  5
1FD
330
1F
100
AcDbEntity
  8
ATOCAGi3NOLUGALERI
370
     0
100
AcDbLine
 10
241617.2348279968
 20
4251722.002366409
 30
1756.51708984375
 11
241616.2762465438
 21
4251722.830319228
 31
1756.699951171875
  0
LINE
  5
1FE
330
1F
100
AcDbEntity
  8
ATOCAGi3NOLUGALERI
370
     0
100
AcDbLine
 10
241616.2762465438
 20
4251722.830319228
 30
1756.699951171875
 11
241612.6221077438
 21
4251723.349234313
 31
1757.02099609375
  0
LINE
  5
1FF
330
1F
100
AcDbEntity
  8
ATOCAGi3NOLUGALERI
370
     0
100
AcDbLine
 10
241612.6221077438
 20
4251723.349234313
 30
1757.02099609375
 11
241611.6156682386
 21
4251723.421301072
 31
1760.099975585938
  0
POINT
  5
203
330
1F
100
AcDbEntity
  8
ATOCAGi3NOLUGALERI
370
     0
100
AcDbPoint
 10
241621.8015926524
 20
4251737.341647422
 30
1756.900024414062
  0
POINT
  5
204
330
1F
100
AcDbEntity
  8
ATOCAGi3NOLUGALERI
370
     0
100
AcDbPoint
 10
241631.120449403
 20
4251744.141056738
 30
1757.5
  0
LINE
  5
205
330
1F
100
AcDbEntity
  8
ATOCAGi3NOLUGALERI
370
     0
100
AcDbLine
 10
241618.6633113174
 20
4251731.63894316
 30
1756.98095703125
 11
241621.8015926524
 21
4251737.341647422
 31
1756.900024414062
  0
LINE
  5
206
330
1F
100
AcDbEntity
  8
ATOCAGi3NOLUGALERI
370
     0
100
AcDbLine
 10
241621.8015926524
 20
4251737.341647422
 30
1756.900024414062
 11
241625.2139762246
 21
4251741.325501591
 31
1756.965087890625
  0
LINE
  5
207
330
1F
100
AcDbEntity
  8
ATOCAGi3NOLUGALERI
370
     0
100
AcDbLine
 10
241629.1063768433
 20
4251744.708467633
 30
1757.5
 11
241631.120449403
 21
4251744.141056738
 31
1757.5
  0
LINE
  5
208
330
1F
100
AcDbEntity
  8
ATOCAGi3NOLUGALERI
370
     0
100
AcDbLine
 10
241631.120449403
 20
4251744.141056738
 30
1757.5
 11
241631.480655254
 21
4251742.140281908
 31
1757.219970703125
  0
POINT
  5
209
330
1F
100
AcDbEntity
  8
ATOCAGi3NOLUGALERI
370
     0
100
AcDbPoint
 10
241607.4448215182
 20
4251726.806271073
 30
1761.400024414062
  0
POINT
  5
20A
330
1F
100
AcDbEntity
  8
ATOCAGi3NOLUGALERI
370
     0
100
AcDbPoint
 10
241606.7324556049
 20
4251724.858258112
 30
1761.400024414062
  0
LINE
  5
20B
330
1F
100
AcDbEntity
  8
ATOCAGi3NOLUGALERI
370
     0
100
AcDbLine
 10
241609.9350252195
 20
4251726.936227983
 30
1761.030029296875
 11
241607.4448215182
 21
4251726.806271073
 31
1761.400024414062
  0
LINE
  5
20C
330
1F
100
AcDbEntity
  8
ATOCAGi3NOLUGALERI
370
     0
100
AcDbLine
 10
241607.4448215182
 20
4251726.806271073
 30
1761.400024414062
 11
241607.000170992
 21
4251725.65693255
 31
1761.400024414062
  0
LINE
  5
20D
330
1F
100
AcDbEntity
  8
ATOCAGi3NOLUGALERI
370
     0
100
AcDbLine
 10
241607.000170992
 20
4251725.65693255
 30
1761.400024414062
 11
241606.7324556049
 21
4251724.858258112
 31
1761.400024414062
  0
LINE
  5
20E
330
1F
100
AcDbEntity
  8
ATOCAGi3NOLUGALERI
370
     0
100
AcDbLine
 10
241606.7324556049
 20
4251724.858258112
 30
1761.400024414062
 11
241609.6904540338
 21
4251724.208318605
 31
1760.199951171875
  0
POINT
  5
387
330
1F
100
AcDbEntity
  8
INIT_COORD
100
AcDbPoint
 10
241469.4068395784
 20
4251525.425450465
 30
1754.656982421875
  0
LINE
  5
3A8
330
1F
100
AcDbEntity
  8
GEOFENCE
100
AcDbLine
 10
241469.4068395784
 20
4251525.425450465
 30
1754.656982421875
 11
241474.418902709
 21
4251534.078724818
 31
1754.665114398879
  0
LINE
  5
3AA
330
1F
100
AcDbEntity
  8
GEOFENCE
100
AcDbLine
 10
241474.418902709
 20
4251534.078724818
 30
1754.665114398879
 11
241489.3892799694
 21
4251554.100906916
 31
1754.67047394679
  0
LINE
  5
3AB
330
1F
100
AcDbEntity
  8
GEOFENCE
100
AcDbLine
 10
241489.3892799694
 20
4251554.100906916
 30
1754.67047394679
 11
241494.5327159134
 21
4251562.675135124
 31
1754.504108916761
  0
LINE
  5
3AC
330
1F
100
AcDbEntity
  8
GEOFENCE
100
AcDbLine
 10
241494.5327159134
 20
4251562.675135124
 30
1754.504108916761
 11
241504.8844846495
 21
4251573.515289953
 31
1755.080240258241
  0
LINE
  5
3AD
330
1F
100
AcDbEntity
  8
GEOFENCE
100
AcDbLine
 10
241504.8844846495
 20
4251573.515289953
 30
1755.080240258241
 11
241513.5947368633
 21
4251585.726950753
 31
1755.162986032852
  0
LINE
  5
3AE
330
1F
100
AcDbEntity
  8
GEOFENCE
100
AcDbLine
 10
241513.5947368633
 20
4251585.726950753
 30
1755.162986032852
 11
241522.9180386309
 21
4251597.476761335
 31
1755.028838904552
  0
LINE
  5
3AF
330
1F
100
AcDbEntity
  8
GEOFENCE
100
AcDbLine
 10
241522.9180386309
 20
4251597.476761335
 30
1755.028838904552
 11
241529.5158463778
 21
4251589.962544395
 31
1754.95483408201
  0
LINE
  5
3B0
330
1F
100
AcDbEntity
  8
GEOFENCE
100
AcDbLine
 10
241522.9180386309
 20
4251597.476761335
 30
1755.028838904552
 11
241534.5972901153
 21
4251613.710978489
 31
1754.816052337776
  0
LINE
  5
3B1
330
1F
100
AcDbEntity
  8
GEOFENCE
100
AcDbLine
 10
241534.5972901153
 20
4251613.710978489
 30
1754.816052337776
 11
241545.4859053602
 21
4251630.487094131
 31
1754.81747149087
  0
LINE
  5
3B7
330
1F
100
AcDbEntity
  8
GEOFENCE
100
AcDbLine
 10
241545.4859053602
 20
4251630.487094131
 30
1754.81747149087
 11
241558.4979626944
 21
4251648.209319221
 31
1755.597921225433
  0
LINE
  5
3B9
330
1F
100
AcDbEntity
  8
GEOFENCE
100
AcDbLine
 10
241558.4979626944
 20
4251648.209319221
 30
1755.597921225433
 11
241566.3435108588
 21
4251640.499502333
 31
1755.519834343151
  0
LINE
  5
3BA
330
1F
100
AcDbEntity
  8
GEOFENCE
100
AcDbLine
 10
241566.3435108588
 20
4251640.499502333
 30
1755.519834343151
 11
241571.2191041789
 21
4251641.607867225
 31
1755.509015697603
  0
LINE
  5
3BD
330
1F
100
AcDbEntity
  8
GEOFENCE
100
AcDbLine
 10
241558.4979626944
 20
4251648.209319221
 30
1755.597921225433
 11
241564.7127285922
 21
4251656.041160479
 31
1755.795272023536
  0
LINE
  5
3BE
330
1F
100
AcDbEntity
  8
GEOFENCE
100
AcDbLine
 10
241564.7127285922
 20
4251656.041160479
 30
1755.795272023536
 11
241572.8766711717
 21
4251668.622132068
 31
1756.058322308737
  0
LINE
  5
3BF
330
1F
100
AcDbEntity
  8
GEOFENCE
100
AcDbLine
 10
241572.8766711717
 20
4251668.622132068
 30
1756.058322308737
 11
241582.5487646373
 21
4251680.086493446
 31
1756.196257717844
  0
LINE
  5
3C0
330
1F
100
AcDbEntity
  8
GEOFENCE
100
AcDbLine
 10
241582.5487646373
 20
4251680.086493446
 30
1756.196257717844
 11
241588.6782011521
 21
4251687.987744693
 31
1756.211644307549
  0
LINE
  5
3C1
330
1F
100
AcDbEntity
  8
GEOFENCE
100
AcDbLine
 10
241588.6782011521
 20
4251687.987744693
 30
1756.211644307549
 11
241597.9305343978
 21
4251699.7917484
 31
1756.456237833905
  0
LINE
  5
3C2
330
1F
100
AcDbEntity
  8
GEOFENCE
100
AcDbLine
 10
241597.9305343978
 20
4251699.7917484
 30
1756.456237833905
 11
241606.6987085904
 21
4251704.597329975
 31
1756.615947100501
  0
LINE
  5
3C3
330
1F
100
AcDbEntity
  8
GEOFENCE
100
AcDbLine
 10
241606.6987085904
 20
4251704.597329975
 30
1756.615947100501
 11
241613.2871659931
 21
4251712.119896757
 31
1756.672674975701
  0
LINE
  5
3C6
330
1F
100
AcDbEntity
  8
GEOFENCE
100
AcDbLine
 10
241613.2871659931
 20
4251712.119896757
 30
1756.672674975701
 11
241619.7440647822
 21
4251722.232818967
 31
1756.865709739003
  0
LINE
  5
3CA
330
1F
100
AcDbEntity
  8
GEOFENCE
100
AcDbLine
 10
241619.7440647822
 20
4251722.232818967
 30
1756.865709739003
 11
241620.4104064226
 21
4251732.210092836
 31
1756.965684501618
  0
LINE
  5
3CC
330
1F
100
AcDbEntity
  8
GEOFENCE
100
AcDbLine
 10
241620.4104064226
 20
4251732.210092836
 30
1756.965684501618
 11
241629.6756761654
 21
4251744.004981023
 31
1757.153804793964
  0
LINE
  5
3D1
330
1F
100
AcDbEntity
  8
GEOFENCE
100
AcDbLine
 10
241619.7440647822
 20
4251722.232818967
 30
1756.865709739003
 11
241612.1257275486
 21
4251724.654340477
 31
1757.177432970296
  0
LINE
  5
3DA
330
1F
100
AcDbEntity
  8
GEOFENCE
100
AcDbLine
 10
241480.8096960998
 20
4251509.695808219
 30
1754.6669921875
 11
241485.8096960998
 21
4251509.695808219
 31
1754.6669921875
  0
LINE
  5
3E7
330
1F
100
AcDbEntity
  8
ATOCAGi3NOLUGALERI
100
AcDbLine
 10
241896.273
 20
4251007.592
 30
1754.667
 11
241906.273
 21
4251007.592
 31
1754.667
  0
LINE
  5
3E8
330
1F
100
AcDbEntity
  8
ATOCAGi3NOLUGALERI
100
AcDbLine
 10
241906.273
 20
4251007.592
 30
1754.667
 11
241906.273
 21
4251017.592
 31
1754.667
  0
LINE
  5
3E9
330
1F
100
AcDbEntity
  8
ATOCAGi3NOLUGALERI
100
AcDbLine
 10
241906.273
 20
4251017.592
 30
1754.667
 11
241896.273
 21
4251017.592000001
 31
1754.667
  0
LINE
  5
3EA
330
1F
100
AcDbEntity
  8
ATOCAGi3NOLUGALERI
100
AcDbLine
 10
241896.273
 20
4251017.592000001
 30
1754.667
 11
241896.273
 21
4251007.592
 31
1754.667
  0
LINE
  5
3ED
330
1F
100
AcDbEntity
  8
GEOFENCE
100
AcDbLine
 10
241898.773
 20
4251012.592
 30
1754.667
 11
241903.773
 21
4251012.592
 31
1754.667
  0
ENDSEC
  0
SECTION
  2
OBJECTS
  0
DICTIONARY
  5
C
330
0
100
AcDbDictionary
281
     1
  3
ACAD_BACKGROUND
350
23B
  3
ACAD_COLOR
350
234
  3
ACAD_DETAILVIEWSTYLE
350
37A
  3
ACAD_GROUP
350
D
  3
ACAD_IMAGE_VARS
350
378
  3
ACAD_LAYOUT
350
1A
  3
ACAD_MATERIAL
350
3B
  3
ACAD_MLEADERSTYLE
350
232
  3
ACAD_MLINESTYLE
350
17
  3
ACAD_PLOTSETTINGS
350
19
  3
ACAD_PLOTSTYLENAME
350
E
  3
ACAD_SCALELIST
350
1D4
  3
ACAD_SECTIONVIEWSTYLE
350
37B
  3
ACAD_TABLESTYLE
350
231
  3
ACAD_VISUALSTYLE
350
2A
  3
AcDbVariableDictionary
350
20F
  3
ACDB_RECOMPOSE_DATA
350
3F0
  3
APPDATA
350
376
  0
SUN
  5
377
330
29
100
AcDbSun
 90
        1
290
     0
 63
     7
421
 16777215
 40
1.0
291
     1
 91
  2455826
 92
 54000000
292
     0
 70
     2
 71
   256
280
     1
  0
DICTIONARY
  5
37C
330
2
100
AcDbDictionary
280
     1
281
     1
  3
ACAD_LAYERSTATES
360
37D
  3
ACLYDICTIONARY
360
3E0
  0
DICTIONARY
  5
23E
330
10
100
AcDbDictionary
280
     1
281
     1
  3
ADSK_XREC_LAYER_RECONCILED
360
23F
  0
DICTIONARY
  5
2FE
330
9E
100
AcDbDictionary
280
     1
281
     1
  3
ADSK_XREC_LAYER_RECONCILED
360
2FF
  0
DICTIONARY
  5
304
330
A1
100
AcDbDictionary
280
     1
281
     1
  3
ADSK_XREC_LAYER_RECONCILED
360
305
  0
DICTIONARY
  5
30E
330
A6
100
AcDbDictionary
280
     1
281
     1
  3
ADSK_XREC_LAYER_RECONCILED
360
30F
  0
DICTIONARY
  5
314
330
A9
100
AcDbDictionary
280
     1
281
     1
  3
ADSK_XREC_LAYER_RECONCILED
360
315
  0
DICTIONARY
  5
31A
330
AC
100
AcDbDictionary
280
     1
281
     1
  3
ADSK_XREC_LAYER_RECONCILED
360
31B
  0
DICTIONARY
  5
23B
102
{ACAD_REACTORS
330
C
102
}
330
C
100
AcDbDictionary
281
     1
  0
DICTIONARY
  5
234
102
{ACAD_REACTORS
330
C
102
}
330
C
100
AcDbDictionary
281
     1
  0
DICTIONARY
  5
37A
102
{ACAD_REACTORS
330
C
102
}
330
C
100
AcDbDictionary
281
     1
  0
DICTIONARY
  5
D
102
{ACAD_REACTORS
330
C
102
}
330
C
100
AcDbDictionary
281
     1
  0
RASTERVARIABLES
  5
378
102
{ACAD_REACTORS
330
C
102
}
330
C
100
AcDbRasterVariables
 90
        0
 70
     1
 71
     1
 72
     1
  0
DICTIONARY
  5
1A
102
{ACAD_REACTORS
330
C
102
}
330
C
100
AcDbDictionary
281
     1
  3
Layout1
350
1E
  3
Layout2
350
26
  3
Model
350
22
  0
DICTIONARY
  5
3B
102
{ACAD_REACTORS
330
C
102
}
330
C
100
AcDbDictionary
281
     1
  3
ByBlock
350
3D
  3
ByLayer
350
3C
  3
Global
350
3E
  0
DICTIONARY
  5
232
102
{ACAD_REACTORS
330
C
102
}
330
C
100
AcDbDictionary
281
     1
  3
Standard
350
236
  0
DICTIONARY
  5
17
102
{ACAD_REACTORS
330
C
102
}
330
C
100
AcDbDictionary
281
     1
  3
Standard
350
18
  0
DICTIONARY
  5
19
102
{ACAD_REACTORS
330
C
102
}
330
C
100
AcDbDictionary
281
     1
  0
ACDBDICTIONARYWDFLT
  5
E
102
{ACAD_REACTORS
330
C
102
}
330
C
100
AcDbDictionary
281
     1
  3
Normal
350
F
100
AcDbDictionaryWithDefault
340
F
  0
DICTIONARY
  5
1D4
102
{ACAD_REACTORS
330
C
102
}
330
C
100
AcDbDictionary
281
     1
  3
A0
350
1D5
  3
A1
350
1D6
  3
A2
350
1D7
  3
A3
350
1D8
  3
A4
350
1D9
  3
A5
350
1DA
  3
A6
350
1DB
  3
A7
350
1DC
  3
A8
350
1DD
  3
A9
350
1DE
  3
B0
350
1DF
  3
B1
350
1E0
  3
B2
350
1E1
  3
B3
350
1E2
  3
B4
350
1E3
  3
B5
350
1E4
  3
B6
350
1E5
  3
B7
350
1E6
  3
B8
350
1E7
  3
B9
350
1E8
  3
C0
350
1E9
  3
C1
350
1EA
  3
C2
350
1EB
  3
C3
350
1EC
  3
C4
350
1ED
  3
C5
350
1EE
  3
C6
350
1EF
  3
C7
350
1F0
  3
C8
350
1F1
  3
C9
350
1F2
  3
D0
350
1F3
  3
D1
350
1F4
  3
D2
350
1F5
  0
DICTIONARY
  5
37B
102
{ACAD_REACTORS
330
C
102
}
330
C
100
AcDbDictionary
281
     1
  0
DICTIONARY
  5
231
102
{ACAD_REACTORS
330
C
102
}
330
C
100
AcDbDictionary
281
     1
  3
Standard
350
235
  0
DICTIONARY
  5
2A
102
{ACAD_REACTORS
330
C
102
}
330
C
100
AcDbDictionary
281
     1
  3
2dWireframe
350
2F
  3
3D Hidden
350
31
  3
3dWireframe
350
30
  3
Basic
350
32
  3
Brighten
350
36
  3
ColorChange
350
3A
  3
Conceptual
350
34
  3
Dim
350
35
  3
EdgeColorOff
350
370
  3
Facepattern
350
39
  3
Flat
350
2B
  3
FlatWithEdges
350
2C
  3
Gouraud
350
2D
  3
GouraudWithEdges
350
2E
  3
Hidden
350
36D
  3
JitterOff
350
36E
  3
Linepattern
350
38
  3
OverhangOff
350
36F
  3
Realistic
350
33
  3
Shaded
350
375
  3
Shaded with edges
350
374
  3
Shades of Gray
350
371
  3
Sketchy
350
372
  3
Thicken
350
37
  3
Wireframe
350
36C
  3
X-Ray
350
373
  0
DICTIONARY
  5
20F
102
{ACAD_REACTORS
330
C
102
}
330
C
100
AcDbDictionary
281
     1
  3
CANNOSCALE
350
210
  3
CMLEADERSTYLE
350
364
  3
CTABLESTYLE
350
363
  3
XCLIPFRAME
350
379
  0
XRECORD
  5
3F0
102
{ACAD_REACTORS
330
C
102
}
330
C
100
AcDbXrecord
280
     1
 90
        1
330
235
  0
DICTIONARY
  5
376
102
{ACAD_REACTORS
330
C
102
}
330
C
100
AcDbDictionary
281
     1
  0
DICTIONARY
  5
37D
102
{ACAD_REACTORS
330
37C
102
}
330
37C
100
AcDbDictionary
281
     1
  0
DICTIONARY
  5
3E0
102
{ACAD_REACTORS
330
37C
102
}
330
37C
100
AcDbDictionary
281
     1
1001
ACAD
1000
<All
  0
XRECORD
  5
23F
102
{ACAD_REACTORS
330
23E
102
}
330
23E
100
AcDbXrecord
280
     1
290
     1
  0
XRECORD
  5
2FF
102
{ACAD_REACTORS
330
2FE
102
}
330
2FE
100
AcDbXrecord
280
     1
290
     1
  0
XRECORD
  5
305
102
{ACAD_REACTORS
330
304
102
}
330
304
100
AcDbXrecord
280
     1
290
     1
  0
XRECORD
  5
30F
102
{ACAD_REACTORS
330
30E
102
}
330
30E
100
AcDbXrecord
280
     1
290
     1
  0
XRECORD
  5
315
102
{ACAD_REACTORS
330
314
102
}
330
314
100
AcDbXrecord
280
     1
290
     1
  0
XRECORD
  5
31B
102
{ACAD_REACTORS
330
31A
102
}
330
31A
100
AcDbXrecord
280
     1
290
     1
  0
LAYOUT
  5
1E
102
{ACAD_REACTORS
330
1A
102
}
330
1A
100
AcDbPlotSettings
  1

  2
none_device
  4

  6

 40
0.0
 41
0.0
 42
0.0
 43
0.0
 44
0.0
 45
0.0
 46
0.0
 47
0.0
 48
0.0
 49
0.0
140
0.0
141
0.0
142
1.0
143
1.0
 70
   688
 72
     0
 73
     0
 74
     5
  7

 75
    16
 76
     0
 77
     2
 78
   300
147
1.0
148
0.0
149
0.0
100
AcDbLayout
  1
Layout1
 70
     1
 71
     1
 10
0.0
 20
0.0
 11
420.0
 21
297.0
 12
0.0
 22
0.0
 32
0.0
 14
1.000000000000000E+20
 24
1.000000000000000E+20
 34
1.000000000000000E+20
 15
-1.000000000000000E+20
 25
-1.000000000000000E+20
 35
-1.000000000000000E+20
146
0.0
 13
0.0
 23
0.0
 33
0.0
 16
1.0
 26
0.0
 36
0.0
 17
0.0
 27
1.0
 37
0.0
 76
     0
330
1B
  0
LAYOUT
  5
26
102
{ACAD_REACTORS
330
1A
102
}
330
1A
100
AcDbPlotSettings
  1

  2
none_device
  4

  6

 40
0.0
 41
0.0
 42
0.0
 43
0.0
 44
0.0
 45
0.0
 46
0.0
 47
0.0
 48
0.0
 49
0.0
140
0.0
141
0.0
142
1.0
143
1.0
 70
   688
 72
     0
 73
     0
 74
     5
  7

 75
    16
 76
     0
 77
     2
 78
   300
147
1.0
148
0.0
149
0.0
100
AcDbLayout
  1
Layout2
 70
     1
 71
     2
 10
0.0
 20
0.0
 11
0.0
 21
0.0
 12
0.0
 22
0.0
 32
0.0
 14
0.0
 24
0.0
 34
0.0
 15
0.0
 25
0.0
 35
0.0
146
0.0
 13
0.0
 23
0.0
 33
0.0
 16
1.0
 26
0.0
 36
0.0
 17
0.0
 27
1.0
 37
0.0
 76
     0
330
23
  0
LAYOUT
  5
22
102
{ACAD_REACTORS
330
1A
102
}
330
1A
100
AcDbPlotSettings
  1

  2
none_device
  4

  6

 40
0.0
 41
0.0
 42
0.0
 43
0.0
 44
0.0
 45
0.0
 46
0.0
 47
0.0
 48
0.0
 49
0.0
140
0.0
141
0.0
142
1.0
143
1.0
 70
  1712
 72
     0
 73
     0
 74
     0
  7

 75
     0
 76
     0
 77
     2
 78
   300
147
1.0
148
0.0
149
0.0
100
AcDbLayout
  1
Model
 70
     1
 71
     0
 10
0.0
 20
0.0
 11
420.0
 21
297.0
 12
0.0
 22
0.0
 32
0.0
 14
241468.0039830569
 24
4251007.592
 34
1754.496948242188
 15
241906.273
 25
4251744.708467633
 35
1761.400024414062
146
0.0
 13
0.0
 23
0.0
 33
0.0
 16
1.0
 26
0.0
 36
0.0
 17
0.0
 27
1.0
 37
0.0
 76
     0
330
1F
331
29
  0
MATERIAL
  5
3D
102
{ACAD_REACTORS
330
3B
102
}
330
3B
100
AcDbMaterial
  1
ByBlock
 72
     1
 94
      127
  0
MATERIAL
  5
3C
102
{ACAD_REACTORS
330
3B
102
}
330
3B
100
AcDbMaterial
  1
ByLayer
 72
     1
 94
      127
  0
MATERIAL
  5
3E
102
{ACAD_REACTORS
330
3B
102
}
330
3B
100
AcDbMaterial
  1
Global
 72
     1
 94
      127
  0
MLEADERSTYLE
  5
236
102
{ACAD_REACTORS
330
232
102
}
330
232
100
AcDbMLeaderStyle
179
     2
170
     2
171
     1
172
     0
 90
        2
 40
0.0
 41
0.0
173
     1
 91
-1056964608
340
14
 92
       -2
290
     1
 42
2.0
291
     1
 43
0.36
  3
Standard
341
0
 44
4.0
300

342
11
174
     1
178
     6
175
     1
176
     0
 93
-1056964608
 45
4.0
292
     0
297
     0
 46
4.0
343
0
 94
-1056964608
 47
1.0
 49
1.0
140
1.0
293
     1
141
0.0
294
     1
177
     0
142
1.0
295
     1
296
     0
143
0.125
271
     0
272
     9
273
     9
  0
MLINESTYLE
  5
18
102
{ACAD_REACTORS
330
17
102
}
330
17
100
AcDbMlineStyle
  2
STANDARD
 70
     0
  3

 62
   256
 51
90.0
 52
90.0
 71
     2
 49
0.5
 62
   256
  6
BYLAYER
 49
-0.5
 62
   256
  6
BYLAYER
  0
ACDBPLACEHOLDER
  5
F
102
{ACAD_REACTORS
330
E
102
}
330
E
  0
SCALE
  5
1D5
102
{ACAD_REACTORS
330
1D4
102
}
330
1D4
100
AcDbScale
 70
     0
300
1:1
140
1.0
141
1.0
290
     1
  0
SCALE
  5
1D6
102
{ACAD_REACTORS
330
1D4
102
}
330
1D4
100
AcDbScale
 70
     0
300
1:2
140
1.0
141
2.0
290
     0
  0
SCALE
  5
1D7
102
{ACAD_REACTORS
330
1D4
102
}
330
1D4
100
AcDbScale
 70
     0
300
1:4
140
1.0
141
4.0
290
     0
  0
SCALE
  5
1D8
102
{ACAD_REACTORS
330
1D4
102
}
330
1D4
100
AcDbScale
 70
     0
300
1:5
140
1.0
141
5.0
290
     0
  0
SCALE
  5
1D9
102
{ACAD_REACTORS
330
1D4
102
}
330
1D4
100
AcDbScale
 70
     0
300
1:8
140
1.0
141
8.0
290
     0
  0
SCALE
  5
1DA
102
{ACAD_REACTORS
330
1D4
102
}
330
1D4
100
AcDbScale
 70
     0
300
1:10
140
1.0
141
10.0
290
     0
  0
SCALE
  5
1DB
102
{ACAD_REACTORS
330
1D4
102
}
330
1D4
100
AcDbScale
 70
     0
300
1:16
140
1.0
141
16.0
290
     0
  0
SCALE
  5
1DC
102
{ACAD_REACTORS
330
1D4
102
}
330
1D4
100
AcDbScale
 70
     0
300
1:20
140
1.0
141
20.0
290
     0
  0
SCALE
  5
1DD
102
{ACAD_REACTORS
330
1D4
102
}
330
1D4
100
AcDbScale
 70
     0
300
1:30
140
1.0
141
30.0
290
     0
  0
SCALE
  5
1DE
102
{ACAD_REACTORS
330
1D4
102
}
330
1D4
100
AcDbScale
 70
     0
300
1:40
140
1.0
141
40.0
290
     0
  0
SCALE
  5
1DF
102
{ACAD_REACTORS
330
1D4
102
}
330
1D4
100
AcDbScale
 70
     0
300
1:50
140
1.0
141
50.0
290
     0
  0
SCALE
  5
1E0
102
{ACAD_REACTORS
330
1D4
102
}
330
1D4
100
AcDbScale
 70
     0
300
1:100
140
1.0
141
100.0
290
     0
  0
SCALE
  5
1E1
102
{ACAD_REACTORS
330
1D4
102
}
330
1D4
100
AcDbScale
 70
     0
300
2:1
140
2.0
141
1.0
290
     0
  0
SCALE
  5
1E2
102
{ACAD_REACTORS
330
1D4
102
}
330
1D4
100
AcDbScale
 70
     0
300
4:1
140
4.0
141
1.0
290
     0
  0
SCALE
  5
1E3
102
{ACAD_REACTORS
330
1D4
102
}
330
1D4
100
AcDbScale
 70
     0
300
8:1
140
8.0
141
1.0
290
     0
  0
SCALE
  5
1E4
102
{ACAD_REACTORS
330
1D4
102
}
330
1D4
100
AcDbScale
 70
     0
300
10:1
140
10.0
141
1.0
290
     0
  0
SCALE
  5
1E5
102
{ACAD_REACTORS
330
1D4
102
}
330
1D4
100
AcDbScale
 70
     0
300
100:1
140
100.0
141
1.0
290
     0
  0
SCALE
  5
1E6
102
{ACAD_REACTORS
330
1D4
102
}
330
1D4
100
AcDbScale
 70
     0
300
1/128" = 1'-0"
140
0.0078125
141
12.0
290
     0
  0
SCALE
  5
1E7
102
{ACAD_REACTORS
330
1D4
102
}
330
1D4
100
AcDbScale
 70
     0
300
1/64" = 1'-0"
140
0.015625
141
12.0
290
     0
  0
SCALE
  5
1E8
102
{ACAD_REACTORS
330
1D4
102
}
330
1D4
100
AcDbScale
 70
     0
300
1/32" = 1'-0"
140
0.03125
141
12.0
290
     0
  0
SCALE
  5
1E9
102
{ACAD_REACTORS
330
1D4
102
}
330
1D4
100
AcDbScale
 70
     0
300
1/16" = 1'-0"
140
0.0625
141
12.0
290
     0
  0
SCALE
  5
1EA
102
{ACAD_REACTORS
330
1D4
102
}
330
1D4
100
AcDbScale
 70
     0
300
3/32" = 1'-0"
140
0.09375
141
12.0
290
     0
  0
SCALE
  5
1EB
102
{ACAD_REACTORS
330
1D4
102
}
330
1D4
100
AcDbScale
 70
     0
300
1/8" = 1'-0"
140
0.125
141
12.0
290
     0
  0
SCALE
  5
1EC
102
{ACAD_REACTORS
330
1D4
102
}
330
1D4
100
AcDbScale
 70
     0
300
3/16" = 1'-0"
140
0.1875
141
12.0
290
     0
  0
SCALE
  5
1ED
102
{ACAD_REACTORS
330
1D4
102
}
330
1D4
100
AcDbScale
 70
     0
300
1/4" = 1'-0"
140
0.25
141
12.0
290
     0
  0
SCALE
  5
1EE
102
{ACAD_REACTORS
330
1D4
102
}
330
1D4
100
AcDbScale
 70
     0
300
3/8" = 1'-0"
140
0.375
141
12.0
290
     0
  0
SCALE
  5
1EF
102
{ACAD_REACTORS
330
1D4
102
}
330
1D4
100
AcDbScale
 70
     0
300
1/2" = 1'-0"
140
0.5
141
12.0
290
     0
  0
SCALE
  5
1F0
102
{ACAD_REACTORS
330
1D4
102
}
330
1D4
100
AcDbScale
 70
     0
300
3/4" = 1'-0"
140
0.75
141
12.0
290
     0
  0
SCALE
  5
1F1
102
{ACAD_REACTORS
330
1D4
102
}
330
1D4
100
AcDbScale
 70
     0
300
1" = 1'-0"
140
1.0
141
12.0
290
     0
  0
SCALE
  5
1F2
102
{ACAD_REACTORS
330
1D4
102
}
330
1D4
100
AcDbScale
 70
     0
300
1-1/2" = 1'-0"
140
1.5
141
12.0
290
     0
  0
SCALE
  5
1F3
102
{ACAD_REACTORS
330
1D4
102
}
330
1D4
100
AcDbScale
 70
     0
300
3" = 1'-0"
140
3.0
141
12.0
290
     0
  0
SCALE
  5
1F4
102
{ACAD_REACTORS
330
1D4
102
}
330
1D4
100
AcDbScale
 70
     0
300
6" = 1'-0"
140
6.0
141
12.0
290
     0
  0
SCALE
  5
1F5
102
{ACAD_REACTORS
330
1D4
102
}
330
1D4
100
AcDbScale
 70
     0
300
1'-0" = 1'-0"
140
12.0
141
12.0
290
     0
  0
TABLESTYLE
  5
235
102
{ACAD_REACTORS
330
231
102
}
102
{ACAD_XDICTIONARY
360
3EE
102
}
330
231
100
AcDbTableStyle
  3
Standard
 70
     0
 71
     0
 40
1.5
 41
1.5
280
     0
281
     0
  7
Standard
140
4.5
170
     2
 62
     0
 63
   257
283
     0
 90
      512
 91
        0
  1

274
    -2
284
     1
 64
     0
275
    -2
285
     1
 65
     0
276
    -2
286
     1
 66
     0
277
    -2
287
     1
 67
     0
278
    -2
288
     1
 68
     0
279
    -2
289
     1
 69
     0
  7
Standard
140
6.0
170
     5
 62
     0
 63
   257
283
     0
 90
      512
 91
        0
  1

274
    -2
284
     1
 64
     0
275
    -2
285
     1
 65
     0
276
    -2
286
     1
 66
     0
277
    -2
287
     1
 67
     0
278
    -2
288
     1
 68
     0
279
    -2
289
     1
 69
     0
  7
Standard
140
4.5
170
     5
 62
     0
 63
   257
283
     0
 90
      512
 91
        0
  1

274
    -2
284
     1
 64
     0
275
    -2
285
     1
 65
     0
276
    -2
286
     1
 66
     0
277
    -2
287
     1
 67
     0
278
    -2
288
     1
 68
     0
279
    -2
289
     1
 69
     0
  0
VISUALSTYLE
  5
2F
102
{ACAD_REACTORS
330
2A
102
}
330
2A
100
AcDbVisualStyle
  2
2dWireframe
 70
     4
177
     2
291
     0
 71
     0
176
     1
 72
     2
176
     1
 73
     0
176
     1
 90
        0
176
     1
 40
-0.6
176
     1
 41
-30.0
176
     1
 62
     5
 63
     7
421
 16777215
176
     1
 74
     1
176
     1
 91
        4
176
     1
 64
     7
176
     1
 65
   257
176
     1
 75
     1
176
     1
175
     1
176
     1
 42
1.0
176
     1
 92
        0
176
     1
 66
   257
176
     1
 43
1.0
176
     1
 76
     1
176
     1
 77
     6
176
     1
 78
     2
176
     1
 67
     7
176
     1
 79
     5
176
     1
170
     0
176
     1
171
     0
176
     1
290
     0
176
     1
 93
        1
176
     1
 44
0.0
176
     1
173
     0
176
     1
  0
VISUALSTYLE
  5
31
102
{ACAD_REACTORS
330
2A
102
}
330
2A
100
AcDbVisualStyle
  2
3D Hidden
 70
     6
177
     2
291
     0
 71
     1
176
     1
 72
     2
176
     1
 73
     2
176
     1
 90
        0
176
     1
 40
-0.6
176
     1
 41
-30.0
176
     1
 62
     5
 63
     7
421
 16777215
176
     1
 74
     2
176
     1
 91
        2
176
     1
 64
     7
176
     1
 65
   257
176
     1
 75
     2
176
     1
175
     1
176
     1
 42
40.0
176
     1
 92
        0
176
     1
 66
   257
176
     1
 43
1.0
176
     1
 76
     1
176
     1
 77
     6
176
     1
 78
     2
176
     1
 67
     7
176
     1
 79
     3
176
     1
170
     0
176
     1
171
     0
176
     1
290
     0
176
     1
 93
        1
176
     1
 44
0.0
176
     1
173
     0
176
     1
  0
VISUALSTYLE
  5
30
102
{ACAD_REACTORS
330
2A
102
}
330
2A
100
AcDbVisualStyle
  2
3dWireframe
 70
     5
177
     2
291
     0
 71
     0
176
     1
 72
     2
176
     1
 73
     0
176
     1
 90
        0
176
     1
 40
-0.6
176
     1
 41
-30.0
176
     1
 62
     5
 63
     7
421
 16777215
176
     1
 74
     1
176
     1
 91
        4
176
     1
 64
     7
176
     1
 65
   257
176
     1
 75
     1
176
     1
175
     1
176
     1
 42
1.0
176
     1
 92
        0
176
     1
 66
   257
176
     1
 43
1.0
176
     1
 76
     1
176
     1
 77
     6
176
     1
 78
     2
176
     1
 67
     7
176
     1
 79
     5
176
     1
170
     0
176
     1
171
     0
176
     1
290
     0
176
     1
 93
        1
176
     1
 44
0.0
176
     1
173
     0
176
     1
  0
VISUALSTYLE
  5
32
102
{ACAD_REACTORS
330
2A
102
}
330
2A
100
AcDbVisualStyle
  2
Basic
 70
     7
177
     2
291
     1
 71
     1
176
     1
 72
     0
176
     1
 73
     1
176
     1
 90
        0
176
     1
 40
-0.6
176
     1
 41
-30.0
176
     1
 62
     5
 63
     7
421
 16777215
176
     1
 74
     0
176
     1
 91
        4
176
     1
 64
     7
176
     1
 65
   257
176
     1
 75
     1
176
     1
175
     1
176
     1
 42
1.0
176
     1
 92
        8
176
     1
 66
     7
176
     1
 43
1.0
176
     1
 76
     1
176
     1
 77
     6
176
     1
 78
     2
176
     1
 67
     7
176
     1
 79
     5
176
     1
170
     0
176
     1
171
     0
176
     1
290
     0
176
     1
 93
        1
176
     1
 44
0.0
176
     1
173
     0
176
     1
  0
VISUALSTYLE
  5
36
102
{ACAD_REACTORS
330
2A
102
}
330
2A
100
AcDbVisualStyle
  2
Brighten
 70
    12
177
     2
291
     1
 71
     2
176
     1
 72
     2
176
     1
 73
     0
176
     1
 90
        0
176
     1
 40
-0.6
176
     1
 41
-30.0
176
     1
 62
     5
 63
     7
421
 16777215
176
     1
 74
     1
176
     1
 91
        4
176
     1
 64
     7
176
     1
 65
   257
176
     1
 75
     1
176
     1
175
     1
176
     1
 42
1.0
176
     1
 92
        8
176
     1
 66
     7
176
     1
 43
1.0
176
     1
 76
     1
176
     1
 77
     6
176
     1
 78
     2
176
     1
 67
     7
176
     1
 79
     5
176
     1
170
     0
176
     1
171
     0
176
     1
290
     0
176
     1
 93
        1
176
     1
 44
50.0
176
     1
173
     0
176
     1
  0
VISUALSTYLE
  5
3A
102
{ACAD_REACTORS
330
2A
102
}
330
2A
100
AcDbVisualStyle
  2
ColorChange
 70
    16
177
     2
291
     1
 71
     2
176
     1
 72
     2
176
     1
 73
     3
176
     1
 90
        0
176
     1
 40
-0.6
176
     1
 41
-30.0
176
     1
 62
     5
 63
     8
421
  8421504
176
     1
 74
     1
176
     1
 91
        4
176
     1
 64
     7
176
     1
 65
   257
176
     1
 75
     1
176
     1
175
     1
176
     1
 42
1.0
176
     1
 92
        8
176
     1
 66
     8
424
  8421504
176
     1
 43
1.0
176
     1
 76
     1
176
     1
 77
     6
176
     1
 78
     2
176
     1
 67
     7
176
     1
 79
     5
176
     1
170
     0
176
     1
171
     0
176
     1
290
     0
176
     1
 93
        1
176
     1
 44
0.0
176
     1
173
     0
176
     1
  0
VISUALSTYLE
  5
34
102
{ACAD_REACTORS
330
2A
102
}
330
2A
100
AcDbVisualStyle
  2
Conceptual
 70
     9
177
     2
291
     0
 71
     3
176
     1
 72
     2
176
     1
 73
     0
176
     1
 90
        0
176
     1
 40
-0.6
176
     1
 41
-30.0
176
     1
 62
     5
 63
     7
421
 16777215
176
     1
 74
     2
176
     1
 91
        2
176
     1
 64
     7
176
     1
 65
   257
176
     1
 75
     1
176
     1
175
     1
176
     1
 42
40.0
176
     1
 92
        8
176
     1
 66
     7
176
     1
 43
1.0
176
     1
 76
     1
176
     1
 77
     6
176
     1
 78
     2
176
     1
 67
     7
176
     1
 79
     3
176
     1
170
     0
176
     1
171
     0
176
     1
290
     0
176
     1
 93
        1
176
     1
 44
0.0
176
     1
173
     0
176
     1
  0
VISUALSTYLE
  5
35
102
{ACAD_REACTORS
330
2A
102
}
330
2A
100
AcDbVisualStyle
  2
Dim
 70
    11
177
     2
291
     1
 71
     2
176
     1
 72
     2
176
     1
 73
     0
176
     1
 90
        0
176
     1
 40
-0.6
176
     1
 41
-30.0
176
     1
 62
     5
 63
     7
421
 16777215
176
     1
 74
     1
176
     1
 91
        4
176
     1
 64
     7
176
     1
 65
   257
176
     1
 75
     1
176
     1
175
     1
176
     1
 42
1.0
176
     1
 92
        8
176
     1
 66
     7
176
     1
 43
1.0
176
     1
 76
     1
176
     1
 77
     6
176
     1
 78
     2
176
     1
 67
     7
176
     1
 79
     5
176
     1
170
     0
176
     1
171
     0
176
     1
290
     0
176
     1
 93
        1
176
     1
 44
-50.0
176
     1
173
     0
176
     1
  0
VISUALSTYLE
  5
370
102
{ACAD_REACTORS
330
2A
102
}
330
2A
100
AcDbVisualStyle
  2
EdgeColorOff
 70
    22
177
     2
291
     1
 71
     2
176
     0
 72
     2
176
     0
 73
     0
176
     0
 90
        0
176
     0
 40
0.6
176
     0
 41
30.0
176
     0
 62
     5
 63
     7
421
 16777215
176
     0
 74
     1
176
     0
 91
        4
176
     0
 64
     7
176
     0
 65
   257
176
     0
 75
     1
176
     0
175
     1
176
     0
 42
1.0
176
     0
 92
        8
176
     2
 66
     7
176
     0
 43
1.0
176
     0
 76
     1
176
     0
 77
     6
176
     0
 78
     2
176
     0
 67
     7
176
     0
 79
     5
176
     0
170
     0
176
     0
171
     0
176
     0
290
     0
176
     0
 93
        1
176
     0
 44
0.0
176
     0
173
     0
176
     0
  0
VISUALSTYLE
  5
39
102
{ACAD_REACTORS
330
2A
102
}
330
2A
100
AcDbVisualStyle
  2
Facepattern
 70
    15
177
     2
291
     1
 71
     2
176
     1
 72
     2
176
     1
 73
     0
176
     1
 90
        0
176
     1
 40
-0.6
176
     1
 41
-30.0
176
     1
 62
     5
 63
     7
421
 16777215
176
     1
 74
     1
176
     1
 91
        4
176
     1
 64
     7
176
     1
 65
   257
176
     1
 75
     1
176
     1
175
     1
176
     1
 42
1.0
176
     1
 92
        8
176
     1
 66
     7
176
     1
 43
1.0
176
     1
 76
     1
176
     1
 77
     6
176
     1
 78
     2
176
     1
 67
     7
176
     1
 79
     5
176
     1
170
     0
176
     1
171
     0
176
     1
290
     0
176
     1
 93
        1
176
     1
 44
0.0
176
     1
173
     0
176
     1
  0
VISUALSTYLE
  5
2B
102
{ACAD_REACTORS
330
2A
102
}
330
2A
100
AcDbVisualStyle
  2
Flat
 70
     0
177
     2
291
     1
 71
     2
176
     1
 72
     1
176
     1
 73
     1
176
     1
 90
        2
176
     1
 40
-0.6
176
     1
 41
30.0
176
     1
 62
     5
 63
     7
421
 16777215
176
     1
 74
     0
176
     1
 91
        4
176
     1
 64
     7
176
     1
 65
   257
176
     1
 75
     1
176
     1
175
     1
176
     1
 42
1.0
176
     1
 92
        8
176
     1
 66
     7
176
     1
 43
1.0
176
     1
 76
     1
176
     1
 77
     6
176
     1
 78
     2
176
     1
 67
     7
176
     1
 79
     5
176
     1
170
     0
176
     1
171
     0
176
     1
290
     0
176
     1
 93
       13
176
     1
 44
0.0
176
     1
173
     0
176
     1
  0
VISUALSTYLE
  5
2C
102
{ACAD_REACTORS
330
2A
102
}
330
2A
100
AcDbVisualStyle
  2
FlatWithEdges
 70
     1
177
     2
291
     1
 71
     2
176
     1
 72
     1
176
     1
 73
     1
176
     1
 90
        2
176
     1
 40
-0.6
176
     1
 41
30.0
176
     1
 62
     5
 63
     7
421
 16777215
176
     1
 74
     1
176
     1
 91
        4
176
     1
 64
     7
176
     1
 65
   257
176
     1
 75
     1
176
     1
175
     1
176
     1
 42
1.0
176
     1
 92
        0
176
     1
 66
   257
176
     1
 43
1.0
176
     1
 76
     1
176
     1
 77
     6
176
     1
 78
     2
176
     1
 67
     7
176
     1
 79
     5
176
     1
170
     0
176
     1
171
     0
176
     1
290
     0
176
     1
 93
       13
176
     1
 44
0.0
176
     1
173
     0
176
     1
  0
VISUALSTYLE
  5
2D
102
{ACAD_REACTORS
330
2A
102
}
330
2A
100
AcDbVisualStyle
  2
Gouraud
 70
     2
177
     2
291
     1
 71
     2
176
     1
 72
     2
176
     1
 73
     1
176
     1
 90
        2
176
     1
 40
-0.6
176
     1
 41
30.0
176
     1
 62
     5
 63
     7
421
 16777215
176
     1
 74
     0
176
     1
 91
        4
176
     1
 64
     7
176
     1
 65
   257
176
     1
 75
     1
176
     1
175
     1
176
     1
 42
1.0
176
     1
 92
        0
176
     1
 66
     7
176
     1
 43
1.0
176
     1
 76
     1
176
     1
 77
     6
176
     1
 78
     2
176
     1
 67
     7
176
     1
 79
     5
176
     1
170
     0
176
     1
171
     0
176
     1
290
     0
176
     1
 93
       13
176
     1
 44
0.0
176
     1
173
     0
176
     1
  0
VISUALSTYLE
  5
2E
102
{ACAD_REACTORS
330
2A
102
}
330
2A
100
AcDbVisualStyle
  2
GouraudWithEdges
 70
     3
177
     2
291
     1
 71
     2
176
     1
 72
     2
176
     1
 73
     1
176
     1
 90
        2
176
     1
 40
-0.6
176
     1
 41
30.0
176
     1
 62
     5
 63
     7
421
 16777215
176
     1
 74
     1
176
     1
 91
        4
176
     1
 64
     7
176
     1
 65
   257
176
     1
 75
     1
176
     1
175
     1
176
     1
 42
1.0
176
     1
 92
        0
176
     1
 66
   257
176
     1
 43
1.0
176
     1
 76
     1
176
     1
 77
     6
176
     1
 78
     2
176
     1
 67
     7
176
     1
 79
     5
176
     1
170
     0
176
     1
171
     0
176
     1
290
     0
176
     1
 93
       13
176
     1
 44
0.0
176
     1
173
     0
176
     1
  0
VISUALSTYLE
  5
36D
102
{ACAD_REACTORS
330
2A
102
}
330
2A
100
AcDbVisualStyle
  2
Hidden
 70
     6
177
     2
291
     0
 71
     1
176
     1
 72
     2
176
     1
 73
     2
176
     1
 90
        0
176
     1
 40
0.6
176
     1
 41
30.0
176
     1
 62
     5
 63
     7
421
 16777215
176
     1
 74
     2
176
     1
 91
        2
176
     1
 64
     7
176
     1
 65
   257
176
     1
 75
     2
176
     1
175
     1
176
     1
 42
40.0
176
     1
 92
        0
176
     1
 66
   257
176
     1
 43
1.0
176
     1
 76
     1
176
     1
 77
     6
176
     1
 78
     2
176
     1
 67
     7
176
     1
 79
     3
176
     1
170
     0
176
     1
171
     0
176
     1
290
     0
176
     1
 93
        1
176
     1
 44
0.0
176
     1
173
     0
176
     1
  0
VISUALSTYLE
  5
36E
102
{ACAD_REACTORS
330
2A
102
}
330
2A
100
AcDbVisualStyle
  2
JitterOff
 70
    20
177
     2
291
     1
 71
     2
176
     0
 72
     2
176
     0
 73
     0
176
     0
 90
        0
176
     0
 40
0.6
176
     0
 41
30.0
176
     0
 62
     5
 63
     7
421
 16777215
176
     0
 74
     1
176
     0
 91
        4
176
     0
 64
     7
176
     0
 65
   257
176
     0
 75
     1
176
     0
175
     1
176
     0
 42
1.0
176
     0
 92
       10
176
     2
 66
     7
176
     0
 43
1.0
176
     0
 76
     1
176
     0
 77
     6
176
     0
 78
     2
176
     0
 67
     7
176
     0
 79
     5
176
     0
170
     0
176
     0
171
     0
176
     0
290
     0
176
     0
 93
        1
176
     0
 44
0.0
176
     0
173
     0
176
     0
  0
VISUALSTYLE
  5
38
102
{ACAD_REACTORS
330
2A
102
}
330
2A
100
AcDbVisualStyle
  2
Linepattern
 70
    14
177
     2
291
     1
 71
     2
176
     1
 72
     2
176
     1
 73
     0
176
     1
 90
        0
176
     1
 40
-0.6
176
     1
 41
-30.0
176
     1
 62
     5
 63
     7
421
 16777215
176
     1
 74
     1
176
     1
 91
        4
176
     1
 64
     7
176
     1
 65
   257
176
     1
 75
     7
176
     1
175
     7
176
     1
 42
1.0
176
     1
 92
        8
176
     1
 66
     7
176
     1
 43
1.0
176
     1
 76
     1
176
     1
 77
     6
176
     1
 78
     2
176
     1
 67
     7
176
     1
 79
     5
176
     1
170
     0
176
     1
171
     0
176
     1
290
     0
176
     1
 93
        1
176
     1
 44
0.0
176
     1
173
     0
176
     1
  0
VISUALSTYLE
  5
36F
102
{ACAD_REACTORS
330
2A
102
}
330
2A
100
AcDbVisualStyle
  2
OverhangOff
 70
    21
177
     2
291
     1
 71
     2
176
     0
 72
     2
176
     0
 73
     0
176
     0
 90
        0
176
     0
 40
0.6
176
     0
 41
30.0
176
     0
 62
     5
 63
     7
421
 16777215
176
     0
 74
     1
176
     0
 91
        4
176
     0
 64
     7
176
     0
 65
   257
176
     0
 75
     1
176
     0
175
     1
176
     0
 42
1.0
176
     0
 92
        9
176
     2
 66
     7
176
     0
 43
1.0
176
     0
 76
     1
176
     0
 77
     6
176
     0
 78
     2
176
     0
 67
     7
176
     0
 79
     5
176
     0
170
     0
176
     0
171
     0
176
     0
290
     0
176
     0
 93
        1
176
     0
 44
0.0
176
     0
173
     0
176
     0
  0
VISUALSTYLE
  5
33
102
{ACAD_REACTORS
330
2A
102
}
330
2A
100
AcDbVisualStyle
  2
Realistic
 70
     8
177
     2
291
     0
 71
     2
176
     1
 72
     2
176
     1
 73
     0
176
     1
 90
        0
176
     1
 40
-0.6
176
     1
 41
-30.0
176
     1
 62
     5
 63
     7
421
 16777215
176
     1
 74
     1
176
     1
 91
        0
176
     1
 64
     7
176
     1
 65
   257
176
     1
 75
     1
176
     1
175
     1
176
     1
 42
1.0
176
     1
 92
        8
176
     1
 66
     8
424
  7895160
176
     1
 43
1.0
176
     1
 76
     1
176
     1
 77
     6
176
     1
 78
     2
176
     1
 67
     7
176
     1
 79
     5
176
     1
170
     0
176
     1
171
     0
176
     1
290
     0
176
     1
 93
       13
176
     1
 44
0.0
176
     1
173
     0
176
     1
  0
VISUALSTYLE
  5
375
102
{ACAD_REACTORS
330
2A
102
}
330
2A
100
AcDbVisualStyle
  2
Shaded
 70
    27
177
     2
291
     0
 71
     2
176
     1
 72
     2
176
     1
 73
     1
176
     1
 90
        2
176
     1
 40
0.6
176
     1
 41
30.0
176
     1
 62
     5
 63
     7
421
 16777215
176
     1
 74
     0
176
     1
 91
        4
176
     1
 64
     7
176
     1
 65
   257
176
     1
 75
     1
176
     1
175
     1
176
     1
 42
1.0
176
     1
 92
        8
176
     1
 66
   257
176
     1
 43
1.0
176
     1
 76
     1
176
     1
 77
     6
176
     1
 78
     2
176
     1
 67
     8
425
  7895160
176
     1
 79
     3
176
     1
170
     0
176
     1
171
     0
176
     1
290
     0
176
     1
 93
        5
176
     1
 44
0.0
176
     1
173
     0
176
     1
  0
VISUALSTYLE
  5
374
102
{ACAD_REACTORS
330
2A
102
}
330
2A
100
AcDbVisualStyle
  2
Shaded with edges
 70
    26
177
     2
291
     0
 71
     2
176
     1
 72
     2
176
     1
 73
     1
176
     1
 90
        2
176
     1
 40
0.6
176
     1
 41
30.0
176
     1
 62
     5
 63
     7
421
 16777215
176
     1
 74
     1
176
     1
 91
       10
176
     1
 64
     7
176
     1
 65
   257
176
     1
 75
     2
176
     1
175
     1
176
     1
 42
1.0
176
     1
 92
        8
176
     1
 66
   257
176
     1
 43
1.0
176
     1
 76
     1
176
     1
 77
     6
176
     1
 78
     2
176
     1
 67
     7
176
     1
 79
     3
176
     1
170
     0
176
     1
171
     0
176
     1
290
     0
176
     1
 93
        5
176
     1
 44
0.0
176
     1
173
     0
176
     1
  0
VISUALSTYLE
  5
371
102
{ACAD_REACTORS
330
2A
102
}
330
2A
100
AcDbVisualStyle
  2
Shades of Gray
 70
    23
177
     2
291
     0
 71
     2
176
     1
 72
     2
176
     1
 73
     3
176
     1
 90
        0
176
     1
 40
0.6
176
     1
 41
30.0
176
     1
 62
     5
 63
     7
421
 16777215
176
     1
 74
     2
176
     1
 91
        2
176
     1
 64
     7
176
     1
 65
     7
176
     1
 75
     1
176
     1
175
     1
176
     1
 42
40.0
176
     1
 92
        8
176
     1
 66
     7
176
     1
 43
1.0
176
     1
 76
     1
176
     1
 77
     6
176
     1
 78
     2
176
     1
 67
     7
176
     1
 79
     3
176
     1
170
     0
176
     1
171
     0
176
     1
290
     0
176
     1
 93
        1
176
     1
 44
0.0
176
     1
173
     0
176
     1
  0
VISUALSTYLE
  5
372
102
{ACAD_REACTORS
330
2A
102
}
330
2A
100
AcDbVisualStyle
  2
Sketchy
 70
    24
177
     2
291
     0
 71
     1
176
     1
 72
     2
176
     1
 73
     2
176
     1
 90
        0
176
     1
 40
0.6
176
     1
 41
30.0
176
     1
 62
     5
 63
     7
421
 16777215
176
     1
 74
     2
176
     1
 91
        2
176
     1
 64
     7
176
     1
 65
     7
176
     1
 75
     1
176
     1
175
     1
176
     1
 42
40.0
176
     1
 92
       11
176
     1
 66
     7
176
     1
 43
1.0
176
     1
 76
     1
176
     1
 77
     6
176
     1
 78
     2
176
     1
 67
     7
176
     1
 79
     6
176
     1
170
     0
176
     1
171
     0
176
     1
290
     0
176
     1
 93
        1
176
     1
 44
0.0
176
     1
173
     0
176
     1
  0
VISUALSTYLE
  5
37
102
{ACAD_REACTORS
330
2A
102
}
330
2A
100
AcDbVisualStyle
  2
Thicken
 70
    13
177
     2
291
     1
 71
     2
176
     1
 72
     2
176
     1
 73
     0
176
     1
 90
        0
176
     1
 40
-0.6
176
     1
 41
-30.0
176
     1
 62
     5
 63
     7
421
 16777215
176
     1
 74
     1
176
     1
 91
        4
176
     1
 64
     7
176
     1
 65
   257
176
     1
 75
     1
176
     1
175
     1
176
     1
 42
1.0
176
     1
 92
       12
176
     1
 66
     7
176
     1
 43
1.0
176
     1
 76
     1
176
     1
 77
     6
176
     1
 78
     2
176
     1
 67
     7
176
     1
 79
     5
176
     1
170
     0
176
     1
171
     0
176
     1
290
     0
176
     1
 93
        1
176
     1
 44
0.0
176
     1
173
     0
176
     1
  0
VISUALSTYLE
  5
36C
102
{ACAD_REACTORS
330
2A
102
}
330
2A
100
AcDbVisualStyle
  2
Wireframe
 70
     5
177
     2
291
     0
 71
     0
176
     1
 72
     2
176
     1
 73
     0
176
     1
 90
        0
176
     1
 40
0.6
176
     1
 41
30.0
176
     1
 62
     5
 63
     7
421
 16777215
176
     1
 74
     1
176
     1
 91
        4
176
     1
 64
     7
176
     1
 65
   257
176
     1
 75
     1
176
     1
175
     1
176
     1
 42
1.0
176
     1
 92
        0
176
     1
 66
   257
176
     1
 43
1.0
176
     1
 76
     1
176
     1
 77
     6
176
     1
 78
     2
176
     1
 67
     7
176
     1
 79
     3
176
     1
170
     0
176
     1
171
     0
176
     1
290
     0
176
     1
 93
        1
176
     1
 44
0.0
176
     1
173
     0
176
     1
  0
VISUALSTYLE
  5
373
102
{ACAD_REACTORS
330
2A
102
}
330
2A
100
AcDbVisualStyle
  2
X-Ray
 70
    25
177
     2
291
     0
 71
     2
176
     1
 72
     2
176
     1
 73
     1
176
     1
 90
        1
176
     1
 40
0.5
176
     1
 41
30.0
176
     1
 62
     5
 63
     7
421
 16777215
176
     1
 74
     1
176
     1
 91
        0
176
     1
 64
     7
176
     1
 65
   257
176
     1
 75
     1
176
     1
175
     1
176
     1
 42
1.0
176
     1
 92
        8
176
     1
 66
     7
176
     1
 43
1.0
176
     1
 76
     1
176
     1
 77
     6
176
     1
 78
     2
176
     1
 67
     7
176
     1
 79
     3
176
     1
170
     0
176
     1
171
     0
176
     1
290
     0
176
     1
 93
       13
176
     1
 44
0.0
176
     1
173
     0
176
     1
  0
DICTIONARYVAR
  5
210
102
{ACAD_REACTORS
330
20F
102
}
330
20F
100
DictionaryVariables
280
     0
  1
1:1
  0
DICTIONARYVAR
  5
364
102
{ACAD_REACTORS
330
20F
102
}
330
20F
100
DictionaryVariables
280
     0
  1
Standard
  0
DICTIONARYVAR
  5
363
102
{ACAD_REACTORS
330
20F
102
}
330
20F
100
DictionaryVariables
280
     0
  1
Standard
  0
DICTIONARYVAR
  5
379
102
{ACAD_REACTORS
330
20F
102
}
330
20F
100
DictionaryVariables
280
     0
  1
0
  0
DICTIONARY
  5
3EE
330
235
100
AcDbDictionary
280
     1
281
     1
  3
ACAD_ROUNDTRIP_2008_TABLESTYLE_CELLSTYLEMAP
360
3EF
  0
CELLSTYLEMAP
  5
3EF
102
{ACAD_REACTORS
330
3EE
102
}
330
3EE
100
AcDbCellStyleMap
 90
        3
300
CELLSTYLE
  1
TABLEFORMAT_BEGIN
 90
        5
170
     1
 91
        0
 92
    32768
 62
   257
 93
        1
300
CONTENTFORMAT
  1
CONTENTFORMAT_BEGIN
 90
        0
 91
        0
 92
      512
 93
        0
300

 40
0.0
140
1.0
 94
        5
 62
     0
340
11
144
6.0
309
CONTENTFORMAT_END
171
     1
301
MARGIN
  1
CELLMARGIN_BEGIN
 40
1.5
 40
1.5
 40
1.5
 40
1.5
 40
4.5
 40
4.5
309
CELLMARGIN_END
 94
        6
 95
        1
302
GRIDFORMAT
  1
GRIDFORMAT_BEGIN
 90
        0
 91
        1
 62
     0
 92
       -2
340
0
 93
        0
 40
1.125
309
GRIDFORMAT_END
 95
        2
302
GRIDFORMAT
  1
GRIDFORMAT_BEGIN
 90
        0
 91
        1
 62
     0
 92
       -2
340
0
 93
        0
 40
1.125
309
GRIDFORMAT_END
 95
        4
302
GRIDFORMAT
  1
GRIDFORMAT_BEGIN
 90
        0
 91
        1
 62
     0
 92
       -2
340
0
 93
        0
 40
1.125
309
GRIDFORMAT_END
 95
        8
302
GRIDFORMAT
  1
GRIDFORMAT_BEGIN
 90
        0
 91
        1
 62
     0
 92
       -2
340
0
 93
        0
 40
1.125
309
GRIDFORMAT_END
 95
       16
302
GRIDFORMAT
  1
GRIDFORMAT_BEGIN
 90
        0
 91
        1
 62
     0
 92
       -2
340
0
 93
        0
 40
1.125
309
GRIDFORMAT_END
 95
       32
302
GRIDFORMAT
  1
GRIDFORMAT_BEGIN
 90
        0
 91
        1
 62
     0
 92
       -2
340
0
 93
        0
 40
1.125
309
GRIDFORMAT_END
309
TABLEFORMAT_END
  1
CELLSTYLE_BEGIN
 90
        1
 91
        1
300
_TITLE
309
CELLSTYLE_END
300
CELLSTYLE
  1
TABLEFORMAT_BEGIN
 90
        5
170
     1
 91
        0
 92
        0
 62
   257
 93
        1
300
CONTENTFORMAT
  1
CONTENTFORMAT_BEGIN
 90
        0
 91
        0
 92
      512
 93
        0
300

 40
0.0
140
1.0
 94
        5
 62
     0
340
11
144
4.5
309
CONTENTFORMAT_END
171
     1
301
MARGIN
  1
CELLMARGIN_BEGIN
 40
1.5
 40
1.5
 40
1.5
 40
1.5
 40
4.5
 40
4.5
309
CELLMARGIN_END
 94
        6
 95
        1
302
GRIDFORMAT
  1
GRIDFORMAT_BEGIN
 90
        0
 91
        1
 62
     0
 92
       -2
340
0
 93
        0
 40
1.125
309
GRIDFORMAT_END
 95
        2
302
GRIDFORMAT
  1
GRIDFORMAT_BEGIN
 90
        0
 91
        1
 62
     0
 92
       -2
340
0
 93
        0
 40
1.125
309
GRIDFORMAT_END
 95
        4
302
GRIDFORMAT
  1
GRIDFORMAT_BEGIN
 90
        0
 91
        1
 62
     0
 92
       -2
340
0
 93
        0
 40
1.125
309
GRIDFORMAT_END
 95
        8
302
GRIDFORMAT
  1
GRIDFORMAT_BEGIN
 90
        0
 91
        1
 62
     0
 92
       -2
340
0
 93
        0
 40
1.125
309
GRIDFORMAT_END
 95
       16
302
GRIDFORMAT
  1
GRIDFORMAT_BEGIN
 90
        0
 91
        1
 62
     0
 92
       -2
340
0
 93
        0
 40
1.125
309
GRIDFORMAT_END
 95
       32
302
GRIDFORMAT
  1
GRIDFORMAT_BEGIN
 90
        0
 91
        1
 62
     0
 92
       -2
340
0
 93
        0
 40
1.125
309
GRIDFORMAT_END
309
TABLEFORMAT_END
  1
CELLSTYLE_BEGIN
 90
        2
 91
        1
300
_HEADER
309
CELLSTYLE_END
300
CELLSTYLE
  1
TABLEFORMAT_BEGIN
 90
        5
170
     1
 91
        0
 92
        0
 62
   257
 93
        1
300
CONTENTFORMAT
  1
CONTENTFORMAT_BEGIN
 90
        0
 91
        0
 92
      512
 93
        0
300

 40
0.0
140
1.0
 94
        2
 62
     0
340
11
144
4.5
309
CONTENTFORMAT_END
171
     1
301
MARGIN
  1
CELLMARGIN_BEGIN
 40
1.5
 40
1.5
 40
1.5
 40
1.5
 40
4.5
 40
4.5
309
CELLMARGIN_END
 94
        6
 95
        1
302
GRIDFORMAT
  1
GRIDFORMAT_BEGIN
 90
        0
 91
        1
 62
     0
 92
       -2
340
0
 93
        0
 40
1.125
309
GRIDFORMAT_END
 95
        2
302
GRIDFORMAT
  1
GRIDFORMAT_BEGIN
 90
        0
 91
        1
 62
     0
 92
       -2
340
0
 93
        0
 40
1.125
309
GRIDFORMAT_END
 95
        4
302
GRIDFORMAT
  1
GRIDFORMAT_BEGIN
 90
        0
 91
        1
 62
     0
 92
       -2
340
0
 93
        0
 40
1.125
309
GRIDFORMAT_END
 95
        8
302
GRIDFORMAT
  1
GRIDFORMAT_BEGIN
 90
        0
 91
        1
 62
     0
 92
       -2
340
0
 93
        0
 40
1.125
309
GRIDFORMAT_END
 95
       16
302
GRIDFORMAT
  1
GRIDFORMAT_BEGIN
 90
        0
 91
        1
 62
     0
 92
       -2
340
0
 93
        0
 40
1.125
309
GRIDFORMAT_END
 95
       32
302
GRIDFORMAT
  1
GRIDFORMAT_BEGIN
 90
        0
 91
        1
 62
     0
 92
       -2
340
0
 93
        0
 40
1.125
309
GRIDFORMAT_END
309
TABLEFORMAT_END
  1
CELLSTYLE_BEGIN
 90
        3
 91
        2
300
_DATA
309
CELLSTYLE_END
  0
ENDSEC
  0
EOF
